<svg xmlns="http://www.w3.org/2000/svg" xmlns:xlink="http://www.w3.org/1999/xlink" stroke="#000" stroke-linecap="square" stroke-miterlimit="10" color-interpolation="auto" font-family="'Dialog'" font-size="12" viewBox="0 0 633 346"><defs><path id="a" fill="none" stroke="#6E6E6E" stroke-linecap="round" stroke-linejoin="round" stroke-miterlimit="4" stroke-width="2" d="M12 3h4l5 5v4l-3 3h-4l-5-5V6Zm2 4 3 3m-8 1-7 7v3l1 1h4v-3h3v-3h2l1-1" clip-path="url(#clipPath4)" image-rendering="optimizeQuality"/><path id="b" fill="none" stroke="#6E6E6E" stroke-linecap="round" stroke-linejoin="round" stroke-miterlimit="4" stroke-width="2" d="M7 7h10v10M7 17 17 7" clip-path="url(#clipPath4)" image-rendering="optimizeQuality"/></defs><path fill="#FFC" stroke="none" d="M237 0h153v132H237z" clip-path="url(#clipPath2)" transform="translate(10 10)"/><g fill="gray" stroke="gray" stroke-linecap="butt" stroke-miterlimit="1.4"><path fill="none" d="M237 0h153v132H237z" clip-path="url(#clipPath2)" transform="translate(10 10)"/><text xml:space="preserve" x="300" y="18" fill="#000" stroke="none" clip-path="url(#clipPath2)" font-family="'JetBrains Mono Medium'" transform="translate(10 10)">User</text><path fill="none" stroke-linecap="square" stroke-miterlimit="10" d="M238 25h151" clip-path="url(#clipPath2)" transform="translate(10 10)"/></g><use xlink:href="#a" stroke-linecap="round" stroke-linejoin="round" stroke-miterlimit="4" stroke-width="2" clip-path="url(#clipPath4)" image-rendering="optimizeQuality" transform="matrix(.7 0 0 .7 251 39)"/><text xml:space="preserve" x="263" y="43" stroke="none" stroke-linecap="butt" stroke-miterlimit="1.4" clip-path="url(#clipPath2)" font-family="'JetBrains Mono Medium'" font-size="11" font-weight="bold" transform="translate(10 10)">uid</text><g stroke="none" stroke-linecap="butt" stroke-miterlimit="1.4" font-family="'JetBrains Mono Medium'" font-size="11"><text xml:space="preserve" x="321" y="43" clip-path="url(#clipPath2)" transform="translate(10 10)">INTEGER</text><text xml:space="preserve" x="263" y="64" clip-path="url(#clipPath2)" font-weight="bold" transform="translate(10 10)">mail</text><text xml:space="preserve" x="321" y="64" clip-path="url(#clipPath2)" transform="translate(10 10)">TEXT</text><text xml:space="preserve" x="263" y="84" clip-path="url(#clipPath2)" font-weight="bold" transform="translate(10 10)">name</text><text xml:space="preserve" x="321" y="84" clip-path="url(#clipPath2)" transform="translate(10 10)">TEXT</text><text xml:space="preserve" x="263" y="105" clip-path="url(#clipPath2)" font-weight="bold" transform="translate(10 10)">created</text><text xml:space="preserve" x="321" y="105" clip-path="url(#clipPath2)" transform="translate(10 10)">DATETIME</text><text xml:space="preserve" x="263" y="125" clip-path="url(#clipPath2)" font-weight="bold" transform="translate(10 10)">updated</text><text xml:space="preserve" x="321" y="125" clip-path="url(#clipPath2)" transform="translate(10 10)">DATETIME</text></g><path fill="#FFC" stroke="none" d="M459 173h153v132H459z" clip-path="url(#clipPath2)" transform="translate(10 10)"/><g fill="gray" stroke="gray" stroke-linecap="butt" stroke-miterlimit="1.4"><path fill="none" d="M459 173h153v132H459z" clip-path="url(#clipPath2)" transform="translate(10 10)"/><text xml:space="preserve" x="522" y="191" fill="#000" stroke="none" clip-path="url(#clipPath2)" font-family="'JetBrains Mono Medium'" transform="translate(10 10)">Team</text><path fill="none" stroke-linecap="square" stroke-miterlimit="10" d="M459 198h152" clip-path="url(#clipPath2)" transform="translate(10 10)"/></g><use xlink:href="#a" stroke-linecap="round" stroke-linejoin="round" stroke-miterlimit="4" stroke-width="2" clip-path="url(#clipPath4)" image-rendering="optimizeQuality" transform="matrix(.7 0 0 .7 473 212)"/><text xml:space="preserve" x="485" y="216" stroke="none" stroke-linecap="butt" stroke-miterlimit="1.4" clip-path="url(#clipPath2)" font-family="'JetBrains Mono Medium'" font-size="11" font-weight="bold" transform="translate(10 10)">tid</text><g stroke="none" stroke-linecap="butt" stroke-miterlimit="1.4" font-family="'JetBrains Mono Medium'" font-size="11"><text xml:space="preserve" x="542" y="216" clip-path="url(#clipPath2)" transform="translate(10 10)">INTEGER</text><text xml:space="preserve" x="485" y="237" clip-path="url(#clipPath2)" font-weight="bold" transform="translate(10 10)">name</text><text xml:space="preserve" x="542" y="237" clip-path="url(#clipPath2)" transform="translate(10 10)">TEXT</text><text xml:space="preserve" x="485" y="257" clip-path="url(#clipPath2)" font-weight="bold" transform="translate(10 10)">desc</text><text xml:space="preserve" x="542" y="257" clip-path="url(#clipPath2)" transform="translate(10 10)">TEXT</text><text xml:space="preserve" x="485" y="278" clip-path="url(#clipPath2)" font-weight="bold" transform="translate(10 10)">created</text><text xml:space="preserve" x="542" y="278" clip-path="url(#clipPath2)" transform="translate(10 10)">DATETIME</text><text xml:space="preserve" x="485" y="298" clip-path="url(#clipPath2)" font-weight="bold" transform="translate(10 10)">updated</text><text xml:space="preserve" x="542" y="298" clip-path="url(#clipPath2)" transform="translate(10 10)">DATETIME</text></g><path fill="#FFC" stroke="none" d="M229 152h169v174H229z" clip-path="url(#clipPath2)" transform="translate(10 10)"/><g fill="gray" stroke="gray" stroke-linecap="butt" stroke-miterlimit="1.4"><path fill="none" d="M229 152h169v174H229z" clip-path="url(#clipPath2)" transform="translate(10 10)"/><text xml:space="preserve" x="300" y="171" fill="#000" stroke="none" clip-path="url(#clipPath2)" font-family="'JetBrains Mono Medium'" transform="translate(10 10)">Task</text><path fill="none" stroke-linecap="square" stroke-miterlimit="10" d="M230 178h167" clip-path="url(#clipPath2)" transform="translate(10 10)"/></g><use xlink:href="#a" stroke-linecap="round" stroke-linejoin="round" stroke-miterlimit="4" stroke-width="2" clip-path="url(#clipPath7)" image-rendering="optimizeQuality" transform="matrix(.7 0 0 .7 243 191)"/><text xml:space="preserve" x="255" y="196" stroke="none" stroke-linecap="butt" stroke-miterlimit="1.4" clip-path="url(#clipPath2)" font-family="'JetBrains Mono Medium'" font-size="11" font-weight="bold" transform="translate(10 10)">aid</text><g stroke="none" stroke-linecap="butt" stroke-miterlimit="1.4" font-family="'JetBrains Mono Medium'" font-size="11"><text xml:space="preserve" x="313" y="196" clip-path="url(#clipPath2)" transform="translate(10 10)">INTEGER</text><text xml:space="preserve" x="255" y="216" clip-path="url(#clipPath2)" font-weight="bold" transform="translate(10 10)">tid</text><text xml:space="preserve" x="313" y="216" clip-path="url(#clipPath2)" transform="translate(10 10)">INTEGER</text></g><use xlink:href="#b" stroke-linecap="round" stroke-linejoin="round" stroke-miterlimit="4" stroke-width="2" clip-path="url(#clipPath4)" image-rendering="optimizeQuality" transform="matrix(.7 0 0 .7 387 212)"/><text xml:space="preserve" x="255" y="237" stroke="none" stroke-linecap="butt" stroke-miterlimit="1.4" clip-path="url(#clipPath2)" font-family="'JetBrains Mono Medium'" font-size="11" font-weight="bold" transform="translate(10 10)">name</text><g stroke="none" stroke-linecap="butt" stroke-miterlimit="1.4" font-family="'JetBrains Mono Medium'" font-size="11"><text xml:space="preserve" x="313" y="237" clip-path="url(#clipPath2)" transform="translate(10 10)">TEXT</text><text xml:space="preserve" x="255" y="257" clip-path="url(#clipPath2)" font-weight="bold" transform="translate(10 10)">desc</text><text xml:space="preserve" x="313" y="257" clip-path="url(#clipPath2)" transform="translate(10 10)">TEXT</text><text xml:space="preserve" x="255" y="278" clip-path="url(#clipPath2)" font-weight="bold" transform="translate(10 10)">dead</text><text xml:space="preserve" x="313" y="278" clip-path="url(#clipPath2)" transform="translate(10 10)">DATETIME</text><text xml:space="preserve" x="255" y="298" clip-path="url(#clipPath2)" font-weight="bold" transform="translate(10 10)">created</text><text xml:space="preserve" x="313" y="298" clip-path="url(#clipPath2)" transform="translate(10 10)">DATETIME</text><text xml:space="preserve" x="255" y="319" clip-path="url(#clipPath2)" font-weight="bold" transform="translate(10 10)">updated</text><text xml:space="preserve" x="313" y="319" clip-path="url(#clipPath2)" transform="translate(10 10)">DATETIME</text></g><path fill="#FFC" stroke="none" d="M0 45h169v174H0z" clip-path="url(#clipPath2)" transform="translate(10 10)"/><g fill="gray" stroke="gray" stroke-linecap="butt" stroke-miterlimit="1.4"><path fill="none" d="M0 45h169v174H0z" clip-path="url(#clipPath2)" transform="translate(10 10)"/><text xml:space="preserve" x="71" y="64" fill="#000" stroke="none" clip-path="url(#clipPath2)" font-family="'JetBrains Mono Medium'" transform="translate(10 10)">Work</text><path fill="none" stroke-linecap="square" stroke-miterlimit="10" d="M1 71h167" clip-path="url(#clipPath2)" transform="translate(10 10)"/></g><use xlink:href="#a" stroke-linecap="round" stroke-linejoin="round" stroke-miterlimit="4" stroke-width="2" clip-path="url(#clipPath4)" image-rendering="optimizeQuality" transform="matrix(.7 0 0 .7 14 84)"/><text xml:space="preserve" x="26" y="89" stroke="none" stroke-linecap="butt" stroke-miterlimit="1.4" clip-path="url(#clipPath2)" font-family="'JetBrains Mono Medium'" font-size="11" font-weight="bold" transform="translate(10 10)">sid</text><g stroke="none" stroke-linecap="butt" stroke-miterlimit="1.4" font-family="'JetBrains Mono Medium'" font-size="11"><text xml:space="preserve" x="83" y="89" clip-path="url(#clipPath2)" transform="translate(10 10)">INTEGER</text><text xml:space="preserve" x="26" y="109" clip-path="url(#clipPath2)" font-weight="bold" transform="translate(10 10)">uid</text><text xml:space="preserve" x="83" y="109" clip-path="url(#clipPath2)" transform="translate(10 10)">INTEGER</text></g><use xlink:href="#b" stroke-linecap="round" stroke-linejoin="round" stroke-miterlimit="4" stroke-width="2" clip-path="url(#clipPath4)" image-rendering="optimizeQuality" transform="matrix(.7 0 0 .7 157 105)"/><text xml:space="preserve" x="26" y="130" stroke="none" stroke-linecap="butt" stroke-miterlimit="1.4" clip-path="url(#clipPath2)" font-family="'JetBrains Mono Medium'" font-size="11" font-weight="bold" transform="translate(10 10)">aid</text><text xml:space="preserve" x="83" y="130" stroke="none" stroke-linecap="butt" stroke-miterlimit="1.4" clip-path="url(#clipPath2)" font-family="'JetBrains Mono Medium'" font-size="11" transform="translate(10 10)">INTEGER</text><use xlink:href="#b" stroke-linecap="round" stroke-linejoin="round" stroke-miterlimit="4" stroke-width="2" clip-path="url(#clipPath7)" image-rendering="optimizeQuality" transform="matrix(.7 0 0 .7 157 125)"/><text xml:space="preserve" x="26" y="150" stroke="none" stroke-linecap="butt" stroke-miterlimit="1.4" clip-path="url(#clipPath2)" font-family="'JetBrains Mono Medium'" font-size="11" font-weight="bold" transform="translate(10 10)">done</text><g stroke="none" stroke-linecap="butt" stroke-miterlimit="1.4" font-family="'JetBrains Mono Medium'" font-size="11"><text xml:space="preserve" x="83" y="150" clip-path="url(#clipPath2)" transform="translate(10 10)">BOOLEAN</text><text xml:space="preserve" x="26" y="171" clip-path="url(#clipPath2)" font-weight="bold" transform="translate(10 10)">comm</text><text xml:space="preserve" x="83" y="171" clip-path="url(#clipPath2)" transform="translate(10 10)">TEXT</text><text xml:space="preserve" x="26" y="191" clip-path="url(#clipPath2)" font-weight="bold" transform="translate(10 10)">created</text><text xml:space="preserve" x="83" y="191" clip-path="url(#clipPath2)" transform="translate(10 10)">DATETIME</text><text xml:space="preserve" x="26" y="212" clip-path="url(#clipPath2)" font-weight="bold" transform="translate(10 10)">updated</text><text xml:space="preserve" x="83" y="212" clip-path="url(#clipPath2)" transform="translate(10 10)">DATETIME</text></g><path fill="none" stroke="gray" stroke-linecap="butt" stroke-miterlimit="1.4" d="M169 104h30V38h30" clip-path="url(#clipPath2)" transform="translate(10 10)"/><g fill="gray" stroke="gray" stroke-linecap="butt" stroke-miterlimit="1.4"><path stroke="none" d="m237 38-12-5 3 5-3 5Z" clip-path="url(#clipPath2)" transform="translate(10 10)"/><path fill="none" d="M399 211h52" clip-path="url(#clipPath2)" transform="translate(10 10)"/><path stroke="none" d="m459 211-12-5 3 5-3 5Z" clip-path="url(#clipPath2)" transform="translate(10 10)"/><path fill="none" d="M169 125h30v66h22" clip-path="url(#clipPath2)" transform="translate(10 10)"/><path stroke="none" d="m229 191-12-5 3 5-3 5Z" clip-path="url(#clipPath2)" transform="translate(10 10)"/></g></svg>