<svg xmlns="http://www.w3.org/2000/svg" xmlns:xlink="http://www.w3.org/1999/xlink" stroke="#000" stroke-linecap="square" stroke-miterlimit="10" color-interpolation="auto" font-family="'Dialog'" font-size="12" viewBox="0 0 403 326"><defs><path id="a" fill="none" stroke="#6E6E6E" stroke-linecap="round" stroke-linejoin="round" stroke-miterlimit="4" stroke-width="2" d="M12 3h4l5 5v4l-3 3h-4l-5-5V6Zm2 4 3 3m-8 1-7 7v3l1 1h4v-3h3v-3h2l1-1" clip-path="url(#clipPath4)" image-rendering="optimizeQuality"/><path id="b" fill="none" stroke="#6E6E6E" stroke-linecap="round" stroke-linejoin="round" stroke-miterlimit="4" stroke-width="2" d="M7 7h10v10M7 17 17 7" clip-path="url(#clipPath4)" image-rendering="optimizeQuality"/><path id="c" stroke="none" d="m229 135-12-5 3 5-3 5Z" clip-path="url(#clipPath2)"/></defs><path fill="#FFC" stroke="none" d="M229 97h153v132H229z" clip-path="url(#clipPath2)" transform="translate(10 10)"/><g fill="gray" stroke="gray" stroke-linecap="butt" stroke-miterlimit="1.4"><path fill="none" d="M229 97h153v132H229z" clip-path="url(#clipPath2)" transform="translate(10 10)"/><text xml:space="preserve" x="292" y="115" fill="#000" stroke="none" clip-path="url(#clipPath2)" font-family="'JetBrains Mono Medium'" transform="translate(10 10)">User</text><path fill="none" stroke-linecap="square" stroke-miterlimit="10" d="M230 122h151" clip-path="url(#clipPath2)" transform="translate(10 10)"/></g><use xlink:href="#a" stroke-linecap="round" stroke-linejoin="round" stroke-miterlimit="4" stroke-width="2" clip-path="url(#clipPath4)" image-rendering="optimizeQuality" transform="matrix(.7 0 0 .7 243 136)"/><text xml:space="preserve" x="255" y="140" stroke="none" stroke-linecap="butt" stroke-miterlimit="1.4" clip-path="url(#clipPath2)" font-family="'JetBrains Mono Medium'" font-size="11" font-weight="bold" transform="translate(10 10)">uid</text><g stroke="none" stroke-linecap="butt" stroke-miterlimit="1.4" font-family="'JetBrains Mono Medium'" font-size="11"><text xml:space="preserve" x="313" y="140" clip-path="url(#clipPath2)" transform="translate(10 10)">INTEGER</text><text xml:space="preserve" x="255" y="160" clip-path="url(#clipPath2)" font-weight="bold" transform="translate(10 10)">mail</text><text xml:space="preserve" x="313" y="160" clip-path="url(#clipPath2)" transform="translate(10 10)">TEXT</text><text xml:space="preserve" x="255" y="181" clip-path="url(#clipPath2)" font-weight="bold" transform="translate(10 10)">name</text><text xml:space="preserve" x="313" y="181" clip-path="url(#clipPath2)" transform="translate(10 10)">TEXT</text><text xml:space="preserve" x="255" y="201" clip-path="url(#clipPath2)" font-weight="bold" transform="translate(10 10)">created</text><text xml:space="preserve" x="313" y="201" clip-path="url(#clipPath2)" transform="translate(10 10)">DATETIME</text><text xml:space="preserve" x="255" y="222" clip-path="url(#clipPath2)" font-weight="bold" transform="translate(10 10)">updated</text><text xml:space="preserve" x="313" y="222" clip-path="url(#clipPath2)" transform="translate(10 10)">DATETIME</text></g><path fill="#FFC" stroke="none" d="M0 173h169v132H0z" clip-path="url(#clipPath2)" transform="translate(10 10)"/><g fill="gray" stroke="gray" stroke-linecap="butt" stroke-miterlimit="1.4"><path fill="none" d="M0 173h169v132H0z" clip-path="url(#clipPath2)" transform="translate(10 10)"/><text xml:space="preserve" x="71" y="191" fill="#000" stroke="none" clip-path="url(#clipPath2)" font-family="'JetBrains Mono Medium'" transform="translate(10 10)">Pass</text><path fill="none" stroke-linecap="square" stroke-miterlimit="10" d="M1 198h167" clip-path="url(#clipPath2)" transform="translate(10 10)"/></g><use xlink:href="#a" stroke-linecap="round" stroke-linejoin="round" stroke-miterlimit="4" stroke-width="2" clip-path="url(#clipPath4)" image-rendering="optimizeQuality" transform="matrix(.7 0 0 .7 14 212)"/><text xml:space="preserve" x="26" y="216" stroke="none" stroke-linecap="butt" stroke-miterlimit="1.4" clip-path="url(#clipPath2)" font-family="'JetBrains Mono Medium'" font-size="11" font-weight="bold" transform="translate(10 10)">uid</text><text xml:space="preserve" x="83" y="216" stroke="none" stroke-linecap="butt" stroke-miterlimit="1.4" clip-path="url(#clipPath2)" font-family="'JetBrains Mono Medium'" font-size="11" transform="translate(10 10)">INTEGER</text><use xlink:href="#b" stroke-linecap="round" stroke-linejoin="round" stroke-miterlimit="4" stroke-width="2" clip-path="url(#clipPath4)" image-rendering="optimizeQuality" transform="matrix(.7 0 0 .7 157 212)"/><text xml:space="preserve" x="26" y="237" stroke="none" stroke-linecap="butt" stroke-miterlimit="1.4" clip-path="url(#clipPath2)" font-family="'JetBrains Mono Medium'" font-size="11" font-weight="bold" transform="translate(10 10)">hash</text><g stroke="none" stroke-linecap="butt" stroke-miterlimit="1.4" font-family="'JetBrains Mono Medium'" font-size="11"><text xml:space="preserve" x="83" y="237" clip-path="url(#clipPath2)" transform="translate(10 10)">BLOB</text><text xml:space="preserve" x="26" y="257" clip-path="url(#clipPath2)" font-weight="bold" transform="translate(10 10)">salt</text><text xml:space="preserve" x="83" y="257" clip-path="url(#clipPath2)" transform="translate(10 10)">BLOB</text><text xml:space="preserve" x="26" y="278" clip-path="url(#clipPath2)" font-weight="bold" transform="translate(10 10)">created</text><text xml:space="preserve" x="83" y="278" clip-path="url(#clipPath2)" transform="translate(10 10)">DATETIME</text><text xml:space="preserve" x="26" y="298" clip-path="url(#clipPath2)" font-weight="bold" transform="translate(10 10)">updated</text><text xml:space="preserve" x="83" y="298" clip-path="url(#clipPath2)" transform="translate(10 10)">DATETIME</text></g><path fill="#FFC" stroke="none" d="M0 0h169v153H0z" clip-path="url(#clipPath2)" transform="translate(10 10)"/><g fill="gray" stroke="gray" stroke-linecap="butt" stroke-miterlimit="1.4"><path fill="none" d="M0 0h169v153H0z" clip-path="url(#clipPath2)" transform="translate(10 10)"/><text xml:space="preserve" x="71" y="18" fill="#000" stroke="none" clip-path="url(#clipPath2)" font-family="'JetBrains Mono Medium'" transform="translate(10 10)">Sess</text><path fill="none" stroke-linecap="square" stroke-miterlimit="10" d="M1 25h167" clip-path="url(#clipPath2)" transform="translate(10 10)"/></g><use xlink:href="#a" stroke-linecap="round" stroke-linejoin="round" stroke-miterlimit="4" stroke-width="2" clip-path="url(#clipPath4)" image-rendering="optimizeQuality" transform="matrix(.7 0 0 .7 14 39)"/><text xml:space="preserve" x="26" y="43" stroke="none" stroke-linecap="butt" stroke-miterlimit="1.4" clip-path="url(#clipPath2)" font-family="'JetBrains Mono Medium'" font-size="11" font-weight="bold" transform="translate(10 10)">sid</text><g stroke="none" stroke-linecap="butt" stroke-miterlimit="1.4" font-family="'JetBrains Mono Medium'" font-size="11"><text xml:space="preserve" x="83" y="43" clip-path="url(#clipPath2)" transform="translate(10 10)">INTEGER</text><text xml:space="preserve" x="26" y="64" clip-path="url(#clipPath2)" font-weight="bold" transform="translate(10 10)">uid</text><text xml:space="preserve" x="83" y="64" clip-path="url(#clipPath2)" transform="translate(10 10)">INTEGER</text></g><use xlink:href="#b" stroke-linecap="round" stroke-linejoin="round" stroke-miterlimit="4" stroke-width="2" clip-path="url(#clipPath9)" image-rendering="optimizeQuality" transform="matrix(.7 0 0 .7 157 59)"/><text xml:space="preserve" x="26" y="84" stroke="none" stroke-linecap="butt" stroke-miterlimit="1.4" clip-path="url(#clipPath2)" font-family="'JetBrains Mono Medium'" font-size="11" font-weight="bold" transform="translate(10 10)">hash</text><g stroke="none" stroke-linecap="butt" stroke-miterlimit="1.4" font-family="'JetBrains Mono Medium'" font-size="11"><text xml:space="preserve" x="83" y="84" clip-path="url(#clipPath2)" transform="translate(10 10)">BLOB</text><text xml:space="preserve" x="26" y="105" clip-path="url(#clipPath2)" font-weight="bold" transform="translate(10 10)">salt</text><text xml:space="preserve" x="83" y="105" clip-path="url(#clipPath2)" transform="translate(10 10)">BLOB</text><text xml:space="preserve" x="26" y="125" clip-path="url(#clipPath2)" font-weight="bold" transform="translate(10 10)">created</text><text xml:space="preserve" x="83" y="125" clip-path="url(#clipPath2)" transform="translate(10 10)">DATETIME</text><text xml:space="preserve" x="26" y="146" clip-path="url(#clipPath2)" font-weight="bold" transform="translate(10 10)">updated</text><text xml:space="preserve" x="83" y="146" clip-path="url(#clipPath2)" transform="translate(10 10)">DATETIME</text></g><path fill="none" stroke="gray" stroke-linecap="butt" stroke-miterlimit="1.4" d="M169 211h25v-76h27" clip-path="url(#clipPath2)" transform="translate(10 10)"/><g fill="gray" stroke="gray" stroke-linecap="butt" stroke-miterlimit="1.4" transform="translate(10 10)"><use xlink:href="#c" clip-path="url(#clipPath2)"/><path fill="none" d="M169 59h35v76h17" clip-path="url(#clipPath2)"/><use xlink:href="#c" clip-path="url(#clipPath2)"/></g></svg>