<?xml version="1.0" encoding="UTF-8"?><svg xmlns="http://www.w3.org/2000/svg" xmlns:xlink="http://www.w3.org/1999/xlink" fill-opacity="1" color-rendering="auto" color-interpolation="auto" text-rendering="auto" stroke="black" stroke-linecap="square" width="382" stroke-miterlimit="10" shape-rendering="auto" stroke-opacity="1" fill="black" stroke-dasharray="none" font-weight="normal" stroke-width="1" height="321" font-family="'Dialog'" font-style="normal" stroke-linejoin="miter" font-size="12px" stroke-dashoffset="0" image-rendering="auto">
  <!--Generated by ySVG 2.5-->
  <defs id="genericDefs"/>
  <g>
    <defs id="defs1">
      <clipPath clipPathUnits="userSpaceOnUse" id="clipPath1">
        <path d="M0 0 L382 0 L382 321 L0 321 L0 0 Z"/>
      </clipPath>
      <clipPath clipPathUnits="userSpaceOnUse" id="clipPath2">
        <path d="M-15 -23 L367 -23 L367 298 L-15 298 L-15 -23 Z"/>
      </clipPath>
      <clipPath clipPathUnits="userSpaceOnUse" id="clipPath3">
        <path d="M-15.5 -23.9799 L366.5 -23.9799 L366.5 297.0201 L-15.5 297.0201 L-15.5 -23.9799 Z"/>
      </clipPath>
      <clipPath clipPathUnits="userSpaceOnUse" id="clipPath4">
        <path d="M0 -0 L0 24 L24 24 L24 -0 Z"/>
      </clipPath>
      <clipPath clipPathUnits="userSpaceOnUse" id="clipPath5">
        <path d="M-15.5 -23.2612 L366.5 -23.2612 L366.5 297.7388 L-15.5 297.7388 L-15.5 -23.2612 Z"/>
      </clipPath>
      <clipPath clipPathUnits="userSpaceOnUse" id="clipPath6">
        <path d="M-15 -23.9799 L367 -23.9799 L367 297.0201 L-15 297.0201 L-15 -23.9799 Z"/>
      </clipPath>
      <clipPath clipPathUnits="userSpaceOnUse" id="clipPath7">
        <path d="M0 0 L0 24 L24 24 L24 0 Z"/>
      </clipPath>
      <clipPath clipPathUnits="userSpaceOnUse" id="clipPath8">
        <path d="M-15 -23.9174 L367 -23.9174 L367 297.0826 L-15 297.0826 L-15 -23.9174 Z"/>
      </clipPath>
    </defs>
    <g fill="white" stroke="white">
      <path d="M11.9219 310 L11.9219 301.4062 L15.1719 301.4062 Q16.0156 301.4062 16.4688 301.4844 Q17.1094 301.5938 17.5312 301.8906 Q17.9688 302.1875 18.2188 302.7188 Q18.4844 303.25 18.4844 303.8906 Q18.4844 304.9844 17.7812 305.75 Q17.0938 306.5 15.2656 306.5 L13.0625 306.5 L13.0625 310 L11.9219 310 ZM13.0625 305.5 L15.2812 305.5 Q16.3906 305.5 16.8438 305.0938 Q17.3125 304.6719 17.3125 303.9219 Q17.3125 303.3906 17.0312 303.0156 Q16.7656 302.625 16.3281 302.5 Q16.0312 302.4219 15.2656 302.4219 L13.0625 302.4219 L13.0625 305.5 ZM19.4102 306.8906 Q19.4102 305.1562 20.3633 304.3281 Q21.1602 303.6406 22.3164 303.6406 Q23.5977 303.6406 24.4102 304.4844 Q25.2383 305.3125 25.2383 306.7969 Q25.2383 308 24.8789 308.6875 Q24.5195 309.375 23.8164 309.7656 Q23.1289 310.1406 22.3164 310.1406 Q21.0195 310.1406 20.207 309.3125 Q19.4102 308.4688 19.4102 306.8906 ZM20.4883 306.8906 Q20.4883 308.0781 21.0039 308.6719 Q21.5352 309.2656 22.3164 309.2656 Q23.1133 309.2656 23.6289 308.6719 Q24.1445 308.0781 24.1445 306.8594 Q24.1445 305.7031 23.6133 305.1094 Q23.0977 304.5156 22.3164 304.5156 Q21.5352 304.5156 21.0039 305.1094 Q20.4883 305.6875 20.4883 306.8906 ZM27.6152 310 L25.709 303.7812 L26.8027 303.7812 L27.7871 307.375 L28.1621 308.7031 Q28.1934 308.6094 28.4902 307.4219 L29.4746 303.7812 L30.5527 303.7812 L31.4902 307.3906 L31.8027 308.5781 L32.1621 307.375 L33.2246 303.7812 L34.2559 303.7812 L32.3027 310 L31.209 310 L30.2246 306.2656 L29.9746 305.2188 L28.7246 310 L27.6152 310 ZM39.3906 308 L40.4844 308.125 Q40.2344 309.0781 39.5312 309.6094 Q38.8281 310.1406 37.75 310.1406 Q36.3906 310.1406 35.5781 309.2969 Q34.7812 308.4531 34.7812 306.9375 Q34.7812 305.375 35.5938 304.5156 Q36.4062 303.6406 37.6875 303.6406 Q38.9375 303.6406 39.7188 304.4844 Q40.5156 305.3281 40.5156 306.875 Q40.5156 306.9688 40.5156 307.1562 L35.875 307.1562 Q35.9375 308.1875 36.4531 308.7344 Q36.9688 309.2656 37.75 309.2656 Q38.3281 309.2656 38.7344 308.9688 Q39.1562 308.6562 39.3906 308 ZM35.9375 306.2969 L39.4062 306.2969 Q39.3438 305.5 39.0156 305.1094 Q38.5 304.5 37.7031 304.5 Q36.9688 304.5 36.4688 304.9844 Q35.9844 305.4688 35.9375 306.2969 ZM41.7988 310 L41.7988 303.7812 L42.752 303.7812 L42.752 304.7188 Q43.1113 304.0625 43.4082 303.8594 Q43.7207 303.6406 44.0957 303.6406 Q44.627 303.6406 45.1738 303.9688 L44.8145 304.9531 Q44.4238 304.7188 44.0488 304.7188 Q43.6895 304.7188 43.4082 304.9375 Q43.1426 305.1406 43.0332 305.5156 Q42.8457 306.0781 42.8457 306.7344 L42.8457 310 L41.7988 310 ZM50.0605 308 L51.1543 308.125 Q50.9043 309.0781 50.2012 309.6094 Q49.498 310.1406 48.4199 310.1406 Q47.0605 310.1406 46.248 309.2969 Q45.4512 308.4531 45.4512 306.9375 Q45.4512 305.375 46.2637 304.5156 Q47.0762 303.6406 48.3574 303.6406 Q49.6074 303.6406 50.3887 304.4844 Q51.1855 305.3281 51.1855 306.875 Q51.1855 306.9688 51.1855 307.1562 L46.5449 307.1562 Q46.6074 308.1875 47.123 308.7344 Q47.6387 309.2656 48.4199 309.2656 Q48.998 309.2656 49.4043 308.9688 Q49.8262 308.6562 50.0605 308 ZM46.6074 306.2969 L50.0762 306.2969 Q50.0137 305.5 49.6855 305.1094 Q49.1699 304.5 48.373 304.5 Q47.6387 304.5 47.1387 304.9844 Q46.6543 305.4688 46.6074 306.2969 ZM56.5156 310 L56.5156 309.2188 Q55.9219 310.1406 54.7812 310.1406 Q54.0312 310.1406 53.4062 309.7344 Q52.7812 309.3125 52.4375 308.5781 Q52.0938 307.8438 52.0938 306.8906 Q52.0938 305.9688 52.4062 305.2031 Q52.7188 304.4375 53.3438 304.0469 Q53.9688 303.6406 54.7344 303.6406 Q55.2969 303.6406 55.7344 303.875 Q56.1719 304.1094 56.4531 304.4844 L56.4531 301.4062 L57.5 301.4062 L57.5 310 L56.5156 310 ZM53.1875 306.8906 Q53.1875 308.0938 53.6875 308.6875 Q54.1875 309.2656 54.875 309.2656 Q55.5625 309.2656 56.0469 308.7031 Q56.5312 308.1406 56.5312 306.9844 Q56.5312 305.7031 56.0312 305.1094 Q55.5469 304.5156 54.8281 304.5156 Q54.125 304.5156 53.6562 305.0938 Q53.1875 305.6562 53.1875 306.8906 ZM63.4609 310 L62.4766 310 L62.4766 301.4062 L63.5391 301.4062 L63.5391 304.4688 Q64.2109 303.6406 65.2422 303.6406 Q65.8203 303.6406 66.3203 303.875 Q66.8359 304.0938 67.1641 304.5156 Q67.5078 304.9375 67.6953 305.5312 Q67.8828 306.125 67.8828 306.7969 Q67.8828 308.3906 67.0859 309.2656 Q66.2891 310.1406 65.1953 310.1406 Q64.0859 310.1406 63.4609 309.2188 L63.4609 310 ZM63.4453 306.8438 Q63.4453 307.9531 63.7578 308.4531 Q64.2578 309.2656 65.1016 309.2656 Q65.7891 309.2656 66.2891 308.6719 Q66.8047 308.0781 66.8047 306.875 Q66.8047 305.6562 66.3203 305.0781 Q65.8359 304.5 65.1484 304.5 Q64.4609 304.5 63.9453 305.1094 Q63.4453 305.7031 63.4453 306.8438 ZM69.1191 312.3906 L68.9941 311.4062 Q69.3379 311.5 69.6035 311.5 Q69.9473 311.5 70.1504 311.375 Q70.3691 311.2656 70.5098 311.0625 Q70.6035 310.8906 70.8379 310.2656 Q70.8535 310.1875 70.9316 310.0156 L68.5566 303.7812 L69.6973 303.7812 L70.9941 307.375 Q71.2441 308.0625 71.4473 308.8281 Q71.6348 308.0938 71.8848 307.4062 L73.2129 303.7812 L74.2598 303.7812 L71.9004 310.1094 Q71.5098 311.125 71.3066 311.5156 Q71.0254 312.0469 70.6504 312.2812 Q70.291 312.5312 69.791 312.5312 Q69.4941 312.5312 69.1191 312.3906 ZM78.4531 312.3906 L78.3281 311.4062 Q78.6719 311.5 78.9375 311.5 Q79.2812 311.5 79.4844 311.375 Q79.7031 311.2656 79.8438 311.0625 Q79.9375 310.8906 80.1719 310.2656 Q80.1875 310.1875 80.2656 310.0156 L77.8906 303.7812 L79.0312 303.7812 L80.3281 307.375 Q80.5781 308.0625 80.7812 308.8281 Q80.9688 308.0938 81.2188 307.4062 L82.5469 303.7812 L83.5938 303.7812 L81.2344 310.1094 Q80.8438 311.125 80.6406 311.5156 Q80.3594 312.0469 79.9844 312.2812 Q79.625 312.5312 79.125 312.5312 Q78.8281 312.5312 78.4531 312.3906 ZM84.6875 310 L84.6875 301.4062 L90.4844 301.4062 L90.4844 302.4219 L85.8281 302.4219 L85.8281 305.0781 L89.8594 305.0781 L89.8594 306.0938 L85.8281 306.0938 L85.8281 310 L84.6875 310 ZM91.8301 302.625 L91.8301 301.4062 L92.8926 301.4062 L92.8926 302.625 L91.8301 302.625 ZM91.8301 310 L91.8301 303.7812 L92.8926 303.7812 L92.8926 310 L91.8301 310 ZM94.4648 310 L94.4648 301.4062 L95.5273 301.4062 L95.5273 310 L94.4648 310 ZM101.4121 308 L102.5059 308.125 Q102.2559 309.0781 101.5527 309.6094 Q100.8496 310.1406 99.7715 310.1406 Q98.4121 310.1406 97.5996 309.2969 Q96.8027 308.4531 96.8027 306.9375 Q96.8027 305.375 97.6152 304.5156 Q98.4277 303.6406 99.709 303.6406 Q100.959 303.6406 101.7402 304.4844 Q102.5371 305.3281 102.5371 306.875 Q102.5371 306.9688 102.5371 307.1562 L97.8965 307.1562 Q97.959 308.1875 98.4746 308.7344 Q98.9902 309.2656 99.7715 309.2656 Q100.3496 309.2656 100.7559 308.9688 Q101.1777 308.6562 101.4121 308 ZM97.959 306.2969 L101.4277 306.2969 Q101.3652 305.5 101.0371 305.1094 Q100.5215 304.5 99.7246 304.5 Q98.9902 304.5 98.4902 304.9844 Q98.0059 305.4688 97.959 306.2969 ZM103.4141 308.1406 L104.4453 307.9844 Q104.5391 308.6094 104.9297 308.9375 Q105.3359 309.2656 106.0703 309.2656 Q106.7891 309.2656 107.1328 308.9844 Q107.4922 308.6875 107.4922 308.2812 Q107.4922 307.9219 107.1797 307.7188 Q106.9609 307.5781 106.1016 307.3594 Q104.9453 307.0625 104.4922 306.8594 Q104.0547 306.6406 103.8203 306.2656 Q103.5859 305.8906 103.5859 305.4219 Q103.5859 305.0156 103.7734 304.6562 Q103.9609 304.2969 104.2891 304.0625 Q104.5391 303.8906 104.9609 303.7656 Q105.3828 303.6406 105.8828 303.6406 Q106.6016 303.6406 107.1484 303.8594 Q107.7109 304.0625 107.9766 304.4219 Q108.2422 304.7812 108.3359 305.375 L107.3047 305.5156 Q107.2422 305.0469 106.8984 304.7812 Q106.5703 304.5 105.9453 304.5 Q105.2266 304.5 104.9141 304.75 Q104.6016 304.9844 104.6016 305.3125 Q104.6016 305.5156 104.7266 305.6719 Q104.8672 305.8438 105.1328 305.9531 Q105.2891 306.0156 106.0703 306.2188 Q107.1953 306.5312 107.6328 306.7188 Q108.0703 306.9062 108.3203 307.2656 Q108.5703 307.625 108.5703 308.1719 Q108.5703 308.7031 108.2578 309.1719 Q107.9609 309.625 107.3828 309.8906 Q106.8047 310.1406 106.0703 310.1406 Q104.8516 310.1406 104.2109 309.6406 Q103.5859 309.125 103.4141 308.1406 Z" stroke="none" clip-path="url(#clipPath1)"/>
    </g>
    <g fill="silver" stroke="silver">
      <path d="M10.9219 309 L10.9219 300.4062 L14.1719 300.4062 Q15.0156 300.4062 15.4688 300.4844 Q16.1094 300.5938 16.5312 300.8906 Q16.9688 301.1875 17.2188 301.7188 Q17.4844 302.25 17.4844 302.8906 Q17.4844 303.9844 16.7812 304.75 Q16.0938 305.5 14.2656 305.5 L12.0625 305.5 L12.0625 309 L10.9219 309 ZM12.0625 304.5 L14.2812 304.5 Q15.3906 304.5 15.8438 304.0938 Q16.3125 303.6719 16.3125 302.9219 Q16.3125 302.3906 16.0312 302.0156 Q15.7656 301.625 15.3281 301.5 Q15.0312 301.4219 14.2656 301.4219 L12.0625 301.4219 L12.0625 304.5 ZM18.4102 305.8906 Q18.4102 304.1562 19.3633 303.3281 Q20.1602 302.6406 21.3164 302.6406 Q22.5977 302.6406 23.4102 303.4844 Q24.2383 304.3125 24.2383 305.7969 Q24.2383 307 23.8789 307.6875 Q23.5195 308.375 22.8164 308.7656 Q22.1289 309.1406 21.3164 309.1406 Q20.0195 309.1406 19.207 308.3125 Q18.4102 307.4688 18.4102 305.8906 ZM19.4883 305.8906 Q19.4883 307.0781 20.0039 307.6719 Q20.5352 308.2656 21.3164 308.2656 Q22.1133 308.2656 22.6289 307.6719 Q23.1445 307.0781 23.1445 305.8594 Q23.1445 304.7031 22.6133 304.1094 Q22.0977 303.5156 21.3164 303.5156 Q20.5352 303.5156 20.0039 304.1094 Q19.4883 304.6875 19.4883 305.8906 ZM26.6152 309 L24.709 302.7812 L25.8027 302.7812 L26.7871 306.375 L27.1621 307.7031 Q27.1934 307.6094 27.4902 306.4219 L28.4746 302.7812 L29.5527 302.7812 L30.4902 306.3906 L30.8027 307.5781 L31.1621 306.375 L32.2246 302.7812 L33.2559 302.7812 L31.3027 309 L30.209 309 L29.2246 305.2656 L28.9746 304.2188 L27.7246 309 L26.6152 309 ZM38.3906 307 L39.4844 307.125 Q39.2344 308.0781 38.5312 308.6094 Q37.8281 309.1406 36.75 309.1406 Q35.3906 309.1406 34.5781 308.2969 Q33.7812 307.4531 33.7812 305.9375 Q33.7812 304.375 34.5938 303.5156 Q35.4062 302.6406 36.6875 302.6406 Q37.9375 302.6406 38.7188 303.4844 Q39.5156 304.3281 39.5156 305.875 Q39.5156 305.9688 39.5156 306.1562 L34.875 306.1562 Q34.9375 307.1875 35.4531 307.7344 Q35.9688 308.2656 36.75 308.2656 Q37.3281 308.2656 37.7344 307.9688 Q38.1562 307.6562 38.3906 307 ZM34.9375 305.2969 L38.4062 305.2969 Q38.3438 304.5 38.0156 304.1094 Q37.5 303.5 36.7031 303.5 Q35.9688 303.5 35.4688 303.9844 Q34.9844 304.4688 34.9375 305.2969 ZM40.7988 309 L40.7988 302.7812 L41.752 302.7812 L41.752 303.7188 Q42.1113 303.0625 42.4082 302.8594 Q42.7207 302.6406 43.0957 302.6406 Q43.627 302.6406 44.1738 302.9688 L43.8145 303.9531 Q43.4238 303.7188 43.0488 303.7188 Q42.6895 303.7188 42.4082 303.9375 Q42.1426 304.1406 42.0332 304.5156 Q41.8457 305.0781 41.8457 305.7344 L41.8457 309 L40.7988 309 ZM49.0605 307 L50.1543 307.125 Q49.9043 308.0781 49.2012 308.6094 Q48.498 309.1406 47.4199 309.1406 Q46.0605 309.1406 45.248 308.2969 Q44.4512 307.4531 44.4512 305.9375 Q44.4512 304.375 45.2637 303.5156 Q46.0762 302.6406 47.3574 302.6406 Q48.6074 302.6406 49.3887 303.4844 Q50.1855 304.3281 50.1855 305.875 Q50.1855 305.9688 50.1855 306.1562 L45.5449 306.1562 Q45.6074 307.1875 46.123 307.7344 Q46.6387 308.2656 47.4199 308.2656 Q47.998 308.2656 48.4043 307.9688 Q48.8262 307.6562 49.0605 307 ZM45.6074 305.2969 L49.0762 305.2969 Q49.0137 304.5 48.6855 304.1094 Q48.1699 303.5 47.373 303.5 Q46.6387 303.5 46.1387 303.9844 Q45.6543 304.4688 45.6074 305.2969 ZM55.5156 309 L55.5156 308.2188 Q54.9219 309.1406 53.7812 309.1406 Q53.0312 309.1406 52.4062 308.7344 Q51.7812 308.3125 51.4375 307.5781 Q51.0938 306.8438 51.0938 305.8906 Q51.0938 304.9688 51.4062 304.2031 Q51.7188 303.4375 52.3438 303.0469 Q52.9688 302.6406 53.7344 302.6406 Q54.2969 302.6406 54.7344 302.875 Q55.1719 303.1094 55.4531 303.4844 L55.4531 300.4062 L56.5 300.4062 L56.5 309 L55.5156 309 ZM52.1875 305.8906 Q52.1875 307.0938 52.6875 307.6875 Q53.1875 308.2656 53.875 308.2656 Q54.5625 308.2656 55.0469 307.7031 Q55.5312 307.1406 55.5312 305.9844 Q55.5312 304.7031 55.0312 304.1094 Q54.5469 303.5156 53.8281 303.5156 Q53.125 303.5156 52.6562 304.0938 Q52.1875 304.6562 52.1875 305.8906 ZM62.4609 309 L61.4766 309 L61.4766 300.4062 L62.5391 300.4062 L62.5391 303.4688 Q63.2109 302.6406 64.2422 302.6406 Q64.8203 302.6406 65.3203 302.875 Q65.8359 303.0938 66.1641 303.5156 Q66.5078 303.9375 66.6953 304.5312 Q66.8828 305.125 66.8828 305.7969 Q66.8828 307.3906 66.0859 308.2656 Q65.2891 309.1406 64.1953 309.1406 Q63.0859 309.1406 62.4609 308.2188 L62.4609 309 ZM62.4453 305.8438 Q62.4453 306.9531 62.7578 307.4531 Q63.2578 308.2656 64.1016 308.2656 Q64.7891 308.2656 65.2891 307.6719 Q65.8047 307.0781 65.8047 305.875 Q65.8047 304.6562 65.3203 304.0781 Q64.8359 303.5 64.1484 303.5 Q63.4609 303.5 62.9453 304.1094 Q62.4453 304.7031 62.4453 305.8438 ZM68.1191 311.3906 L67.9941 310.4062 Q68.3379 310.5 68.6035 310.5 Q68.9473 310.5 69.1504 310.375 Q69.3691 310.2656 69.5098 310.0625 Q69.6035 309.8906 69.8379 309.2656 Q69.8535 309.1875 69.9316 309.0156 L67.5566 302.7812 L68.6973 302.7812 L69.9941 306.375 Q70.2441 307.0625 70.4473 307.8281 Q70.6348 307.0938 70.8848 306.4062 L72.2129 302.7812 L73.2598 302.7812 L70.9004 309.1094 Q70.5098 310.125 70.3066 310.5156 Q70.0254 311.0469 69.6504 311.2812 Q69.291 311.5312 68.791 311.5312 Q68.4941 311.5312 68.1191 311.3906 ZM77.4531 311.3906 L77.3281 310.4062 Q77.6719 310.5 77.9375 310.5 Q78.2812 310.5 78.4844 310.375 Q78.7031 310.2656 78.8438 310.0625 Q78.9375 309.8906 79.1719 309.2656 Q79.1875 309.1875 79.2656 309.0156 L76.8906 302.7812 L78.0312 302.7812 L79.3281 306.375 Q79.5781 307.0625 79.7812 307.8281 Q79.9688 307.0938 80.2188 306.4062 L81.5469 302.7812 L82.5938 302.7812 L80.2344 309.1094 Q79.8438 310.125 79.6406 310.5156 Q79.3594 311.0469 78.9844 311.2812 Q78.625 311.5312 78.125 311.5312 Q77.8281 311.5312 77.4531 311.3906 ZM83.6875 309 L83.6875 300.4062 L89.4844 300.4062 L89.4844 301.4219 L84.8281 301.4219 L84.8281 304.0781 L88.8594 304.0781 L88.8594 305.0938 L84.8281 305.0938 L84.8281 309 L83.6875 309 ZM90.8301 301.625 L90.8301 300.4062 L91.8926 300.4062 L91.8926 301.625 L90.8301 301.625 ZM90.8301 309 L90.8301 302.7812 L91.8926 302.7812 L91.8926 309 L90.8301 309 ZM93.4648 309 L93.4648 300.4062 L94.5273 300.4062 L94.5273 309 L93.4648 309 ZM100.4121 307 L101.5059 307.125 Q101.2559 308.0781 100.5527 308.6094 Q99.8496 309.1406 98.7715 309.1406 Q97.4121 309.1406 96.5996 308.2969 Q95.8027 307.4531 95.8027 305.9375 Q95.8027 304.375 96.6152 303.5156 Q97.4277 302.6406 98.709 302.6406 Q99.959 302.6406 100.7402 303.4844 Q101.5371 304.3281 101.5371 305.875 Q101.5371 305.9688 101.5371 306.1562 L96.8965 306.1562 Q96.959 307.1875 97.4746 307.7344 Q97.9902 308.2656 98.7715 308.2656 Q99.3496 308.2656 99.7559 307.9688 Q100.1777 307.6562 100.4121 307 ZM96.959 305.2969 L100.4277 305.2969 Q100.3652 304.5 100.0371 304.1094 Q99.5215 303.5 98.7246 303.5 Q97.9902 303.5 97.4902 303.9844 Q97.0059 304.4688 96.959 305.2969 ZM102.4141 307.1406 L103.4453 306.9844 Q103.5391 307.6094 103.9297 307.9375 Q104.3359 308.2656 105.0703 308.2656 Q105.7891 308.2656 106.1328 307.9844 Q106.4922 307.6875 106.4922 307.2812 Q106.4922 306.9219 106.1797 306.7188 Q105.9609 306.5781 105.1016 306.3594 Q103.9453 306.0625 103.4922 305.8594 Q103.0547 305.6406 102.8203 305.2656 Q102.5859 304.8906 102.5859 304.4219 Q102.5859 304.0156 102.7734 303.6562 Q102.9609 303.2969 103.2891 303.0625 Q103.5391 302.8906 103.9609 302.7656 Q104.3828 302.6406 104.8828 302.6406 Q105.6016 302.6406 106.1484 302.8594 Q106.7109 303.0625 106.9766 303.4219 Q107.2422 303.7812 107.3359 304.375 L106.3047 304.5156 Q106.2422 304.0469 105.8984 303.7812 Q105.5703 303.5 104.9453 303.5 Q104.2266 303.5 103.9141 303.75 Q103.6016 303.9844 103.6016 304.3125 Q103.6016 304.5156 103.7266 304.6719 Q103.8672 304.8438 104.1328 304.9531 Q104.2891 305.0156 105.0703 305.2188 Q106.1953 305.5312 106.6328 305.7188 Q107.0703 305.9062 107.3203 306.2656 Q107.5703 306.625 107.5703 307.1719 Q107.5703 307.7031 107.2578 308.1719 Q106.9609 308.625 106.3828 308.8906 Q105.8047 309.1406 105.0703 309.1406 Q103.8516 309.1406 103.2109 308.6406 Q102.5859 308.125 102.4141 307.1406 Z" stroke="none" clip-path="url(#clipPath1)"/>
    </g>
    <g fill="rgb(255,255,204)" transform="matrix(1,0,0,1,15,23)" stroke="rgb(255,255,204)">
      <rect x="1.5" width="147" height="125.0849" y="-12.5424" clip-path="url(#clipPath2)" stroke="none"/>
    </g>
    <g fill="gray" stroke-miterlimit="1.45" transform="matrix(1,0,0,1,15,23)" stroke-linecap="butt" stroke="gray">
      <rect fill="none" x="1.5" width="147" height="125.0849" y="-12.5424" clip-path="url(#clipPath2)"/>
      <text x="62" y="5.0823" clip-path="url(#clipPath2)" fill="black" font-family="'Inter'" stroke="none" xml:space="preserve">User</text>
      <line stroke-linecap="square" clip-path="url(#clipPath2)" fill="none" x1="2" x2="147" y1="11" y2="11" stroke-miterlimit="10"/>
    </g>
    <g stroke-linecap="round" transform="matrix(0.6667,0,0,0.6667,20.5,37.9799)" fill="rgb(110,110,110)" image-rendering="optimizeQuality" stroke-linejoin="round" stroke="rgb(110,110,110)" stroke-width="2" stroke-miterlimit="4">
      <path fill="none" d="M12.4 2.7 C13.3 1.8 14.9 1.8 15.8 2.7 L21.3 8.2 C22.2 9.1 22.2 10.7 21.3 11.6 L17.6 15.3 C16.7 16.2 15.1 16.2 14.2 15.3 L8.7 9.8 C7.8 8.9 7.8 7.3 8.7 6.4 Z" clip-path="url(#clipPath4)"/>
    </g>
    <g stroke-linecap="round" transform="matrix(0.6667,0,0,0.6667,20.5,37.9799)" fill="rgb(110,110,110)" image-rendering="optimizeQuality" stroke-linejoin="round" stroke="rgb(110,110,110)" stroke-width="2" stroke-miterlimit="4">
      <path fill="none" d="M14 7 L17 10" clip-path="url(#clipPath4)"/>
    </g>
    <g stroke-linecap="round" transform="matrix(0.6667,0,0,0.6667,20.5,37.9799)" fill="rgb(110,110,110)" image-rendering="optimizeQuality" stroke-linejoin="round" stroke="rgb(110,110,110)" stroke-width="2" stroke-miterlimit="4">
      <path fill="none" d="M9.4 10.6 L2 18 L2 21 C2 21.6 2.4 22 3 22 L7 22 L7 19 L10 19 L10 16 L12 16 L13.4 14.6" clip-path="url(#clipPath4)"/>
    </g>
    <g stroke-miterlimit="1.45" font-size="11px" font-weight="bold" font-family="'Inter'" transform="matrix(1,0,0,1,15,23)" stroke-linecap="butt">
      <text x="27.5" xml:space="preserve" y="28.6362" clip-path="url(#clipPath2)" stroke="none">uid</text>
    </g>
    <g stroke-miterlimit="1.45" font-size="11px" font-family="'Inter'" transform="matrix(1,0,0,1,15,23)" stroke-linecap="butt">
      <text x="78.5" xml:space="preserve" y="28.6362" clip-path="url(#clipPath2)" stroke="none">INTEGER</text>
      <text x="27.5" xml:space="preserve" y="47.9487" clip-path="url(#clipPath2)" font-weight="bold" stroke="none">email</text>
      <text x="78.5" xml:space="preserve" y="47.9487" clip-path="url(#clipPath2)" stroke="none">TEXT</text>
      <text x="27.5" xml:space="preserve" y="67.2612" clip-path="url(#clipPath2)" font-weight="bold" stroke="none">name</text>
      <text x="78.5" xml:space="preserve" y="67.2612" clip-path="url(#clipPath2)" stroke="none">TEXT</text>
      <text x="27.5" xml:space="preserve" y="86.5737" clip-path="url(#clipPath2)" font-weight="bold" stroke="none">created</text>
      <text x="78.5" xml:space="preserve" y="86.5737" clip-path="url(#clipPath2)" stroke="none">DATETIME</text>
      <text x="27.5" xml:space="preserve" y="105.8862" clip-path="url(#clipPath2)" font-weight="bold" stroke="none">updated</text>
      <text x="78.5" xml:space="preserve" y="105.8862" clip-path="url(#clipPath2)" stroke="none">DATETIME</text>
    </g>
    <g fill="rgb(255,255,204)" transform="matrix(1,0,0,1,15,23)" stroke="rgb(255,255,204)">
      <rect x="193.5" width="163" height="105.7724" y="-2.8862" clip-path="url(#clipPath2)" stroke="none"/>
    </g>
    <g fill="gray" stroke-miterlimit="1.45" transform="matrix(1,0,0,1,15,23)" stroke-linecap="butt" stroke="gray">
      <rect fill="none" x="193.5" width="163" height="105.7724" y="-2.8862" clip-path="url(#clipPath2)"/>
      <text x="247.5" y="14.7385" clip-path="url(#clipPath2)" fill="black" font-family="'Inter'" stroke="none" xml:space="preserve">Password</text>
      <line stroke-linecap="square" clip-path="url(#clipPath2)" fill="none" x1="194" x2="355" y1="21" y2="21" stroke-miterlimit="10"/>
    </g>
    <g stroke-miterlimit="1.45" font-size="11px" font-weight="bold" font-family="'Inter'" transform="matrix(1,0,0,1,15,23)" stroke-linecap="butt">
      <text x="219.5" xml:space="preserve" y="38.2924" clip-path="url(#clipPath2)" stroke="none">hash</text>
      <text x="270.5" xml:space="preserve" y="38.2924" clip-path="url(#clipPath2)" font-weight="normal" stroke="none">BLOB</text>
      <text x="219.5" xml:space="preserve" y="57.6049" clip-path="url(#clipPath2)" stroke="none">salt</text>
      <text x="270.5" xml:space="preserve" y="57.6049" clip-path="url(#clipPath2)" font-weight="normal" stroke="none">BLOB</text>
    </g>
    <g stroke-linecap="round" transform="matrix(0.6667,0,0,0.6667,212.5,86.2612)" fill="rgb(110,110,110)" image-rendering="optimizeQuality" stroke-linejoin="round" stroke="rgb(110,110,110)" stroke-width="2" stroke-miterlimit="4">
      <path fill="none" d="M12.4 2.7 C13.3 1.8 14.9 1.8 15.8 2.7 L21.3 8.2 C22.2 9.1 22.2 10.7 21.3 11.6 L17.6 15.3 C16.7 16.2 15.1 16.2 14.2 15.3 L8.7 9.8 C7.8 8.9 7.8 7.3 8.7 6.4 Z" clip-path="url(#clipPath4)"/>
    </g>
    <g stroke-linecap="round" transform="matrix(0.6667,0,0,0.6667,212.5,86.2612)" fill="rgb(110,110,110)" image-rendering="optimizeQuality" stroke-linejoin="round" stroke="rgb(110,110,110)" stroke-width="2" stroke-miterlimit="4">
      <path fill="none" d="M14 7 L17 10" clip-path="url(#clipPath4)"/>
    </g>
    <g stroke-linecap="round" transform="matrix(0.6667,0,0,0.6667,212.5,86.2612)" fill="rgb(110,110,110)" image-rendering="optimizeQuality" stroke-linejoin="round" stroke="rgb(110,110,110)" stroke-width="2" stroke-miterlimit="4">
      <path fill="none" d="M9.4 10.6 L2 18 L2 21 C2 21.6 2.4 22 3 22 L7 22 L7 19 L10 19 L10 16 L12 16 L13.4 14.6" clip-path="url(#clipPath4)"/>
    </g>
    <g stroke-miterlimit="1.45" font-size="11px" font-weight="bold" font-family="'Inter'" transform="matrix(1,0,0,1,15,23)" stroke-linecap="butt">
      <text x="219.5" xml:space="preserve" y="76.9174" clip-path="url(#clipPath2)" stroke="none">uid</text>
    </g>
    <g stroke-miterlimit="1.45" font-size="11px" font-family="'Inter'" transform="matrix(1,0,0,1,15,23)" stroke-linecap="butt">
      <text x="270.5" xml:space="preserve" y="76.9174" clip-path="url(#clipPath2)" stroke="none">INTEGER</text>
    </g>
    <g stroke-linecap="round" transform="matrix(0.6667,0,0,0.6667,349.5,86.2612)" fill="rgb(110,110,110)" image-rendering="optimizeQuality" stroke-linejoin="round" stroke="rgb(110,110,110)" stroke-width="2" stroke-miterlimit="4">
      <path fill="none" d="M7 7 L17 7 L17 17" clip-path="url(#clipPath4)"/>
    </g>
    <g stroke-linecap="round" transform="matrix(0.6667,0,0,0.6667,349.5,86.2612)" fill="rgb(110,110,110)" image-rendering="optimizeQuality" stroke-linejoin="round" stroke="rgb(110,110,110)" stroke-width="2" stroke-miterlimit="4">
      <path fill="none" d="M7 17 L17 7" clip-path="url(#clipPath4)"/>
    </g>
    <g stroke-miterlimit="1.45" font-size="11px" font-weight="bold" font-family="'Inter'" transform="matrix(1,0,0,1,15,23)" stroke-linecap="butt">
      <text x="219.5" xml:space="preserve" y="96.2299" clip-path="url(#clipPath2)" stroke="none">updated</text>
    </g>
    <g stroke-miterlimit="1.45" font-size="11px" font-family="'Inter'" transform="matrix(1,0,0,1,15,23)" stroke-linecap="butt">
      <text x="270.5" xml:space="preserve" y="96.2299" clip-path="url(#clipPath2)" stroke="none">DATETIME</text>
    </g>
    <g fill="rgb(255,255,204)" transform="matrix(1,0,0,1,15,23)" stroke="rgb(255,255,204)">
      <rect x="-5" width="160" height="125.0849" y="162.4576" clip-path="url(#clipPath2)" stroke="none"/>
    </g>
    <g fill="gray" stroke-miterlimit="1.45" transform="matrix(1,0,0,1,15,23)" stroke-linecap="butt" stroke="gray">
      <rect fill="none" x="-5" width="160" height="125.0849" y="162.4576" clip-path="url(#clipPath2)"/>
      <text x="53" y="180.0823" clip-path="url(#clipPath2)" fill="black" font-family="'Inter'" stroke="none" xml:space="preserve">Session</text>
      <line stroke-linecap="square" clip-path="url(#clipPath2)" fill="none" x1="-4" x2="154" y1="186" y2="186" stroke-miterlimit="10"/>
    </g>
    <g stroke-linecap="round" transform="matrix(0.6667,0,0,0.6667,14,212.9799)" fill="rgb(110,110,110)" image-rendering="optimizeQuality" stroke-linejoin="round" stroke="rgb(110,110,110)" stroke-width="2" stroke-miterlimit="4">
      <path fill="none" d="M12.4 2.7 C13.3 1.8 14.9 1.8 15.8 2.7 L21.3 8.2 C22.2 9.1 22.2 10.7 21.3 11.6 L17.6 15.3 C16.7 16.2 15.1 16.2 14.2 15.3 L8.7 9.8 C7.8 8.9 7.8 7.3 8.7 6.4 Z" clip-path="url(#clipPath7)"/>
    </g>
    <g stroke-linecap="round" transform="matrix(0.6667,0,0,0.6667,14,212.9799)" fill="rgb(110,110,110)" image-rendering="optimizeQuality" stroke-linejoin="round" stroke="rgb(110,110,110)" stroke-width="2" stroke-miterlimit="4">
      <path fill="none" d="M14 7 L17 10" clip-path="url(#clipPath7)"/>
    </g>
    <g stroke-linecap="round" transform="matrix(0.6667,0,0,0.6667,14,212.9799)" fill="rgb(110,110,110)" image-rendering="optimizeQuality" stroke-linejoin="round" stroke="rgb(110,110,110)" stroke-width="2" stroke-miterlimit="4">
      <path fill="none" d="M9.4 10.6 L2 18 L2 21 C2 21.6 2.4 22 3 22 L7 22 L7 19 L10 19 L10 16 L12 16 L13.4 14.6" clip-path="url(#clipPath7)"/>
    </g>
    <g stroke-miterlimit="1.45" font-size="11px" font-weight="bold" font-family="'Inter'" transform="matrix(1,0,0,1,15,23)" stroke-linecap="butt">
      <text x="21" xml:space="preserve" y="203.6362" clip-path="url(#clipPath2)" stroke="none">sid</text>
    </g>
    <g stroke-miterlimit="1.45" font-size="11px" font-family="'Inter'" transform="matrix(1,0,0,1,15,23)" stroke-linecap="butt">
      <text x="69" xml:space="preserve" y="203.6362" clip-path="url(#clipPath2)" stroke="none">INTEGER</text>
      <text x="21" xml:space="preserve" y="222.9487" clip-path="url(#clipPath2)" font-weight="bold" stroke="none">hash</text>
      <text x="69" xml:space="preserve" y="222.9487" clip-path="url(#clipPath2)" stroke="none">BLOB</text>
      <text x="21" xml:space="preserve" y="242.2612" clip-path="url(#clipPath2)" font-weight="bold" stroke="none">salt</text>
      <text x="69" xml:space="preserve" y="242.2612" clip-path="url(#clipPath2)" stroke="none">BLOB</text>
      <text x="21" xml:space="preserve" y="261.5737" clip-path="url(#clipPath2)" font-weight="bold" stroke="none">uid</text>
      <text x="69" xml:space="preserve" y="261.5737" clip-path="url(#clipPath2)" stroke="none">INTEGER</text>
    </g>
    <g stroke-linecap="round" transform="matrix(0.6667,0,0,0.6667,148,270.9174)" fill="rgb(110,110,110)" image-rendering="optimizeQuality" stroke-linejoin="round" stroke="rgb(110,110,110)" stroke-width="2" stroke-miterlimit="4">
      <path fill="none" d="M7 7 L17 7 L17 17" clip-path="url(#clipPath4)"/>
    </g>
    <g stroke-linecap="round" transform="matrix(0.6667,0,0,0.6667,148,270.9174)" fill="rgb(110,110,110)" image-rendering="optimizeQuality" stroke-linejoin="round" stroke="rgb(110,110,110)" stroke-width="2" stroke-miterlimit="4">
      <path fill="none" d="M7 17 L17 7" clip-path="url(#clipPath4)"/>
    </g>
    <g stroke-miterlimit="1.45" font-size="11px" font-weight="bold" font-family="'Inter'" transform="matrix(1,0,0,1,15,23)" stroke-linecap="butt">
      <text x="21" xml:space="preserve" y="280.8862" clip-path="url(#clipPath2)" stroke="none">created</text>
    </g>
    <g stroke-miterlimit="1.45" font-size="11px" font-family="'Inter'" transform="matrix(1,0,0,1,15,23)" stroke-linecap="butt">
      <text x="69" xml:space="preserve" y="280.8862" clip-path="url(#clipPath2)" stroke="none">DATETIME</text>
    </g>
    <g fill="gray" stroke-miterlimit="1.45" transform="matrix(1,0,0,1,15,23)" stroke-linecap="butt" stroke="gray">
      <path fill="none" d="M75 162.4088 L75 120.5911" clip-path="url(#clipPath2)"/>
    </g>
    <g fill="gray" stroke-miterlimit="1.45" transform="matrix(1,0,0,1,15,23)" stroke-linecap="butt" stroke="gray">
      <path d="M75 112.5911 L70 124.5911 L75 121.5911 L80 124.5911 Z" stroke="none" clip-path="url(#clipPath2)"/>
      <path fill="none" d="M193.4561 50 L156.5439 50" clip-path="url(#clipPath2)"/>
      <path d="M148.5439 50 L160.5439 55 L157.5439 50 L160.5439 45 Z" clip-path="url(#clipPath2)" stroke="none"/>
    </g>
  </g>
</svg>
