<?xml version="1.0" encoding="UTF-8"?><svg xmlns="http://www.w3.org/2000/svg" xmlns:xlink="http://www.w3.org/1999/xlink" fill-opacity="1" color-rendering="auto" color-interpolation="auto" text-rendering="auto" stroke="black" stroke-linecap="square" width="382" stroke-miterlimit="10" shape-rendering="auto" stroke-opacity="1" fill="black" stroke-dasharray="none" font-weight="normal" stroke-width="1" height="311" font-family="'Dialog'" font-style="normal" stroke-linejoin="miter" font-size="12px" stroke-dashoffset="0" image-rendering="auto">
  <!--Generated by ySVG 2.5-->
  <defs id="genericDefs"/>
  <g>
    <defs id="defs1">
      <clipPath clipPathUnits="userSpaceOnUse" id="clipPath1">
        <path d="M0 0 L382 0 L382 311 L0 311 L0 0 Z"/>
      </clipPath>
      <clipPath clipPathUnits="userSpaceOnUse" id="clipPath2">
        <path d="M-17 -23 L365 -23 L365 288 L-17 288 L-17 -23 Z"/>
      </clipPath>
      <clipPath clipPathUnits="userSpaceOnUse" id="clipPath3">
        <path d="M-17.5 -23.9799 L364.5 -23.9799 L364.5 287.0201 L-17.5 287.0201 L-17.5 -23.9799 Z"/>
      </clipPath>
      <clipPath clipPathUnits="userSpaceOnUse" id="clipPath4">
        <path d="M0 -0 L0 24 L24 24 L24 -0 Z"/>
      </clipPath>
      <clipPath clipPathUnits="userSpaceOnUse" id="clipPath5">
        <path d="M-16.5 -23.6362 L365.5 -23.6362 L365.5 287.3638 L-16.5 287.3638 L-16.5 -23.6362 Z"/>
      </clipPath>
      <clipPath clipPathUnits="userSpaceOnUse" id="clipPath6">
        <path d="M0 0 L0 24 L24 24 L24 0 Z"/>
      </clipPath>
      <clipPath clipPathUnits="userSpaceOnUse" id="clipPath7">
        <path d="M-17.5 -23.6362 L364.5 -23.6362 L364.5 287.3638 L-17.5 287.3638 L-17.5 -23.6362 Z"/>
      </clipPath>
      <clipPath clipPathUnits="userSpaceOnUse" id="clipPath8">
        <path d="M-17 -23.9799 L365 -23.9799 L365 287.0201 L-17 287.0201 L-17 -23.9799 Z"/>
      </clipPath>
      <clipPath clipPathUnits="userSpaceOnUse" id="clipPath9">
        <path d="M-17 -23.2924 L365 -23.2924 L365 287.7076 L-17 287.7076 L-17 -23.2924 Z"/>
      </clipPath>
    </defs>
    <g fill="white" stroke="white">
      <path d="M11.9219 300 L11.9219 291.4062 L15.1719 291.4062 Q16.0156 291.4062 16.4688 291.4844 Q17.1094 291.5938 17.5312 291.8906 Q17.9688 292.1875 18.2188 292.7188 Q18.4844 293.25 18.4844 293.8906 Q18.4844 294.9844 17.7812 295.75 Q17.0938 296.5 15.2656 296.5 L13.0625 296.5 L13.0625 300 L11.9219 300 ZM13.0625 295.5 L15.2812 295.5 Q16.3906 295.5 16.8438 295.0938 Q17.3125 294.6719 17.3125 293.9219 Q17.3125 293.3906 17.0312 293.0156 Q16.7656 292.625 16.3281 292.5 Q16.0312 292.4219 15.2656 292.4219 L13.0625 292.4219 L13.0625 295.5 ZM19.4102 296.8906 Q19.4102 295.1562 20.3633 294.3281 Q21.1602 293.6406 22.3164 293.6406 Q23.5977 293.6406 24.4102 294.4844 Q25.2383 295.3125 25.2383 296.7969 Q25.2383 298 24.8789 298.6875 Q24.5195 299.375 23.8164 299.7656 Q23.1289 300.1406 22.3164 300.1406 Q21.0195 300.1406 20.207 299.3125 Q19.4102 298.4688 19.4102 296.8906 ZM20.4883 296.8906 Q20.4883 298.0781 21.0039 298.6719 Q21.5352 299.2656 22.3164 299.2656 Q23.1133 299.2656 23.6289 298.6719 Q24.1445 298.0781 24.1445 296.8594 Q24.1445 295.7031 23.6133 295.1094 Q23.0977 294.5156 22.3164 294.5156 Q21.5352 294.5156 21.0039 295.1094 Q20.4883 295.6875 20.4883 296.8906 ZM27.6152 300 L25.709 293.7812 L26.8027 293.7812 L27.7871 297.375 L28.1621 298.7031 Q28.1934 298.6094 28.4902 297.4219 L29.4746 293.7812 L30.5527 293.7812 L31.4902 297.3906 L31.8027 298.5781 L32.1621 297.375 L33.2246 293.7812 L34.2559 293.7812 L32.3027 300 L31.209 300 L30.2246 296.2656 L29.9746 295.2188 L28.7246 300 L27.6152 300 ZM39.3906 298 L40.4844 298.125 Q40.2344 299.0781 39.5312 299.6094 Q38.8281 300.1406 37.75 300.1406 Q36.3906 300.1406 35.5781 299.2969 Q34.7812 298.4531 34.7812 296.9375 Q34.7812 295.375 35.5938 294.5156 Q36.4062 293.6406 37.6875 293.6406 Q38.9375 293.6406 39.7188 294.4844 Q40.5156 295.3281 40.5156 296.875 Q40.5156 296.9688 40.5156 297.1562 L35.875 297.1562 Q35.9375 298.1875 36.4531 298.7344 Q36.9688 299.2656 37.75 299.2656 Q38.3281 299.2656 38.7344 298.9688 Q39.1562 298.6562 39.3906 298 ZM35.9375 296.2969 L39.4062 296.2969 Q39.3438 295.5 39.0156 295.1094 Q38.5 294.5 37.7031 294.5 Q36.9688 294.5 36.4688 294.9844 Q35.9844 295.4688 35.9375 296.2969 ZM41.7988 300 L41.7988 293.7812 L42.752 293.7812 L42.752 294.7188 Q43.1113 294.0625 43.4082 293.8594 Q43.7207 293.6406 44.0957 293.6406 Q44.627 293.6406 45.1738 293.9688 L44.8145 294.9531 Q44.4238 294.7188 44.0488 294.7188 Q43.6895 294.7188 43.4082 294.9375 Q43.1426 295.1406 43.0332 295.5156 Q42.8457 296.0781 42.8457 296.7344 L42.8457 300 L41.7988 300 ZM50.0605 298 L51.1543 298.125 Q50.9043 299.0781 50.2012 299.6094 Q49.498 300.1406 48.4199 300.1406 Q47.0605 300.1406 46.248 299.2969 Q45.4512 298.4531 45.4512 296.9375 Q45.4512 295.375 46.2637 294.5156 Q47.0762 293.6406 48.3574 293.6406 Q49.6074 293.6406 50.3887 294.4844 Q51.1855 295.3281 51.1855 296.875 Q51.1855 296.9688 51.1855 297.1562 L46.5449 297.1562 Q46.6074 298.1875 47.123 298.7344 Q47.6387 299.2656 48.4199 299.2656 Q48.998 299.2656 49.4043 298.9688 Q49.8262 298.6562 50.0605 298 ZM46.6074 296.2969 L50.0762 296.2969 Q50.0137 295.5 49.6855 295.1094 Q49.1699 294.5 48.373 294.5 Q47.6387 294.5 47.1387 294.9844 Q46.6543 295.4688 46.6074 296.2969 ZM56.5156 300 L56.5156 299.2188 Q55.9219 300.1406 54.7812 300.1406 Q54.0312 300.1406 53.4062 299.7344 Q52.7812 299.3125 52.4375 298.5781 Q52.0938 297.8438 52.0938 296.8906 Q52.0938 295.9688 52.4062 295.2031 Q52.7188 294.4375 53.3438 294.0469 Q53.9688 293.6406 54.7344 293.6406 Q55.2969 293.6406 55.7344 293.875 Q56.1719 294.1094 56.4531 294.4844 L56.4531 291.4062 L57.5 291.4062 L57.5 300 L56.5156 300 ZM53.1875 296.8906 Q53.1875 298.0938 53.6875 298.6875 Q54.1875 299.2656 54.875 299.2656 Q55.5625 299.2656 56.0469 298.7031 Q56.5312 298.1406 56.5312 296.9844 Q56.5312 295.7031 56.0312 295.1094 Q55.5469 294.5156 54.8281 294.5156 Q54.125 294.5156 53.6562 295.0938 Q53.1875 295.6562 53.1875 296.8906 ZM63.4609 300 L62.4766 300 L62.4766 291.4062 L63.5391 291.4062 L63.5391 294.4688 Q64.2109 293.6406 65.2422 293.6406 Q65.8203 293.6406 66.3203 293.875 Q66.8359 294.0938 67.1641 294.5156 Q67.5078 294.9375 67.6953 295.5312 Q67.8828 296.125 67.8828 296.7969 Q67.8828 298.3906 67.0859 299.2656 Q66.2891 300.1406 65.1953 300.1406 Q64.0859 300.1406 63.4609 299.2188 L63.4609 300 ZM63.4453 296.8438 Q63.4453 297.9531 63.7578 298.4531 Q64.2578 299.2656 65.1016 299.2656 Q65.7891 299.2656 66.2891 298.6719 Q66.8047 298.0781 66.8047 296.875 Q66.8047 295.6562 66.3203 295.0781 Q65.8359 294.5 65.1484 294.5 Q64.4609 294.5 63.9453 295.1094 Q63.4453 295.7031 63.4453 296.8438 ZM69.1191 302.3906 L68.9941 301.4062 Q69.3379 301.5 69.6035 301.5 Q69.9473 301.5 70.1504 301.375 Q70.3691 301.2656 70.5098 301.0625 Q70.6035 300.8906 70.8379 300.2656 Q70.8535 300.1875 70.9316 300.0156 L68.5566 293.7812 L69.6973 293.7812 L70.9941 297.375 Q71.2441 298.0625 71.4473 298.8281 Q71.6348 298.0938 71.8848 297.4062 L73.2129 293.7812 L74.2598 293.7812 L71.9004 300.1094 Q71.5098 301.125 71.3066 301.5156 Q71.0254 302.0469 70.6504 302.2812 Q70.291 302.5312 69.791 302.5312 Q69.4941 302.5312 69.1191 302.3906 ZM78.4531 302.3906 L78.3281 301.4062 Q78.6719 301.5 78.9375 301.5 Q79.2812 301.5 79.4844 301.375 Q79.7031 301.2656 79.8438 301.0625 Q79.9375 300.8906 80.1719 300.2656 Q80.1875 300.1875 80.2656 300.0156 L77.8906 293.7812 L79.0312 293.7812 L80.3281 297.375 Q80.5781 298.0625 80.7812 298.8281 Q80.9688 298.0938 81.2188 297.4062 L82.5469 293.7812 L83.5938 293.7812 L81.2344 300.1094 Q80.8438 301.125 80.6406 301.5156 Q80.3594 302.0469 79.9844 302.2812 Q79.625 302.5312 79.125 302.5312 Q78.8281 302.5312 78.4531 302.3906 ZM84.6875 300 L84.6875 291.4062 L90.4844 291.4062 L90.4844 292.4219 L85.8281 292.4219 L85.8281 295.0781 L89.8594 295.0781 L89.8594 296.0938 L85.8281 296.0938 L85.8281 300 L84.6875 300 ZM91.8301 292.625 L91.8301 291.4062 L92.8926 291.4062 L92.8926 292.625 L91.8301 292.625 ZM91.8301 300 L91.8301 293.7812 L92.8926 293.7812 L92.8926 300 L91.8301 300 ZM94.4648 300 L94.4648 291.4062 L95.5273 291.4062 L95.5273 300 L94.4648 300 ZM101.4121 298 L102.5059 298.125 Q102.2559 299.0781 101.5527 299.6094 Q100.8496 300.1406 99.7715 300.1406 Q98.4121 300.1406 97.5996 299.2969 Q96.8027 298.4531 96.8027 296.9375 Q96.8027 295.375 97.6152 294.5156 Q98.4277 293.6406 99.709 293.6406 Q100.959 293.6406 101.7402 294.4844 Q102.5371 295.3281 102.5371 296.875 Q102.5371 296.9688 102.5371 297.1562 L97.8965 297.1562 Q97.959 298.1875 98.4746 298.7344 Q98.9902 299.2656 99.7715 299.2656 Q100.3496 299.2656 100.7559 298.9688 Q101.1777 298.6562 101.4121 298 ZM97.959 296.2969 L101.4277 296.2969 Q101.3652 295.5 101.0371 295.1094 Q100.5215 294.5 99.7246 294.5 Q98.9902 294.5 98.4902 294.9844 Q98.0059 295.4688 97.959 296.2969 ZM103.4141 298.1406 L104.4453 297.9844 Q104.5391 298.6094 104.9297 298.9375 Q105.3359 299.2656 106.0703 299.2656 Q106.7891 299.2656 107.1328 298.9844 Q107.4922 298.6875 107.4922 298.2812 Q107.4922 297.9219 107.1797 297.7188 Q106.9609 297.5781 106.1016 297.3594 Q104.9453 297.0625 104.4922 296.8594 Q104.0547 296.6406 103.8203 296.2656 Q103.5859 295.8906 103.5859 295.4219 Q103.5859 295.0156 103.7734 294.6562 Q103.9609 294.2969 104.2891 294.0625 Q104.5391 293.8906 104.9609 293.7656 Q105.3828 293.6406 105.8828 293.6406 Q106.6016 293.6406 107.1484 293.8594 Q107.7109 294.0625 107.9766 294.4219 Q108.2422 294.7812 108.3359 295.375 L107.3047 295.5156 Q107.2422 295.0469 106.8984 294.7812 Q106.5703 294.5 105.9453 294.5 Q105.2266 294.5 104.9141 294.75 Q104.6016 294.9844 104.6016 295.3125 Q104.6016 295.5156 104.7266 295.6719 Q104.8672 295.8438 105.1328 295.9531 Q105.2891 296.0156 106.0703 296.2188 Q107.1953 296.5312 107.6328 296.7188 Q108.0703 296.9062 108.3203 297.2656 Q108.5703 297.625 108.5703 298.1719 Q108.5703 298.7031 108.2578 299.1719 Q107.9609 299.625 107.3828 299.8906 Q106.8047 300.1406 106.0703 300.1406 Q104.8516 300.1406 104.2109 299.6406 Q103.5859 299.125 103.4141 298.1406 Z" stroke="none" clip-path="url(#clipPath1)"/>
    </g>
    <g fill="silver" stroke="silver">
      <path d="M10.9219 299 L10.9219 290.4062 L14.1719 290.4062 Q15.0156 290.4062 15.4688 290.4844 Q16.1094 290.5938 16.5312 290.8906 Q16.9688 291.1875 17.2188 291.7188 Q17.4844 292.25 17.4844 292.8906 Q17.4844 293.9844 16.7812 294.75 Q16.0938 295.5 14.2656 295.5 L12.0625 295.5 L12.0625 299 L10.9219 299 ZM12.0625 294.5 L14.2812 294.5 Q15.3906 294.5 15.8438 294.0938 Q16.3125 293.6719 16.3125 292.9219 Q16.3125 292.3906 16.0312 292.0156 Q15.7656 291.625 15.3281 291.5 Q15.0312 291.4219 14.2656 291.4219 L12.0625 291.4219 L12.0625 294.5 ZM18.4102 295.8906 Q18.4102 294.1562 19.3633 293.3281 Q20.1602 292.6406 21.3164 292.6406 Q22.5977 292.6406 23.4102 293.4844 Q24.2383 294.3125 24.2383 295.7969 Q24.2383 297 23.8789 297.6875 Q23.5195 298.375 22.8164 298.7656 Q22.1289 299.1406 21.3164 299.1406 Q20.0195 299.1406 19.207 298.3125 Q18.4102 297.4688 18.4102 295.8906 ZM19.4883 295.8906 Q19.4883 297.0781 20.0039 297.6719 Q20.5352 298.2656 21.3164 298.2656 Q22.1133 298.2656 22.6289 297.6719 Q23.1445 297.0781 23.1445 295.8594 Q23.1445 294.7031 22.6133 294.1094 Q22.0977 293.5156 21.3164 293.5156 Q20.5352 293.5156 20.0039 294.1094 Q19.4883 294.6875 19.4883 295.8906 ZM26.6152 299 L24.709 292.7812 L25.8027 292.7812 L26.7871 296.375 L27.1621 297.7031 Q27.1934 297.6094 27.4902 296.4219 L28.4746 292.7812 L29.5527 292.7812 L30.4902 296.3906 L30.8027 297.5781 L31.1621 296.375 L32.2246 292.7812 L33.2559 292.7812 L31.3027 299 L30.209 299 L29.2246 295.2656 L28.9746 294.2188 L27.7246 299 L26.6152 299 ZM38.3906 297 L39.4844 297.125 Q39.2344 298.0781 38.5312 298.6094 Q37.8281 299.1406 36.75 299.1406 Q35.3906 299.1406 34.5781 298.2969 Q33.7812 297.4531 33.7812 295.9375 Q33.7812 294.375 34.5938 293.5156 Q35.4062 292.6406 36.6875 292.6406 Q37.9375 292.6406 38.7188 293.4844 Q39.5156 294.3281 39.5156 295.875 Q39.5156 295.9688 39.5156 296.1562 L34.875 296.1562 Q34.9375 297.1875 35.4531 297.7344 Q35.9688 298.2656 36.75 298.2656 Q37.3281 298.2656 37.7344 297.9688 Q38.1562 297.6562 38.3906 297 ZM34.9375 295.2969 L38.4062 295.2969 Q38.3438 294.5 38.0156 294.1094 Q37.5 293.5 36.7031 293.5 Q35.9688 293.5 35.4688 293.9844 Q34.9844 294.4688 34.9375 295.2969 ZM40.7988 299 L40.7988 292.7812 L41.752 292.7812 L41.752 293.7188 Q42.1113 293.0625 42.4082 292.8594 Q42.7207 292.6406 43.0957 292.6406 Q43.627 292.6406 44.1738 292.9688 L43.8145 293.9531 Q43.4238 293.7188 43.0488 293.7188 Q42.6895 293.7188 42.4082 293.9375 Q42.1426 294.1406 42.0332 294.5156 Q41.8457 295.0781 41.8457 295.7344 L41.8457 299 L40.7988 299 ZM49.0605 297 L50.1543 297.125 Q49.9043 298.0781 49.2012 298.6094 Q48.498 299.1406 47.4199 299.1406 Q46.0605 299.1406 45.248 298.2969 Q44.4512 297.4531 44.4512 295.9375 Q44.4512 294.375 45.2637 293.5156 Q46.0762 292.6406 47.3574 292.6406 Q48.6074 292.6406 49.3887 293.4844 Q50.1855 294.3281 50.1855 295.875 Q50.1855 295.9688 50.1855 296.1562 L45.5449 296.1562 Q45.6074 297.1875 46.123 297.7344 Q46.6387 298.2656 47.4199 298.2656 Q47.998 298.2656 48.4043 297.9688 Q48.8262 297.6562 49.0605 297 ZM45.6074 295.2969 L49.0762 295.2969 Q49.0137 294.5 48.6855 294.1094 Q48.1699 293.5 47.373 293.5 Q46.6387 293.5 46.1387 293.9844 Q45.6543 294.4688 45.6074 295.2969 ZM55.5156 299 L55.5156 298.2188 Q54.9219 299.1406 53.7812 299.1406 Q53.0312 299.1406 52.4062 298.7344 Q51.7812 298.3125 51.4375 297.5781 Q51.0938 296.8438 51.0938 295.8906 Q51.0938 294.9688 51.4062 294.2031 Q51.7188 293.4375 52.3438 293.0469 Q52.9688 292.6406 53.7344 292.6406 Q54.2969 292.6406 54.7344 292.875 Q55.1719 293.1094 55.4531 293.4844 L55.4531 290.4062 L56.5 290.4062 L56.5 299 L55.5156 299 ZM52.1875 295.8906 Q52.1875 297.0938 52.6875 297.6875 Q53.1875 298.2656 53.875 298.2656 Q54.5625 298.2656 55.0469 297.7031 Q55.5312 297.1406 55.5312 295.9844 Q55.5312 294.7031 55.0312 294.1094 Q54.5469 293.5156 53.8281 293.5156 Q53.125 293.5156 52.6562 294.0938 Q52.1875 294.6562 52.1875 295.8906 ZM62.4609 299 L61.4766 299 L61.4766 290.4062 L62.5391 290.4062 L62.5391 293.4688 Q63.2109 292.6406 64.2422 292.6406 Q64.8203 292.6406 65.3203 292.875 Q65.8359 293.0938 66.1641 293.5156 Q66.5078 293.9375 66.6953 294.5312 Q66.8828 295.125 66.8828 295.7969 Q66.8828 297.3906 66.0859 298.2656 Q65.2891 299.1406 64.1953 299.1406 Q63.0859 299.1406 62.4609 298.2188 L62.4609 299 ZM62.4453 295.8438 Q62.4453 296.9531 62.7578 297.4531 Q63.2578 298.2656 64.1016 298.2656 Q64.7891 298.2656 65.2891 297.6719 Q65.8047 297.0781 65.8047 295.875 Q65.8047 294.6562 65.3203 294.0781 Q64.8359 293.5 64.1484 293.5 Q63.4609 293.5 62.9453 294.1094 Q62.4453 294.7031 62.4453 295.8438 ZM68.1191 301.3906 L67.9941 300.4062 Q68.3379 300.5 68.6035 300.5 Q68.9473 300.5 69.1504 300.375 Q69.3691 300.2656 69.5098 300.0625 Q69.6035 299.8906 69.8379 299.2656 Q69.8535 299.1875 69.9316 299.0156 L67.5566 292.7812 L68.6973 292.7812 L69.9941 296.375 Q70.2441 297.0625 70.4473 297.8281 Q70.6348 297.0938 70.8848 296.4062 L72.2129 292.7812 L73.2598 292.7812 L70.9004 299.1094 Q70.5098 300.125 70.3066 300.5156 Q70.0254 301.0469 69.6504 301.2812 Q69.291 301.5312 68.791 301.5312 Q68.4941 301.5312 68.1191 301.3906 ZM77.4531 301.3906 L77.3281 300.4062 Q77.6719 300.5 77.9375 300.5 Q78.2812 300.5 78.4844 300.375 Q78.7031 300.2656 78.8438 300.0625 Q78.9375 299.8906 79.1719 299.2656 Q79.1875 299.1875 79.2656 299.0156 L76.8906 292.7812 L78.0312 292.7812 L79.3281 296.375 Q79.5781 297.0625 79.7812 297.8281 Q79.9688 297.0938 80.2188 296.4062 L81.5469 292.7812 L82.5938 292.7812 L80.2344 299.1094 Q79.8438 300.125 79.6406 300.5156 Q79.3594 301.0469 78.9844 301.2812 Q78.625 301.5312 78.125 301.5312 Q77.8281 301.5312 77.4531 301.3906 ZM83.6875 299 L83.6875 290.4062 L89.4844 290.4062 L89.4844 291.4219 L84.8281 291.4219 L84.8281 294.0781 L88.8594 294.0781 L88.8594 295.0938 L84.8281 295.0938 L84.8281 299 L83.6875 299 ZM90.8301 291.625 L90.8301 290.4062 L91.8926 290.4062 L91.8926 291.625 L90.8301 291.625 ZM90.8301 299 L90.8301 292.7812 L91.8926 292.7812 L91.8926 299 L90.8301 299 ZM93.4648 299 L93.4648 290.4062 L94.5273 290.4062 L94.5273 299 L93.4648 299 ZM100.4121 297 L101.5059 297.125 Q101.2559 298.0781 100.5527 298.6094 Q99.8496 299.1406 98.7715 299.1406 Q97.4121 299.1406 96.5996 298.2969 Q95.8027 297.4531 95.8027 295.9375 Q95.8027 294.375 96.6152 293.5156 Q97.4277 292.6406 98.709 292.6406 Q99.959 292.6406 100.7402 293.4844 Q101.5371 294.3281 101.5371 295.875 Q101.5371 295.9688 101.5371 296.1562 L96.8965 296.1562 Q96.959 297.1875 97.4746 297.7344 Q97.9902 298.2656 98.7715 298.2656 Q99.3496 298.2656 99.7559 297.9688 Q100.1777 297.6562 100.4121 297 ZM96.959 295.2969 L100.4277 295.2969 Q100.3652 294.5 100.0371 294.1094 Q99.5215 293.5 98.7246 293.5 Q97.9902 293.5 97.4902 293.9844 Q97.0059 294.4688 96.959 295.2969 ZM102.4141 297.1406 L103.4453 296.9844 Q103.5391 297.6094 103.9297 297.9375 Q104.3359 298.2656 105.0703 298.2656 Q105.7891 298.2656 106.1328 297.9844 Q106.4922 297.6875 106.4922 297.2812 Q106.4922 296.9219 106.1797 296.7188 Q105.9609 296.5781 105.1016 296.3594 Q103.9453 296.0625 103.4922 295.8594 Q103.0547 295.6406 102.8203 295.2656 Q102.5859 294.8906 102.5859 294.4219 Q102.5859 294.0156 102.7734 293.6562 Q102.9609 293.2969 103.2891 293.0625 Q103.5391 292.8906 103.9609 292.7656 Q104.3828 292.6406 104.8828 292.6406 Q105.6016 292.6406 106.1484 292.8594 Q106.7109 293.0625 106.9766 293.4219 Q107.2422 293.7812 107.3359 294.375 L106.3047 294.5156 Q106.2422 294.0469 105.8984 293.7812 Q105.5703 293.5 104.9453 293.5 Q104.2266 293.5 103.9141 293.75 Q103.6016 293.9844 103.6016 294.3125 Q103.6016 294.5156 103.7266 294.6719 Q103.8672 294.8438 104.1328 294.9531 Q104.2891 295.0156 105.0703 295.2188 Q106.1953 295.5312 106.6328 295.7188 Q107.0703 295.9062 107.3203 296.2656 Q107.5703 296.625 107.5703 297.1719 Q107.5703 297.7031 107.2578 298.1719 Q106.9609 298.625 106.3828 298.8906 Q105.8047 299.1406 105.0703 299.1406 Q103.8516 299.1406 103.2109 298.6406 Q102.5859 298.125 102.4141 297.1406 Z" stroke="none" clip-path="url(#clipPath1)"/>
    </g>
    <g fill="rgb(255,255,204)" transform="matrix(1,0,0,1,17,23)" stroke="rgb(255,255,204)">
      <rect x="1.5" width="147" height="125.0849" y="-12.5424" clip-path="url(#clipPath2)" stroke="none"/>
    </g>
    <g fill="gray" stroke-miterlimit="1.45" transform="matrix(1,0,0,1,17,23)" stroke-linecap="butt" stroke="gray">
      <rect fill="none" x="1.5" width="147" height="125.0849" y="-12.5424" clip-path="url(#clipPath2)"/>
      <text x="62" y="5.0823" clip-path="url(#clipPath2)" fill="black" font-family="'Inter'" stroke="none" xml:space="preserve">User</text>
      <line stroke-linecap="square" clip-path="url(#clipPath2)" fill="none" x1="2" x2="147" y1="11" y2="11" stroke-miterlimit="10"/>
    </g>
    <g stroke-linecap="round" transform="matrix(0.6667,0,0,0.6667,22.5,37.9799)" fill="rgb(110,110,110)" image-rendering="optimizeQuality" stroke-linejoin="round" stroke="rgb(110,110,110)" stroke-width="2" stroke-miterlimit="4">
      <path fill="none" d="M12.4 2.7 C13.3 1.8 14.9 1.8 15.8 2.7 L21.3 8.2 C22.2 9.1 22.2 10.7 21.3 11.6 L17.6 15.3 C16.7 16.2 15.1 16.2 14.2 15.3 L8.7 9.8 C7.8 8.9 7.8 7.3 8.7 6.4 Z" clip-path="url(#clipPath4)"/>
    </g>
    <g stroke-linecap="round" transform="matrix(0.6667,0,0,0.6667,22.5,37.9799)" fill="rgb(110,110,110)" image-rendering="optimizeQuality" stroke-linejoin="round" stroke="rgb(110,110,110)" stroke-width="2" stroke-miterlimit="4">
      <path fill="none" d="M14 7 L17 10" clip-path="url(#clipPath4)"/>
    </g>
    <g stroke-linecap="round" transform="matrix(0.6667,0,0,0.6667,22.5,37.9799)" fill="rgb(110,110,110)" image-rendering="optimizeQuality" stroke-linejoin="round" stroke="rgb(110,110,110)" stroke-width="2" stroke-miterlimit="4">
      <path fill="none" d="M9.4 10.6 L2 18 L2 21 C2 21.6 2.4 22 3 22 L7 22 L7 19 L10 19 L10 16 L12 16 L13.4 14.6" clip-path="url(#clipPath4)"/>
    </g>
    <g stroke-miterlimit="1.45" font-size="11px" font-weight="bold" font-family="'Inter'" transform="matrix(1,0,0,1,17,23)" stroke-linecap="butt">
      <text x="27.5" xml:space="preserve" y="28.6362" clip-path="url(#clipPath2)" stroke="none">uid</text>
    </g>
    <g stroke-miterlimit="1.45" font-size="11px" font-family="'Inter'" transform="matrix(1,0,0,1,17,23)" stroke-linecap="butt">
      <text x="78.5" xml:space="preserve" y="28.6362" clip-path="url(#clipPath2)" stroke="none">INTEGER</text>
      <text x="27.5" xml:space="preserve" y="47.9487" clip-path="url(#clipPath2)" font-weight="bold" stroke="none">email</text>
      <text x="78.5" xml:space="preserve" y="47.9487" clip-path="url(#clipPath2)" stroke="none">TEXT</text>
      <text x="27.5" xml:space="preserve" y="67.2612" clip-path="url(#clipPath2)" font-weight="bold" stroke="none">name</text>
      <text x="78.5" xml:space="preserve" y="67.2612" clip-path="url(#clipPath2)" stroke="none">TEXT</text>
      <text x="27.5" xml:space="preserve" y="86.5737" clip-path="url(#clipPath2)" font-weight="bold" stroke="none">created</text>
      <text x="78.5" xml:space="preserve" y="86.5737" clip-path="url(#clipPath2)" stroke="none">DATETIME</text>
      <text x="27.5" xml:space="preserve" y="105.8862" clip-path="url(#clipPath2)" font-weight="bold" stroke="none">updated</text>
      <text x="78.5" xml:space="preserve" y="105.8862" clip-path="url(#clipPath2)" stroke="none">DATETIME</text>
    </g>
    <g fill="rgb(255,255,204)" transform="matrix(1,0,0,1,17,23)" stroke="rgb(255,255,204)">
      <rect x="-6.5" width="163" height="105.7724" y="172.1138" clip-path="url(#clipPath2)" stroke="none"/>
    </g>
    <g fill="gray" stroke-miterlimit="1.45" transform="matrix(1,0,0,1,17,23)" stroke-linecap="butt" stroke="gray">
      <rect fill="none" x="-6.5" width="163" height="105.7724" y="172.1138" clip-path="url(#clipPath2)"/>
      <text x="47.5" y="189.7385" clip-path="url(#clipPath2)" fill="black" font-family="'Inter'" stroke="none" xml:space="preserve">Password</text>
      <line stroke-linecap="square" clip-path="url(#clipPath2)" fill="none" x1="-5" x2="155" y1="196" y2="196" stroke-miterlimit="10"/>
    </g>
    <g stroke-linecap="round" transform="matrix(0.6667,0,0,0.6667,14.5,222.6362)" fill="rgb(110,110,110)" image-rendering="optimizeQuality" stroke-linejoin="round" stroke="rgb(110,110,110)" stroke-width="2" stroke-miterlimit="4">
      <path fill="none" d="M12.4 2.7 C13.3 1.8 14.9 1.8 15.8 2.7 L21.3 8.2 C22.2 9.1 22.2 10.7 21.3 11.6 L17.6 15.3 C16.7 16.2 15.1 16.2 14.2 15.3 L8.7 9.8 C7.8 8.9 7.8 7.3 8.7 6.4 Z" clip-path="url(#clipPath6)"/>
    </g>
    <g stroke-linecap="round" transform="matrix(0.6667,0,0,0.6667,14.5,222.6362)" fill="rgb(110,110,110)" image-rendering="optimizeQuality" stroke-linejoin="round" stroke="rgb(110,110,110)" stroke-width="2" stroke-miterlimit="4">
      <path fill="none" d="M14 7 L17 10" clip-path="url(#clipPath6)"/>
    </g>
    <g stroke-linecap="round" transform="matrix(0.6667,0,0,0.6667,14.5,222.6362)" fill="rgb(110,110,110)" image-rendering="optimizeQuality" stroke-linejoin="round" stroke="rgb(110,110,110)" stroke-width="2" stroke-miterlimit="4">
      <path fill="none" d="M9.4 10.6 L2 18 L2 21 C2 21.6 2.4 22 3 22 L7 22 L7 19 L10 19 L10 16 L12 16 L13.4 14.6" clip-path="url(#clipPath6)"/>
    </g>
    <g stroke-miterlimit="1.45" font-size="11px" font-weight="bold" font-family="'Inter'" transform="matrix(1,0,0,1,17,23)" stroke-linecap="butt">
      <text x="19.5" xml:space="preserve" y="213.2924" clip-path="url(#clipPath2)" stroke="none">uid</text>
    </g>
    <g stroke-miterlimit="1.45" font-size="11px" font-family="'Inter'" transform="matrix(1,0,0,1,17,23)" stroke-linecap="butt">
      <text x="70.5" xml:space="preserve" y="213.2924" clip-path="url(#clipPath2)" stroke="none">INTEGER</text>
    </g>
    <g stroke-linecap="round" transform="matrix(0.6667,0,0,0.6667,151.5,222.6362)" fill="rgb(110,110,110)" image-rendering="optimizeQuality" stroke-linejoin="round" stroke="rgb(110,110,110)" stroke-width="2" stroke-miterlimit="4">
      <path fill="none" d="M7 7 L17 7 L17 17" clip-path="url(#clipPath6)"/>
    </g>
    <g stroke-linecap="round" transform="matrix(0.6667,0,0,0.6667,151.5,222.6362)" fill="rgb(110,110,110)" image-rendering="optimizeQuality" stroke-linejoin="round" stroke="rgb(110,110,110)" stroke-width="2" stroke-miterlimit="4">
      <path fill="none" d="M7 17 L17 7" clip-path="url(#clipPath6)"/>
    </g>
    <g stroke-miterlimit="1.45" font-size="11px" font-weight="bold" font-family="'Inter'" transform="matrix(1,0,0,1,17,23)" stroke-linecap="butt">
      <text x="19.5" xml:space="preserve" y="232.6049" clip-path="url(#clipPath2)" stroke="none">hash</text>
    </g>
    <g stroke-miterlimit="1.45" font-size="11px" font-family="'Inter'" transform="matrix(1,0,0,1,17,23)" stroke-linecap="butt">
      <text x="70.5" xml:space="preserve" y="232.6049" clip-path="url(#clipPath2)" stroke="none">BLOB</text>
      <text x="19.5" xml:space="preserve" y="251.9174" clip-path="url(#clipPath2)" font-weight="bold" stroke="none">salt</text>
      <text x="70.5" xml:space="preserve" y="251.9174" clip-path="url(#clipPath2)" stroke="none">BLOB</text>
      <text x="19.5" xml:space="preserve" y="271.2299" clip-path="url(#clipPath2)" font-weight="bold" stroke="none">updated</text>
      <text x="70.5" xml:space="preserve" y="271.2299" clip-path="url(#clipPath2)" stroke="none">DATETIME</text>
    </g>
    <g fill="rgb(255,255,204)" transform="matrix(1,0,0,1,17,23)" stroke="rgb(255,255,204)">
      <rect x="195" width="160" height="125.0849" y="-12.5424" clip-path="url(#clipPath2)" stroke="none"/>
    </g>
    <g fill="gray" stroke-miterlimit="1.45" transform="matrix(1,0,0,1,17,23)" stroke-linecap="butt" stroke="gray">
      <rect fill="none" x="195" width="160" height="125.0849" y="-12.5424" clip-path="url(#clipPath2)"/>
      <text x="253" y="5.0823" clip-path="url(#clipPath2)" fill="black" font-family="'Inter'" stroke="none" xml:space="preserve">Session</text>
      <line stroke-linecap="square" clip-path="url(#clipPath2)" fill="none" x1="196" x2="354" y1="11" y2="11" stroke-miterlimit="10"/>
    </g>
    <g stroke-linecap="round" transform="matrix(0.6667,0,0,0.6667,216,37.9799)" fill="rgb(110,110,110)" image-rendering="optimizeQuality" stroke-linejoin="round" stroke="rgb(110,110,110)" stroke-width="2" stroke-miterlimit="4">
      <path fill="none" d="M12.4 2.7 C13.3 1.8 14.9 1.8 15.8 2.7 L21.3 8.2 C22.2 9.1 22.2 10.7 21.3 11.6 L17.6 15.3 C16.7 16.2 15.1 16.2 14.2 15.3 L8.7 9.8 C7.8 8.9 7.8 7.3 8.7 6.4 Z" clip-path="url(#clipPath4)"/>
    </g>
    <g stroke-linecap="round" transform="matrix(0.6667,0,0,0.6667,216,37.9799)" fill="rgb(110,110,110)" image-rendering="optimizeQuality" stroke-linejoin="round" stroke="rgb(110,110,110)" stroke-width="2" stroke-miterlimit="4">
      <path fill="none" d="M14 7 L17 10" clip-path="url(#clipPath4)"/>
    </g>
    <g stroke-linecap="round" transform="matrix(0.6667,0,0,0.6667,216,37.9799)" fill="rgb(110,110,110)" image-rendering="optimizeQuality" stroke-linejoin="round" stroke="rgb(110,110,110)" stroke-width="2" stroke-miterlimit="4">
      <path fill="none" d="M9.4 10.6 L2 18 L2 21 C2 21.6 2.4 22 3 22 L7 22 L7 19 L10 19 L10 16 L12 16 L13.4 14.6" clip-path="url(#clipPath4)"/>
    </g>
    <g stroke-miterlimit="1.45" font-size="11px" font-weight="bold" font-family="'Inter'" transform="matrix(1,0,0,1,17,23)" stroke-linecap="butt">
      <text x="221" xml:space="preserve" y="28.6362" clip-path="url(#clipPath2)" stroke="none">sid</text>
    </g>
    <g stroke-miterlimit="1.45" font-size="11px" font-family="'Inter'" transform="matrix(1,0,0,1,17,23)" stroke-linecap="butt">
      <text x="269" xml:space="preserve" y="28.6362" clip-path="url(#clipPath2)" stroke="none">INTEGER</text>
      <text x="221" xml:space="preserve" y="47.9487" clip-path="url(#clipPath2)" font-weight="bold" stroke="none">uid</text>
      <text x="269" xml:space="preserve" y="47.9487" clip-path="url(#clipPath2)" stroke="none">INTEGER</text>
    </g>
    <g stroke-linecap="round" transform="matrix(0.6667,0,0,0.6667,350,57.2924)" fill="rgb(110,110,110)" image-rendering="optimizeQuality" stroke-linejoin="round" stroke="rgb(110,110,110)" stroke-width="2" stroke-miterlimit="4">
      <path fill="none" d="M7 7 L17 7 L17 17" clip-path="url(#clipPath4)"/>
    </g>
    <g stroke-linecap="round" transform="matrix(0.6667,0,0,0.6667,350,57.2924)" fill="rgb(110,110,110)" image-rendering="optimizeQuality" stroke-linejoin="round" stroke="rgb(110,110,110)" stroke-width="2" stroke-miterlimit="4">
      <path fill="none" d="M7 17 L17 7" clip-path="url(#clipPath4)"/>
    </g>
    <g stroke-miterlimit="1.45" font-size="11px" font-weight="bold" font-family="'Inter'" transform="matrix(1,0,0,1,17,23)" stroke-linecap="butt">
      <text x="221" xml:space="preserve" y="67.2612" clip-path="url(#clipPath2)" stroke="none">hash</text>
    </g>
    <g stroke-miterlimit="1.45" font-size="11px" font-family="'Inter'" transform="matrix(1,0,0,1,17,23)" stroke-linecap="butt">
      <text x="269" xml:space="preserve" y="67.2612" clip-path="url(#clipPath2)" stroke="none">BLOB</text>
      <text x="221" xml:space="preserve" y="86.5737" clip-path="url(#clipPath2)" font-weight="bold" stroke="none">salt</text>
      <text x="269" xml:space="preserve" y="86.5737" clip-path="url(#clipPath2)" stroke="none">BLOB</text>
      <text x="221" xml:space="preserve" y="105.8862" clip-path="url(#clipPath2)" font-weight="bold" stroke="none">created</text>
      <text x="269" xml:space="preserve" y="105.8862" clip-path="url(#clipPath2)" stroke="none">DATETIME</text>
    </g>
    <g fill="gray" stroke-miterlimit="1.45" transform="matrix(1,0,0,1,17,23)" stroke-linecap="butt" stroke="gray">
      <path fill="none" d="M75 172.0847 L75 120.5715" clip-path="url(#clipPath2)"/>
    </g>
    <g fill="gray" stroke-miterlimit="1.45" transform="matrix(1,0,0,1,17,23)" stroke-linecap="butt" stroke="gray">
      <path d="M75 112.5715 L70 124.5715 L75 121.5715 L80 124.5715 Z" stroke="none" clip-path="url(#clipPath2)"/>
      <path fill="none" d="M194.9546 50 L156.5454 50" clip-path="url(#clipPath2)"/>
      <path d="M148.5454 50 L160.5454 55 L157.5454 50 L160.5454 45 Z" clip-path="url(#clipPath2)" stroke="none"/>
    </g>
  </g>
</svg>
