<svg xmlns="http://www.w3.org/2000/svg" xmlns:xlink="http://www.w3.org/1999/xlink" stroke="#000" stroke-linecap="square" stroke-miterlimit="10" color-interpolation="auto" font-family="'Dialog'" font-size="12" viewBox="0 0 649 367"><defs><path id="a" stroke="none" d="m459 155-12-5 3 5-3 5z" clip-path="url(#clipPath2)"/></defs><path fill="#FFC" d="M459 117h169v174H459z" clip-path="url(#clipPath2)" transform="translate(10 10)" stroke="none"/><g fill="gray" stroke="gray" stroke-linecap="butt" stroke-miterlimit="1.4"><path fill="none" d="M459 117h169v174H459z" clip-path="url(#clipPath2)" transform="translate(10 10)"/><path fill="#000" d="M533 136v-7.7h-2.4v-1h6v1h-2.4v7.7Zm7.2.1q-1 0-1.6-.5-.6-.6-.6-1.5 0-1 .6-1.5.6-.6 1.6-.6h2v-.5q0-1.2-1.4-1.2-.6 0-1 .2-.3.2-.3.6h-1.2q0-.8.7-1.3t1.8-.5q1.2 0 1.9.6.6.5.6 1.6v4.5h-1.1v-1.2q-.1.6-.7 1-.5.3-1.3.3m.3-1q.8 0 1.2-.3.5-.4.5-1v-1h-1.9q-.5 0-.8.4-.3.3-.3.8t.3.8q.4.3 1 .3m7.2 1q-1 0-1.7-.5-.6-.5-.6-1.4h1.1q0 .4.3.7.4.2 1 .2h.5q.6 0 .9-.3.3-.2.3-.7 0-.8-.8-.9l-1.8-.2q-.7-.1-1-.6-.5-.5-.5-1.2 0-1 .6-1.4.6-.5 1.7-.5h.6q1 0 1.6.5t.6 1.3h-1.2q0-.4-.3-.6t-.7-.2h-.6q-.5 0-.8.2-.3.3-.3.7 0 .6.7.7l1.6.2q1.7.3 1.7 2 0 1-.6 1.5t-1.7.5zm5-.1v-8.8h1.2v4.9h1.2l1.8-2.7h1.3l-2 3.2 2.1 3.4H557l-1.9-2.9H554v2.9Z" aria-label="Task" clip-path="url(#clipPath2)" font-family="JetBrains Mono Medium" transform="translate(10 10)" stroke="none"/><path fill="none" stroke-linecap="square" stroke-miterlimit="10" d="M459 143h168" clip-path="url(#clipPath2)" transform="translate(10 10)"/></g><path fill="none" stroke="#6e6e6e" stroke-linecap="round" stroke-linejoin="round" stroke-miterlimit="4" stroke-width="1.4" d="M481.4 158.1h2.8l3.5 3.5v2.8l-2.1 2.1h-2.8l-3.5-3.5v-2.8zm1.4 2.8 2.1 2.1m-5.6.7-4.9 4.9v2.1l.7.7h2.8v-2.1h2.1v-2.1h1.4l.7-.7" clip-path="url(#clipPath4)" image-rendering="optimizeQuality"/><path d="M487.6 160.1q-.9 0-1.4-.5-.6-.5-.6-1.4t.6-1.4 1.7-.5h1.5v-.4q0-1-1-1-.6 0-.9.2l-.3.6H486q0-.8.7-1.4.6-.5 1.7-.5 1.2 0 1.8.6.7.5.7 1.5v4.1h-1.4v-1.1q0 .5-.5.9-.5.3-1.3.3zm.5-1.1q.6 0 1-.3.3-.3.3-.8v-.7H488q-.5 0-.7.2-.3.3-.3.7t.3.6q.3.3.8.3m4.3 1v-1.2h2.1v-3.6h-1.8V154h3.2v4.8h1.8v1.2Zm2.7-7q-.4 0-.7-.3-.2-.2-.2-.6 0-.3.2-.5.3-.2.7-.2t.7.2q.2.2.2.5 0 .4-.2.6-.3.2-.7.2zm5.9 7.1q-1 0-1.5-.6t-.5-1.7v-1.6q0-1.1.5-1.7.6-.7 1.5-.7.6 0 1 .4.4.3.6.8v-3h1.4v8h-1.4v-1.1q-.2.6-.6.9t-1 .3m.5-1.2q.5 0 .8-.3t.3-.9v-1.5q0-.5-.3-.9-.3-.3-.8-.3-.6 0-.9.3-.2.3-.2.9v1.6q0 .6.2.8.3.3.9.3" aria-label="aid" clip-path="url(#clipPath2)" font-family="JetBrains Mono Medium" font-size="11" font-weight="700" transform="translate(10 10)" stroke="none"/><g stroke="none" stroke-linecap="butt" stroke-miterlimit="1.4" font-family="'JetBrains Mono Medium'" font-size="11"><path d="M543.1 160v-1h1.6v-6h-1.6v-1h4.4v1h-1.6v6h1.6v1Zm6.4 0v-8h1.5l2.4 6.7-.1-.7v-6h1v8h-1.5l-2.3-6.8v6.8Zm8.5 0v-7h-2.2v-1h5.4v1h-2.1v7Zm4.9 0v-8h4.6v1H564v2.3h3.3v1H564v2.7h3.6v1Zm8.8.1q-1 0-1.7-.6t-.7-1.7v-3.6q0-1.1.7-1.7.6-.6 1.7-.6t1.8.6.7 1.7H573q0-.7-.4-1-.3-.4-1-.4-.6 0-1 .4-.3.3-.3 1v3.6q0 .6.4 1 .3.3 1 .3.6 0 1-.3.3-.4.3-1v-1h-1.6v-1h2.7v2q0 1-.7 1.7-.7.6-1.8.6zm4.4-.1v-8h4.6v1h-3.6v2.3h3.3v1H577v2.7h3.6v1Zm6.5 0v-8h2.5q.7 0 1.3.3.5.3.8.8t.3 1.2q0 .8-.4 1.4t-1 .8l1.5 3.5h-1.2l-1.5-3.4h-1.2v3.4Zm1-4.3h1.5q.6 0 1-.4.3-.4.3-1t-.4-1q-.3-.4-1-.4h-1.3z" aria-label="INTEGER" clip-path="url(#clipPath2)" transform="translate(10 10)"/><path d="M488.9 181q-.8 0-1.3-.5t-.5-1.3v-3h-1.7V175h1.7v-1.8h1.3v1.8h2.5v1.2h-2.5v3l.2.4q.1.2.4.2h1.8v1.2Zm3.5 0v-1.2h2.1v-3.6h-1.8V175h3.2v4.8h1.8v1.2Zm2.7-7q-.4 0-.7-.3-.2-.2-.2-.6 0-.3.2-.5.3-.2.7-.2t.7.2q.2.2.2.5 0 .4-.2.6-.3.2-.7.2zm5.9 7.1q-1 0-1.5-.6t-.5-1.7v-1.6q0-1.1.5-1.7.6-.7 1.5-.7.6 0 1 .4.4.3.6.8v-3h1.4v8h-1.4v-1.1q-.2.6-.6.9t-1 .3m.5-1.2q.5 0 .8-.3t.3-.9v-1.5q0-.5-.3-.9-.3-.3-.8-.3-.6 0-.9.3-.2.3-.2.9v1.6q0 .6.2.8.3.3.9.3" aria-label="tid" clip-path="url(#clipPath2)" font-weight="700" transform="translate(10 10)"/><path d="M543.1 181v-1h1.6v-6h-1.6v-1h4.4v1h-1.6v6h1.6v1Zm6.4 0v-8h1.5l2.4 6.7-.1-.7v-6h1v8h-1.5l-2.3-6.8v6.8Zm8.5 0v-7h-2.2v-1h5.4v1h-2.1v7Zm4.9 0v-8h4.6v1H564v2.3h3.3v1H564v2.7h3.6v1Zm8.8.1q-1 0-1.7-.6t-.7-1.7v-3.6q0-1.1.7-1.7.6-.6 1.7-.6t1.8.6.7 1.7H573q0-.7-.4-1-.3-.4-1-.4-.6 0-1 .4-.3.3-.3 1v3.6q0 .6.4 1 .3.3 1 .3.6 0 1-.3.3-.4.3-1v-1h-1.6v-1h2.7v2q0 1-.7 1.7-.7.6-1.8.6zm4.4-.1v-8h4.6v1h-3.6v2.3h3.3v1H577v2.7h3.6v1Zm6.5 0v-8h2.5q.7 0 1.3.3.5.3.8.8t.3 1.2q0 .8-.4 1.4t-1 .8l1.5 3.5h-1.2l-1.5-3.4h-1.2v3.4Zm1-4.3h1.5q.6 0 1-.4.3-.4.3-1t-.4-1q-.3-.4-1-.4h-1.3z" aria-label="INTEGER" clip-path="url(#clipPath2)" transform="translate(10 10)"/></g><path fill="none" stroke="#6e6e6e" stroke-linecap="round" stroke-linejoin="round" stroke-miterlimit="4" stroke-width="1.4" d="M620.9 181.9h7v7m-7 0 7-7" clip-path="url(#clipPath6)" image-rendering="optimizeQuality"/><path d="M485.8 201v-6h1.4v1q.1-.5.5-.8.5-.4 1.1-.4 1 0 1.4.6.6.6.6 1.6v4h-1.4v-3.8q0-.6-.3-.9t-.8-.3-.8.3-.3 1v3.7Zm8.4.1q-.9 0-1.4-.5-.6-.5-.6-1.4t.6-1.4 1.7-.5h1.5v-.4q0-1-1-1-.6 0-.9.2l-.3.6h-1.3q0-.8.7-1.4.6-.5 1.7-.5 1.2 0 1.8.6.7.5.7 1.5v4.1H496v-1.1q0 .5-.5.9-.5.3-1.3.3m.5-1.1q.6 0 1-.3.3-.3.3-.8v-.7h-1.4q-.5 0-.7.2-.3.3-.3.7t.3.6q.3.3.8.3m4 1v-6h1.2v.8q0-.4.3-.7t.7-.3.7.3.4.7q0-.4.3-.7t.7-.3q.6 0 1 .5.3.4.3 1v4.7H503v-4.5q0-.3-.2-.5l-.4-.1q-.4 0-.4.6v4.5h-1v-4.5q0-.3-.2-.5l-.3-.1q-.6 0-.6.6v4.5Zm9.4.1q-.8 0-1.3-.3-.6-.3-1-.8-.2-.6-.2-1.3v-1.4q0-.8.3-1.3.3-.6.9-.9.5-.3 1.3-.3t1.3.3q.6.3 1 .9.2.5.2 1.2v1.1H507v.4q0 .6.3 1 .3.3 1 .3l.6-.2q.3-.1.4-.4h1.4q-.2.8-.8 1.2-.7.5-1.7.5zm-1.2-3.9v.2h2.4v-.2q0-.6-.3-1-.3-.3-.9-.3t-.9.3q-.3.4-.3 1" aria-label="name" clip-path="url(#clipPath2)" font-family="JetBrains Mono Medium" font-size="11" font-weight="700" transform="translate(10 10)" stroke="none"/><g stroke="none" stroke-linecap="butt" stroke-miterlimit="1.4" font-family="'JetBrains Mono Medium'" font-size="11"><path d="M544.8 201v-7h-2.2v-1h5.4v1h-2v7Zm4.9 0v-8h4.6v1h-3.6v2.3h3.3v1h-3.3v2.7h3.6v1Zm6 0 2.2-4-2.2-4h1.3l1.2 2.3.2.4.1.3.2-.3.2-.4 1.2-2.3h1.2l-2.2 3.9 2.3 4.1h-1.2l-1.4-2.5-.2-.4-.1-.3-.2.3-.2.4-1.3 2.5zm8.9 0v-7h-2.2v-1h5.4v1h-2.1v7Z" aria-label="TEXT" clip-path="url(#clipPath2)" transform="translate(10 10)"/><path d="M487.8 222.1q-1 0-1.5-.6t-.5-1.7v-1.6q0-1.1.5-1.7.6-.7 1.4-.7.7 0 1.1.4.4.3.6.9V214h1.4v8h-1.4v-1.1q-.2.6-.6.9t-1 .3m.5-1.2q.5 0 .8-.3t.3-.9v-1.5q0-.5-.3-.9-.3-.3-.8-.3-.6 0-.9.3-.2.3-.2.9v1.6q0 .6.2.8.3.3.9.3m6.6 1.2q-.8 0-1.3-.3-.6-.3-1-.8-.2-.6-.2-1.3v-1.4q0-.8.3-1.3.3-.6.9-.9.5-.3 1.3-.3t1.3.3q.6.3 1 .9.2.5.2 1.2v1.1h-3.7v.4q0 .6.3 1 .3.3 1 .3l.6-.2q.3-.1.4-.4h1.4q-.2.8-.9 1.2-.6.5-1.6.5m-1.2-3.9v.2h2.4v-.2q0-.6-.3-1-.3-.3-.9-.3t-.9.3q-.3.4-.3 1m7.5 3.9q-1 0-1.7-.5-.6-.5-.6-1.3h1.4q0 .3.2.5.3.2.7.2h.5q.5 0 .8-.2t.3-.5-.2-.5-.6-.2l-1.5-.2q-.7-.1-1.1-.6-.4-.4-.4-1.2t.6-1.3q.5-.4 1.6-.4h.5q1 0 1.6.4.7.5.7 1.2h-1.4l-.2-.4q-.3-.2-.7-.2h-.5q-.4 0-.7.2-.2.2-.2.5t.2.4l.5.2 1.4.2q.8 0 1.3.6.4.4.4 1.3 0 .8-.6 1.3t-1.8.5zm7 0q-.8 0-1.4-.3-.5-.3-.9-.8-.3-.5-.3-1.3v-1.5q0-.7.3-1.2.4-.6 1-.9.5-.3 1.3-.3 1.1 0 1.8.6t.7 1.6h-1.3q0-.4-.4-.7-.3-.3-.8-.3-.6 0-.9.3t-.3 1v1.4q0 .6.3.9t.9.3q.5 0 .8-.2.4-.3.4-.8h1.3q0 1-.7 1.6t-1.8.6" aria-label="desc" clip-path="url(#clipPath2)" font-weight="700" transform="translate(10 10)"/><path d="M544.8 222v-7h-2.2v-1h5.4v1h-2v7Zm4.9 0v-8h4.6v1h-3.6v2.3h3.3v1h-3.3v2.7h3.6v1Zm6 0 2.2-4-2.2-4h1.3l1.2 2.3.2.4.1.3.2-.3.2-.4 1.2-2.3h1.2l-2.2 3.9 2.3 4.1h-1.2l-1.4-2.5-.2-.4-.1-.3-.2.3-.2.4-1.3 2.5zm8.9 0v-7h-2.2v-1h5.4v1h-2.1v7Z" aria-label="TEXT" clip-path="url(#clipPath2)" transform="translate(10 10)"/><path d="M487.8 242.1q-1 0-1.5-.6t-.5-1.7v-1.6q0-1.1.5-1.7.6-.7 1.4-.7.7 0 1.1.4.4.3.6.9V234h1.4v8h-1.4v-1.1q-.2.6-.6.9t-1 .3m.5-1.2q.5 0 .8-.3t.3-.9v-1.5q0-.5-.3-.9-.3-.3-.8-.3-.6 0-.9.3-.2.3-.2.9v1.6q0 .6.2.8.3.3.9.3m6.6 1.2q-.8 0-1.3-.3-.6-.3-1-.8-.2-.6-.2-1.3v-1.4q0-.8.3-1.3.3-.6.9-.9.5-.3 1.3-.3t1.3.3q.6.3 1 .9.2.5.2 1.2v1.1h-3.7v.4q0 .6.3 1 .3.3 1 .3l.6-.2q.3-.1.4-.4h1.4q-.2.8-.9 1.2-.6.5-1.6.5m-1.2-3.9v.2h2.4v-.2q0-.6-.3-1-.3-.3-.9-.3t-.9.3q-.3.4-.3 1m7.1 4q-.9 0-1.4-.6-.6-.5-.6-1.4t.6-1.4 1.7-.5h1.5v-.4q0-1-1-1-.6 0-.9.2l-.3.6h-1.3q0-.8.7-1.4.6-.5 1.7-.5 1.2 0 1.8.6.7.5.7 1.5v4.1h-1.4v-1.1q0 .5-.5.9-.5.3-1.3.3zm.5-1.2q.6 0 1-.3.3-.3.3-.8v-.7h-1.4q-.5 0-.7.2-.3.3-.3.7t.3.6q.3.3.8.3m6.3 1.1q-1 0-1.5-.6t-.5-1.7v-1.6q0-1.1.5-1.7.6-.7 1.5-.7.6 0 1 .4.4.3.6.9V234h1.4v8h-1.4v-1.1q-.2.6-.6.9t-1 .3m.5-1.2q.5 0 .8-.3t.3-.9v-1.5q0-.5-.3-.9-.3-.3-.8-.3-.6 0-.9.3-.2.3-.2.9v1.6q0 .6.2.8.3.3.9.3" aria-label="dead" clip-path="url(#clipPath2)" font-weight="700" transform="translate(10 10)"/><path d="M543 242v-8h2.1q.8 0 1.4.3t.9.8q.3.6.3 1.3v3.2q0 .7-.3 1.2-.3.6-1 .9-.5.3-1.3.3zm1-1h1.1q.7 0 1.1-.4t.4-1v-3.2q0-.7-.4-1-.4-.5-1-.5H544zm5.1 1 2-8h1.5l2 8h-1l-.5-2h-2.4l-.5 2zm1.8-3h2l-.6-2.4-.3-1.1-.1-.6-.1.6-.3 1.1zm7 3v-7h-2.1v-1h5.4v1h-2.1v7Zm5 0v-8h4.6v1H564v2.3h3.3v1H564v2.7h3.6v1Zm8.3 0v-7H569v-1h5.4v1h-2.1v7Zm5 0v-1h1.6v-6H576v-1h4.4v1h-1.6v6h1.6v1Zm6.1 0v-8h1.6l1 3.4 1-3.4h1.6v8h-1v-7.7l-1.2 4.1h-.9l-1.2-4 .1 1.8v5.8Zm7 0v-8h4.6v1h-3.6v2.3h3.3v1h-3.3v2.7h3.6v1Z" aria-label="DATETIME" clip-path="url(#clipPath2)" transform="translate(10 10)"/><path d="M488.4 263.1q-.8 0-1.4-.3-.5-.3-.9-.8-.3-.5-.3-1.3v-1.5q0-.7.3-1.2.4-.6 1-.9.5-.3 1.3-.3 1.1 0 1.8.6t.7 1.6h-1.3q0-.4-.4-.7-.3-.3-.8-.3-.6 0-.9.3t-.3 1v1.4q0 .6.3.9t.9.3q.5 0 .8-.2.4-.3.4-.8h1.3q0 1-.7 1.6t-1.8.6m4.3-.1v-6h1.3v1.1q.1-.6.5-1 .5-.3 1.2-.3.9 0 1.4.6t.5 1.7v.6h-1.3v-.5q0-.6-.3-.9t-.8-.3q-.6 0-.9.4-.3.3-.3.9v3.7Zm8.8.1q-.8 0-1.3-.3-.6-.3-1-.8-.2-.6-.2-1.3v-1.4q0-.8.3-1.3.3-.6.9-.9.5-.3 1.3-.3t1.3.3q.6.3 1 .9.2.5.2 1.2v1.1h-3.7v.4q0 .7.3 1t1 .3l.6-.2q.3-.1.4-.4h1.4q-.2.8-.8 1.2-.7.5-1.7.5m-1.2-3.9v.2h2.4v-.2q0-.6-.3-1-.3-.3-.9-.3t-.9.3q-.3.4-.3 1m7.1 4q-.9 0-1.4-.6-.6-.5-.6-1.4t.6-1.4 1.7-.5h1.5v-.4q0-1-1-1-.6 0-.9.2l-.3.6h-1.3q0-.8.7-1.4.6-.5 1.7-.5 1.2 0 1.8.6.7.5.7 1.5v4.1h-1.4v-1.1q0 .6-.5.9t-1.3.3zm.5-1.2q.6 0 1-.3.3-.3.3-.8v-.7h-1.4q-.5 0-.7.2-.3.3-.3.7t.3.6q.3.3.8.3m7.4 1q-.8 0-1.3-.5t-.5-1.3v-3h-1.7v-1.3h1.7v-1.7h1.3v1.7h2.5v1.3h-2.5v3l.2.4q.1.2.4.2h1.8v1.2Zm6 .1q-.8 0-1.3-.3-.6-.3-1-.8-.2-.6-.2-1.3v-1.4q0-.8.3-1.3.3-.6.9-.9.5-.3 1.3-.3t1.3.3q.6.3 1 .9.2.5.2 1.2v1.1h-3.7v.4q0 .7.3 1t1 .3l.6-.2q.3-.1.4-.4h1.4q-.2.8-.8 1.2-.7.5-1.7.5m-1.2-3.9v.2h2.4v-.2q0-.6-.3-1-.3-.3-.9-.3t-.9.3q-.3.4-.3 1m7.3 4q-1 0-1.5-.7-.5-.6-.5-1.7v-1.6q0-1.1.5-1.7.6-.7 1.5-.7.6 0 1 .4.4.3.6.9V255h1.4v8H529v-1.1q-.2.6-.6.9t-1 .3zm.5-1.3q.5 0 .8-.3t.3-.9v-1.5q0-.5-.3-.9-.3-.3-.8-.3-.6 0-.9.3-.2.3-.2.9v1.6q0 .6.2.8.3.3.9.3" aria-label="created" clip-path="url(#clipPath2)" font-weight="700" transform="translate(10 10)"/><path d="M543 263v-8h2.1q.8 0 1.4.3t.9.8q.3.6.3 1.3v3.2q0 .7-.3 1.2-.3.6-1 .9-.5.3-1.3.3zm1-1h1.1q.7 0 1.1-.4t.4-1v-3.2q0-.7-.4-1-.4-.5-1-.5H544zm5.1 1 2-8h1.5l2 8h-1l-.5-2h-2.4l-.5 2zm1.8-3h2l-.6-2.4-.3-1.1-.1-.6-.1.6-.3 1.1zm7 3v-7h-2.1v-1h5.4v1h-2.1v7Zm5 0v-8h4.6v1H564v2.3h3.3v1H564v2.7h3.6v1Zm8.3 0v-7H569v-1h5.4v1h-2.1v7Zm5 0v-1h1.6v-6H576v-1h4.4v1h-1.6v6h1.6v1Zm6.1 0v-8h1.6l1 3.4 1-3.4h1.6v8h-1v-7.7l-1.2 4.1h-.9l-1.2-4 .1 1.8v5.8Zm7 0v-8h4.6v1h-3.6v2.3h3.3v1h-3.3v2.7h3.6v1Z" aria-label="DATETIME" clip-path="url(#clipPath2)" transform="translate(10 10)"/><path d="M488.3 283.1q-1.2 0-1.8-.6-.7-.7-.7-1.8V277h1.4v3.7q0 .6.3.9t.8.3.8-.3.3-.9V277h1.4v3.7q0 1.1-.7 1.8-.7.6-1.8.6m4.1 1.9v-8h1.4v1q.2-.5.6-.8.4-.4 1-.4t1 .3q.5.3.8.8.2.6.2 1.3v1.6q0 1-.5 1.7-.6.6-1.4.6-.7 0-1.1-.3-.5-.3-.6-1v3.2zm2.5-3q.6 0 .8-.4.3-.2.3-.8v-1.6q0-.6-.3-.9-.2-.3-.8-.3-.5 0-.8.3-.3.4-.3 1v1.4q0 .6.3.9t.8.3zm6 1.1q-.8 0-1.4-.6-.5-.6-.5-1.7v-1.6q0-1.1.5-1.7.6-.7 1.5-.7.6 0 1 .4.4.3.6.9V275h1.4v8h-1.4v-1.1q-.2.6-.6.9t-1 .3zm.6-1.2q.5 0 .8-.3t.3-.9v-1.5q0-.5-.3-.9-.3-.3-.8-.3-.6 0-.9.3-.2.3-.2.9v1.6q0 .6.2.8.3.3.9.3m6 1.2q-1 0-1.5-.5-.6-.5-.6-1.4t.6-1.4 1.7-.5h1.5v-.4q0-1-1-1-.6 0-.9.2l-.3.6h-1.3q0-.8.7-1.4.6-.5 1.7-.5 1.2 0 1.8.6.7.5.7 1.5v4.1h-1.4v-1.1q0 .6-.5.9t-1.3.3zm.4-1.1q.6 0 1-.3.3-.3.3-.8v-.7h-1.4q-.5 0-.7.2-.3.3-.3.7t.3.6q.3.3.8.3m7.4 1q-.8 0-1.3-.5t-.5-1.3v-3h-1.7v-1.3h1.7v-1.7h1.3v1.8h2.5v1.2h-2.5v3l.2.4q.1.2.4.2h1.8v1.2Zm6 .1q-.8 0-1.3-.3-.6-.3-1-.8-.2-.6-.2-1.3v-1.4q0-.8.3-1.3.3-.6.9-.9.5-.3 1.3-.3t1.3.3q.6.3 1 .9.2.5.2 1.2v1.1h-3.7v.4q0 .7.3 1t1 .3l.6-.2q.3-.1.4-.4h1.4q-.2.8-.8 1.2-.7.5-1.7.5m-1.2-3.9v.2h2.4v-.2q0-.6-.3-1-.3-.3-.9-.3t-.9.3q-.3.4-.3 1m7.3 4q-1 0-1.5-.7-.5-.6-.5-1.7v-1.6q0-1.1.5-1.7.6-.7 1.5-.7.6 0 1 .4.4.3.6.9V275h1.4v8H529v-1.1q-.2.6-.6.9t-1 .3zm.5-1.3q.5 0 .8-.3t.3-.9v-1.5q0-.5-.3-.9-.3-.3-.8-.3-.6 0-.9.3-.2.3-.2.9v1.6q0 .6.2.8.3.3.9.3" aria-label="updated" clip-path="url(#clipPath2)" font-weight="700" transform="translate(10 10)"/><path d="M543 283v-8h2.1q.8 0 1.4.3t.9.8q.3.6.3 1.3v3.2q0 .7-.3 1.2-.3.6-1 .9-.5.3-1.3.3zm1-1h1.1q.7 0 1.1-.4t.4-1v-3.2q0-.7-.4-1-.4-.5-1-.5H544zm5.1 1 2-8h1.5l2 8h-1l-.5-2h-2.4l-.5 2zm1.8-3h2l-.6-2.4-.3-1.1-.1-.6-.1.6-.3 1.1zm7 3v-7h-2.1v-1h5.4v1h-2.1v7Zm5 0v-8h4.6v1H564v2.3h3.3v1H564v2.7h3.6v1Zm8.3 0v-7H569v-1h5.4v1h-2.1v7Zm5 0v-1h1.6v-6H576v-1h4.4v1h-1.6v6h1.6v1Zm6.1 0v-8h1.6l1 3.4 1-3.4h1.6v8h-1v-7.7l-1.2 4.1h-.9l-1.2-4 .1 1.8v5.8Zm7 0v-8h4.6v1h-3.6v2.3h3.3v1h-3.3v2.7h3.6v1Z" aria-label="DATETIME" clip-path="url(#clipPath2)" transform="translate(10 10)"/></g><path fill="#FFC" d="M229 194h169v153H229z" clip-path="url(#clipPath2)" transform="translate(10 10)" stroke="none"/><g fill="gray" stroke="gray" stroke-linecap="butt" stroke-miterlimit="1.4"><path fill="none" d="M229 194h169v153H229z" clip-path="url(#clipPath2)" transform="translate(10 10)"/><path fill="#000" d="M289 212v-7.7h-2.4v-1h6v1h-2.4v7.7Zm7.2.1q-1 0-1.6-.5-.6-.6-.6-1.5 0-1 .6-1.5.6-.6 1.6-.6h2v-.5q0-1.2-1.4-1.2-.6 0-1 .2-.3.2-.3.6h-1.2q0-.8.7-1.3t1.8-.5q1.2 0 1.9.6.6.5.6 1.6v4.5h-1.1v-1.2q-.1.6-.7 1-.5.3-1.3.3m.3-1q.8 0 1.2-.3.5-.4.5-1v-1h-1.9q-.5 0-.8.4-.3.3-.3.8t.3.8q.4.3 1 .3m7.2 1q-1 0-1.7-.5-.6-.5-.6-1.4h1.1q0 .4.3.7.4.2 1 .2h.5q.6 0 .9-.3.3-.2.3-.7 0-.8-.8-.9l-1.8-.2q-.7-.1-1-.6-.5-.5-.5-1.2 0-1 .6-1.4.6-.5 1.7-.5h.6q1 0 1.6.5t.6 1.3h-1.2q0-.4-.3-.6t-.7-.2h-.6q-.5 0-.8.2-.3.3-.3.7 0 .6.7.7l1.6.2q1.7.3 1.7 2 0 1-.6 1.5t-1.7.5zm5-.1v-8.8h1.2v4.9h1.2l1.8-2.7h1.3l-2 3.2 2.1 3.4H313l-1.9-2.9H310v2.9Zm7.2 0v-8.8h5.2v1.1h-4v2.8h3.7v1h-3.7v3.9Zm7.1 0v-1h2.3v-4.5h-2v-1.1h3.2v5.5h2.2v1.1Zm2.8-7.8q-.4 0-.7-.2-.2-.2-.2-.5 0-.4.2-.6.3-.2.7-.2t.6.2q.3.2.3.6 0 .3-.3.5-.2.2-.6.2m8 7.8q-1 0-1.5-.5-.5-.6-.5-1.4v-5.8h-2.3v-1h3.5v6.8q0 .4.2.6t.6.2h2v1.1Zm6.2.1q-1.2 0-2-.7-.6-.7-.6-2V208q0-1.2.7-2 .7-.6 1.9-.6.8 0 1.4.3t.9.9.3 1.3v1.2h-4v.6q0 .7.3 1.1.4.4 1.1.4.6 0 1-.2.3-.2.4-.6h1.2q-.1.8-.8 1.3-.8.5-1.8.5zm-1.5-4.3v.3h3v-.3q0-.7-.4-1.2-.4-.4-1.1-.4t-1 .4q-.5.5-.5 1.2" aria-label="TaskFile" clip-path="url(#clipPath2)" font-family="JetBrains Mono Medium" transform="translate(10 10)" stroke="none"/><path fill="none" stroke-linecap="square" stroke-miterlimit="10" d="M230 219h167" clip-path="url(#clipPath2)" transform="translate(10 10)"/></g><path fill="none" stroke="#6e6e6e" stroke-linecap="round" stroke-linejoin="round" stroke-miterlimit="4" stroke-width="1.4" d="M251.4 234.1h2.8l3.5 3.5v2.8l-2.1 2.1h-2.8l-3.5-3.5v-2.8zm1.4 2.8 2.1 2.1m-5.6.7-4.9 4.9v2.1l.7.7h2.8v-2.1h2.1v-2.1h1.4l.7-.7" clip-path="url(#clipPath4)" image-rendering="optimizeQuality"/><path d="M257.6 237.1q-.9 0-1.4-.5-.6-.5-.6-1.4t.6-1.4 1.7-.5h1.5v-.4q0-1-1-1-.6 0-.9.2l-.3.6H256q0-.8.7-1.4.6-.5 1.7-.5 1.2 0 1.8.6.7.5.7 1.5v4.1h-1.4v-1.1q0 .5-.5.9-.5.3-1.3.3zm.5-1.1q.6 0 1-.3.3-.3.3-.8v-.7H258q-.5 0-.7.2-.3.3-.3.7t.3.6q.3.3.8.3m4.3 1v-1.2h2.1v-3.6h-1.8V231h3.2v4.8h1.8v1.2Zm2.7-7q-.4 0-.7-.3-.2-.2-.2-.6 0-.3.2-.5.3-.2.7-.2t.7.2q.2.2.2.5 0 .4-.2.6-.3.2-.7.2zm5.9 7.1q-1 0-1.5-.6t-.5-1.7v-1.6q0-1.1.5-1.7.6-.7 1.5-.7.6 0 1 .4.4.3.6.8v-3h1.4v8h-1.4v-1.1q-.2.6-.6.9t-1 .3m.5-1.2q.5 0 .8-.3t.3-.9v-1.5q0-.5-.3-.9-.3-.3-.8-.3-.6 0-.9.3-.2.3-.2.9v1.6q0 .6.2.8.3.3.9.3" aria-label="aid" clip-path="url(#clipPath2)" font-family="JetBrains Mono Medium" font-size="11" font-weight="700" transform="translate(10 10)" stroke="none"/><path d="M314.1 237v-1h1.6v-6h-1.6v-1h4.4v1h-1.7v6h1.7v1Zm6.4 0v-8h1.5l2.4 6.7-.1-.7v-6h1v8h-1.5l-2.3-6.8v6.8Zm8.5 0v-7h-2.2v-1h5.4v1h-2.1v7Zm4.9 0v-8h4.6v1H335v2.3h3.3v1H335v2.7h3.6v1Zm8.8.1q-1 0-1.7-.6t-.7-1.7v-3.6q0-1.1.7-1.7.6-.6 1.7-.6t1.8.6.7 1.7H344q0-.7-.4-1-.3-.4-1-.4-.6 0-1 .4-.3.3-.3 1v3.6q0 .6.4 1 .3.3 1 .3.6 0 1-.3.3-.4.3-1v-1h-1.6v-1h2.7v2q0 1-.7 1.7-.7.6-1.8.6zm4.4-.1v-8h4.6v1h-3.6v2.3h3.3v1H348v2.7h3.6v1Zm6.5 0v-8h2.5q.7 0 1.3.3.5.3.8.8t.3 1.2q0 .8-.4 1.4t-1 .8l1.5 3.5h-1.2l-1.5-3.4h-1.2v3.4Zm1-4.3h1.5q.6 0 1-.4.3-.4.3-1t-.4-1q-.3-.4-1-.4h-1.3z" aria-label="INTEGER" clip-path="url(#clipPath2)" font-family="JetBrains Mono Medium" font-size="11" transform="translate(10 10)" stroke="none"/><path fill="none" stroke="#6e6e6e" stroke-linecap="round" stroke-linejoin="round" stroke-miterlimit="4" stroke-width="1.4" d="M391.9 236.9h7v7m-7 0 7-7" clip-path="url(#clipPath6)" image-rendering="optimizeQuality"/><path d="M255.8 257v-6h1.4v1q.1-.5.5-.8.5-.4 1.1-.4 1 0 1.4.6.6.6.6 1.6v4h-1.4v-3.8q0-.6-.3-.9t-.8-.3-.8.3-.3 1v3.7Zm8.4.1q-.9 0-1.4-.5-.6-.5-.6-1.4t.6-1.4 1.7-.5h1.5v-.4q0-1-1-1-.6 0-.9.2l-.3.6h-1.3q0-.8.7-1.4.6-.5 1.7-.5 1.2 0 1.8.6.7.5.7 1.5v4.1H266v-1.1q0 .5-.5.9-.5.3-1.3.3m.5-1.1q.6 0 1-.3.3-.3.3-.8v-.7h-1.4q-.5 0-.7.2-.3.3-.3.7t.3.6q.3.3.8.3m4 1v-6h1.2v.8q0-.4.3-.7t.7-.3.7.3.4.7q0-.4.3-.7t.7-.3q.6 0 1 .5.3.4.3 1v4.7H273v-4.5q0-.3-.2-.5l-.4-.1q-.4 0-.4.6v4.5h-1v-4.5q0-.3-.2-.5l-.3-.1q-.6 0-.6.6v4.5Zm9.4.1q-.8 0-1.3-.3-.6-.3-1-.8-.2-.6-.2-1.3v-1.4q0-.8.3-1.3.3-.6.9-.9.5-.3 1.3-.3t1.3.3q.6.3 1 .9.2.5.2 1.2v1.1H277v.4q0 .6.3 1 .3.3 1 .3l.6-.2q.3-.1.4-.4h1.4q-.2.8-.8 1.2-.7.5-1.7.5zm-1.2-3.9v.2h2.4v-.2q0-.6-.3-1-.3-.3-.9-.3t-.9.3q-.3.4-.3 1" aria-label="name" clip-path="url(#clipPath2)" font-family="JetBrains Mono Medium" font-size="11" font-weight="700" transform="translate(10 10)" stroke="none"/><g stroke="none" stroke-linecap="butt" stroke-miterlimit="1.4" font-family="'JetBrains Mono Medium'" font-size="11"><path d="M315.8 257v-7h-2.2v-1h5.4v1h-2v7Zm4.9 0v-8h4.6v1h-3.6v2.3h3.3v1h-3.3v2.7h3.6v1Zm6 0 2.2-4-2.2-4h1.3l1.2 2.3.2.4.1.3.2-.3.2-.4 1.2-2.3h1.2l-2.2 3.9 2.3 4.1h-1.2l-1.4-2.5-.2-.4-.1-.3-.2.3-.2.4-1.3 2.5zm8.9 0v-7h-2.2v-1h5.4v1h-2.1v7Z" aria-label="TEXT" clip-path="url(#clipPath2)" transform="translate(10 10)"/><path d="M255.5 278v-6h1.2v.8q0-.4.3-.7t.7-.3.7.3.4.7q0-.4.3-.7t.7-.3q.6 0 1 .5.3.4.3 1v4.7h-1.2v-4.5q0-.3-.2-.5l-.4-.1q-.4 0-.4.6v4.5h-1.1v-4.5q0-.3-.2-.5l-.3-.1q-.6 0-.6.6v4.5Zm7 0v-1.2h2v-3.6h-1.8v-1.3h3.2v4.9h1.8v1.2Zm2.6-7q-.4 0-.7-.3-.2-.2-.2-.6 0-.3.2-.5.3-.2.7-.2t.7.2q.2.2.2.5 0 .4-.2.6-.3.2-.7.2zm3.6 7v-6h1.2v.8q0-.4.3-.7t.7-.3.7.3.4.7q0-.4.3-.7t.7-.3q.6 0 1 .5.3.4.3 1v4.7H273v-4.5q0-.3-.2-.5l-.4-.1q-.4 0-.4.6v4.5h-1v-4.5q0-.3-.2-.5l-.3-.1q-.6 0-.6.6v4.5Zm9.4.1q-.8 0-1.3-.3-.6-.3-1-.8-.2-.6-.2-1.3v-1.4q0-.8.3-1.3.3-.6.9-.9.5-.3 1.3-.3t1.3.3q.6.3 1 .9.2.5.2 1.2v1.1H277v.4q0 .7.3 1t1 .3l.6-.2q.3-.1.4-.4h1.4q-.2.8-.8 1.2-.7.5-1.7.5zm-1.2-3.9v.2h2.4v-.2q0-.6-.3-1-.3-.3-.9-.3t-.9.3q-.3.4-.3 1" aria-label="mime" clip-path="url(#clipPath2)" font-weight="700" transform="translate(10 10)"/><path d="M315.8 278v-7h-2.2v-1h5.4v1h-2v7Zm4.9 0v-8h4.6v1h-3.6v2.3h3.3v1h-3.3v2.7h3.6v1Zm6 0 2.2-4-2.2-4h1.3l1.2 2.3.2.4.1.3.2-.3.2-.4 1.2-2.3h1.2l-2.2 3.9 2.3 4.1h-1.2l-1.4-2.5-.2-.4-.1-.3-.2.3-.2.4-1.3 2.5zm8.9 0v-7h-2.2v-1h5.4v1h-2.1v7Z" aria-label="TEXT" clip-path="url(#clipPath2)" transform="translate(10 10)"/><path d="M258.9 298.1q-.7 0-1.1-.3t-.6-.9v1.1h-1.4v-8h1.4v3q.2-.6.6-1 .4-.3 1-.3 1 0 1.5.7.5.6.5 1.7v1.6q0 1-.5 1.7-.6.6-1.5.6zm-.6-1.2q.6 0 .8-.3.3-.2.3-.8v-1.6q0-.6-.3-.9-.2-.3-.8-.3-.5 0-.8.3-.3.4-.3 1v1.4q0 .6.3.9t.8.3m7.6 1.1q-1 0-1.5-.5-.5-.6-.5-1.5v-4.8h-2V290h3.4v6q0 .4.2.6.1.2.5.2h1.7v1.2Zm5.6.1q-1.2 0-1.8-.7-.7-.6-.7-1.7v-1.4q0-1.2.7-1.8.6-.6 1.8-.6t1.8.6q.7.6.7 1.8v1.4q0 1-.7 1.7-.6.7-1.8.7m0-1.2q.6 0 .8-.3.4-.3.4-.9v-1.5q0-.5-.4-.8-.2-.4-.8-.4-.5 0-.9.4-.3.3-.3.8v1.5q0 .6.3.9.4.3.9.3m7.2 1.2q-.7 0-1.1-.3t-.6-.9v1.1h-1.4v-8h1.4v3q.2-.5.6-.8.4-.4 1-.4 1 0 1.5.7.5.6.5 1.7v1.6q0 1-.5 1.7-.6.6-1.4.6m-.6-1.2q.6 0 .8-.3.3-.3.3-.8v-1.6q0-.6-.3-.9-.2-.3-.8-.3-.5 0-.8.3-.3.4-.3 1v1.4q0 .6.3.9t.8.3" aria-label="blob" clip-path="url(#clipPath2)" font-weight="700" transform="translate(10 10)"/><path d="M314 298v-8h2.3q1.1 0 1.7.5.7.6.7 1.5 0 .7-.4 1.2t-1 .6q.5 0 .8.3.4.3.6.7t.2 1q0 1-.7 1.6-.6.6-1.7.6zm1-4.6h1.3q.6 0 1-.4.3-.3.3-.9 0-.5-.3-.8-.4-.4-1-.4H315zm0 3.6h1.4q.6 0 1-.3.4-.4.4-1t-.4-1-1-.4H315zm6 1v-8h1.1v7h3.6v1Zm8.5.1q-1.1 0-1.7-.6-.7-.7-.7-1.8v-3.4q0-1.2.7-1.8.6-.6 1.7-.6t1.7.6q.7.6.7 1.8v3.4q0 1.1-.7 1.8-.6.6-1.7.6m0-1q.6 0 1-.3.3-.4.3-1v-3.6q0-.7-.3-1-.4-.4-1-.4t-1 .4q-.3.3-.3 1v3.6q0 .6.3 1 .4.3 1 .3m4.3.9v-8h2.3q1.1 0 1.7.5.7.6.7 1.5 0 .7-.4 1.2t-1 .6q.5 0 .8.3.4.3.6.7t.2 1q0 1-.7 1.6-.6.6-1.7.6zm1-4.6h1.3q.6 0 1-.4.3-.3.3-.9 0-.5-.3-.8-.4-.4-1-.4h-1.3zm0 3.6h1.4q.6 0 1-.3.4-.4.4-1t-.4-1-1-.4h-1.4z" aria-label="BLOB" clip-path="url(#clipPath2)" transform="translate(10 10)"/><path d="M258.4 319.1q-.8 0-1.4-.3-.5-.3-.9-.8-.3-.5-.3-1.3v-1.5q0-.7.3-1.2.4-.6 1-.9.5-.3 1.3-.3 1.1 0 1.8.6t.7 1.6h-1.3q0-.4-.4-.7-.3-.3-.8-.3-.6 0-.9.3t-.3 1v1.4q0 .6.3.9t.9.3q.5 0 .8-.2.4-.3.4-.8h1.3q0 1-.7 1.6t-1.8.6m4.3-.1v-6h1.3v1.1q.1-.6.5-1 .5-.3 1.2-.3.9 0 1.4.6t.5 1.7v.6h-1.3v-.5q0-.6-.3-.9t-.8-.3q-.6 0-.9.4-.3.3-.3.9v3.7Zm8.8.1q-.8 0-1.3-.3-.6-.3-1-.8-.2-.6-.2-1.3v-1.4q0-.8.3-1.3.3-.6.9-.9.5-.3 1.3-.3t1.3.3q.6.3 1 .9.2.5.2 1.2v1.1h-3.7v.4q0 .7.3 1t1 .3l.6-.2q.3-.1.4-.4h1.4q-.2.8-.8 1.2-.7.5-1.7.5m-1.2-3.9v.2h2.4v-.2q0-.6-.3-1-.3-.3-.9-.3t-.9.3q-.3.4-.3 1m7.1 4q-.9 0-1.4-.6-.6-.5-.6-1.4t.6-1.4 1.7-.5h1.5v-.4q0-1-1-1-.6 0-.9.2l-.3.6h-1.3q0-.8.7-1.4.6-.5 1.7-.5 1.2 0 1.8.6.7.5.7 1.5v4.1h-1.4v-1.1q0 .6-.5.9t-1.3.3zm.5-1.2q.6 0 1-.3.3-.3.3-.8v-.7h-1.4q-.5 0-.7.2-.3.3-.3.7t.3.6q.3.3.8.3m7.4 1q-.8 0-1.3-.5t-.5-1.3v-3h-1.7v-1.3h1.7v-1.7h1.3v1.8h2.5v1.2h-2.5v3l.2.4q.1.2.4.2h1.8v1.2Zm6 .1q-.8 0-1.3-.3-.6-.3-1-.8-.2-.6-.2-1.3v-1.4q0-.8.3-1.3.3-.6.9-.9.5-.3 1.3-.3t1.3.3q.6.3 1 .9.2.5.2 1.2v1.1h-3.7v.4q0 .7.3 1t1 .3l.6-.2q.3-.1.4-.4h1.4q-.2.8-.8 1.2-.7.5-1.7.5m-1.2-3.9v.2h2.4v-.2q0-.6-.3-1-.3-.3-.9-.3t-.9.3q-.3.4-.3 1m7.3 4q-1 0-1.5-.7-.5-.6-.5-1.7v-1.6q0-1.1.5-1.7.6-.7 1.5-.7.6 0 1 .4.4.3.6.9V311h1.4v8H299v-1.1q-.2.6-.6.9t-1 .3zm.5-1.3q.5 0 .8-.3t.3-.9v-1.5q0-.5-.3-.9-.3-.3-.8-.3-.6 0-.9.3-.2.3-.2.9v1.6q0 .6.2.8.3.3.9.3" aria-label="created" clip-path="url(#clipPath2)" font-weight="700" transform="translate(10 10)"/><path d="M314 319v-8h2.1q.8 0 1.4.3t.9.8q.3.6.3 1.3v3.2q0 .7-.3 1.2-.3.6-1 .9-.5.3-1.3.3zm1-1h1.1q.7 0 1.1-.4t.4-1v-3.2q0-.7-.4-1-.4-.5-1-.5H315zm5.1 1 2-8h1.5l2 8h-1l-.5-2h-2.4l-.5 2zm1.8-3h2l-.6-2.4-.3-1.1-.1-.6-.1.6-.3 1.1zm7 3v-7h-2.1v-1h5.4v1h-2.1v7Zm5 0v-8h4.6v1H335v2.3h3.3v1H335v2.7h3.6v1Zm8.3 0v-7H340v-1h5.4v1h-2.1v7Zm5 0v-1h1.6v-6H347v-1h4.4v1h-1.6v6h1.6v1Zm6.1 0v-8h1.6l1 3.4 1-3.4h1.6v8h-1v-7.7l-1.2 4.1h-.9l-1.2-4 .1 1.8v5.8Zm7 0v-8h4.6v1h-3.6v2.3h3.3v1h-3.3v2.7h3.6v1Z" aria-label="DATETIME" clip-path="url(#clipPath2)" transform="translate(10 10)"/><path d="M258.3 339.1q-1.2 0-1.8-.6-.7-.7-.7-1.8V333h1.4v3.7q0 .6.3.9t.8.3.8-.3.3-.9V333h1.4v3.7q0 1.1-.7 1.8-.7.6-1.8.6m4.1 1.9v-8h1.4v1q.2-.5.6-.8.4-.4 1-.4t1 .3q.5.3.8.8.2.6.2 1.3v1.6q0 1-.5 1.7-.6.6-1.4.6-.7 0-1.1-.3-.5-.3-.6-1v3.2zm2.5-3q.6 0 .8-.4.3-.2.3-.8v-1.6q0-.6-.3-.9-.2-.3-.8-.3-.5 0-.8.3-.3.4-.3 1v1.4q0 .6.3.9t.8.3zm6 1.1q-.8 0-1.4-.6-.5-.6-.5-1.7v-1.6q0-1.1.5-1.7.6-.7 1.5-.7.6 0 1 .4.4.3.6.9V331h1.4v8h-1.4v-1.1q-.2.6-.6.9t-1 .3zm.6-1.2q.5 0 .8-.3t.3-.9v-1.5q0-.5-.3-.9-.3-.3-.8-.3-.6 0-.9.3-.2.3-.2.9v1.6q0 .6.2.8.3.3.9.3m6 1.2q-1 0-1.5-.5-.6-.5-.6-1.4t.6-1.4 1.7-.5h1.5v-.4q0-1-1-1-.6 0-.9.2l-.3.6h-1.3q0-.8.7-1.4.6-.5 1.7-.5 1.2 0 1.8.6.7.5.7 1.5v4.1h-1.4v-1.1q0 .6-.5.9t-1.3.3zm.4-1.1q.6 0 1-.3.3-.3.3-.8v-.7h-1.4q-.5 0-.7.2-.3.3-.3.7t.3.6q.3.3.8.3m7.4 1q-.8 0-1.3-.5t-.5-1.3v-3h-1.7v-1.3h1.7v-1.7h1.3v1.8h2.5v1.2h-2.5v3l.2.4q.1.2.4.2h1.8v1.2Zm6 .1q-.8 0-1.3-.3-.6-.3-1-.8-.2-.6-.2-1.3v-1.4q0-.8.3-1.3.3-.6.9-.9.5-.3 1.3-.3t1.3.3q.6.3 1 .9.2.5.2 1.2v1.1h-3.7v.4q0 .7.3 1t1 .3l.6-.2q.3-.1.4-.4h1.4q-.2.8-.8 1.2-.7.5-1.7.5m-1.2-3.9v.2h2.4v-.2q0-.6-.3-1-.3-.3-.9-.3t-.9.3q-.3.4-.3 1m7.3 4q-1 0-1.5-.7-.5-.6-.5-1.7v-1.6q0-1.1.5-1.7.6-.7 1.5-.7.6 0 1 .4.4.3.6.9V331h1.4v8H299v-1.1q-.2.6-.6.9t-1 .3zm.5-1.3q.5 0 .8-.3t.3-.9v-1.5q0-.5-.3-.9-.3-.3-.8-.3-.6 0-.9.3-.2.3-.2.9v1.6q0 .6.2.8.3.3.9.3" aria-label="updated" clip-path="url(#clipPath2)" font-weight="700" transform="translate(10 10)"/><path d="M314 339v-8h2.1q.8 0 1.4.3t.9.8q.3.6.3 1.3v3.2q0 .7-.3 1.2-.3.6-1 .9-.5.3-1.3.3zm1-1h1.1q.7 0 1.1-.4t.4-1v-3.2q0-.7-.4-1-.4-.5-1-.5H315zm5.1 1 2-8h1.5l2 8h-1l-.5-2h-2.4l-.5 2zm1.8-3h2l-.6-2.4-.3-1.1-.1-.6-.1.6-.3 1.1zm7 3v-7h-2.1v-1h5.4v1h-2.1v7Zm5 0v-8h4.6v1H335v2.3h3.3v1H335v2.7h3.6v1Zm8.3 0v-7H340v-1h5.4v1h-2.1v7Zm5 0v-1h1.6v-6H347v-1h4.4v1h-1.6v6h1.6v1Zm6.1 0v-8h1.6l1 3.4 1-3.4h1.6v8h-1v-7.7l-1.2 4.1h-.9l-1.2-4 .1 1.8v5.8Zm7 0v-8h4.6v1h-3.6v2.3h3.3v1h-3.3v2.7h3.6v1Z" aria-label="DATETIME" clip-path="url(#clipPath2)" transform="translate(10 10)"/></g><path fill="#FFC" d="M229 0h169v174H229z" clip-path="url(#clipPath2)" transform="translate(10 10)" stroke="none"/><g fill="gray" stroke="gray" stroke-linecap="butt" stroke-miterlimit="1.4"><path fill="none" d="M229 0h169v174H229z" clip-path="url(#clipPath2)" transform="translate(10 10)"/><path fill="#000" d="m301.2 18-1-8.8h1l.7 6.4v.9l.1.7.1-.7.1-.9.8-6.4h1.2l.8 6.4v.9l.2.7v-1.6l.8-6.4h1l-1 8.8h-1.5l-.8-6.5V10l-.1.7-.1.8-.8 6.5Zm9.6.1q-1.2 0-2-.7-.6-.7-.6-2V14q0-1.2.7-1.9t1.9-.7 2 .7q.6.7.6 2v1.5q0 1.2-.7 1.9t-1.9.7zm0-1q.7 0 1-.4.5-.4.5-1.1v-1.8q0-.7-.4-1-.4-.5-1.1-.5t-1 .4q-.5.4-.5 1.1v1.8q0 .7.4 1 .4.5 1.1.5m4.9.9v-6.6h1.2v1.3q0-.7.5-1 .5-.4 1.3-.4 1 0 1.6.6.5.6.5 1.8v.6h-1.2v-.6q0-1.4-1.3-1.4-.7 0-1 .4-.4.4-.4 1.1V18Zm7 0V9.2h1.2v4.9h1.2l1.8-2.7h1.3l-2 3.2 2.1 3.4H327l-1.9-2.9H324V18Z" aria-label="Work" clip-path="url(#clipPath2)" font-family="JetBrains Mono Medium" transform="translate(10 10)" stroke="none"/><path fill="none" stroke-linecap="square" stroke-miterlimit="10" d="M230 25h167" clip-path="url(#clipPath2)" transform="translate(10 10)"/></g><path fill="none" stroke="#6e6e6e" stroke-linecap="round" stroke-linejoin="round" stroke-miterlimit="4" stroke-width="1.4" d="M251.4 41.1h2.8l3.5 3.5v2.8l-2.1 2.1h-2.8l-3.5-3.5v-2.8zm1.4 2.8 2.1 2.1m-5.6.7-4.9 4.9v2.1l.7.7h2.8v-2.1h2.1v-2.1h1.4l.7-.7" clip-path="url(#clipPath4)" image-rendering="optimizeQuality"/><path d="M258 43.1q-1 0-1.7-.5-.6-.5-.6-1.3h1.4q0 .3.2.5.3.2.7.2h.5q.5 0 .8-.2t.3-.5-.2-.5-.6-.2l-1.5-.2q-.7-.1-1.1-.6-.4-.4-.4-1.2t.6-1.3q.5-.4 1.6-.4h.5q1 0 1.6.4.7.5.7 1.2h-1.4l-.2-.4q-.3-.2-.7-.2h-.5q-.4 0-.7.2-.2.2-.2.5t.2.4l.5.2 1.4.2q.8 0 1.3.6.4.4.4 1.3 0 .8-.6 1.3t-1.8.5zm4.4-.1v-1.2h2.1v-3.6h-1.8v-1.3h3.2v4.9h1.8V43Zm2.7-7q-.4 0-.7-.3-.2-.2-.2-.6 0-.3.2-.5.3-.2.7-.2t.7.2q.2.2.2.5 0 .4-.2.6-.3.2-.7.2zm5.9 7q-1 0-1.5-.6t-.5-1.7v-1.6q0-1.1.5-1.7.6-.7 1.5-.7.6 0 1 .4.4.3.6.8v-3h1.4v8h-1.4v-1.1q-.2.6-.6.9t-1 .3m.5-1.2q.5 0 .8-.3t.3-.9v-1.5q0-.5-.3-.9-.3-.3-.8-.3-.6 0-.9.3-.2.3-.2.9v1.6q0 .5.2.8.3.3.9.3" aria-label="sid" clip-path="url(#clipPath2)" font-family="JetBrains Mono Medium" font-size="11" font-weight="700" transform="translate(10 10)" stroke="none"/><g stroke="none" stroke-linecap="butt" stroke-miterlimit="1.4" font-family="'JetBrains Mono Medium'" font-size="11"><path d="M314.1 43v-1h1.6v-6h-1.6v-1h4.4v1h-1.7v6h1.7v1Zm6.4 0v-8h1.5l2.4 6.7-.1-.7v-6h1v8h-1.5l-2.3-6.8V43Zm8.5 0v-7h-2.2v-1h5.4v1h-2.1v7Zm4.9 0v-8h4.6v1H335v2.3h3.3v1H335V42h3.6v1Zm8.8.1q-1 0-1.7-.6t-.7-1.7v-3.6q0-1.1.7-1.7.6-.6 1.7-.6t1.8.6.7 1.7H344q0-.7-.4-1-.3-.4-1-.4-.6 0-1 .4-.3.3-.3 1v3.6q0 .6.4 1 .3.3 1 .3.6 0 1-.3.3-.4.3-1v-1h-1.6v-1h2.7v2q0 1-.7 1.7-.7.6-1.8.6zm4.4-.1v-8h4.6v1h-3.6v2.3h3.3v1H348V42h3.6v1Zm6.5 0v-8h2.5q.7 0 1.3.3.5.3.8.8t.3 1.2q0 .8-.4 1.4t-1 .8l1.5 3.5h-1.2l-1.5-3.4h-1.2V43Zm1-4.3h1.5q.6 0 1-.4.3-.4.3-1t-.4-1q-.3-.4-1-.4h-1.3z" aria-label="INTEGER" clip-path="url(#clipPath2)" transform="translate(10 10)"/><path d="M258.3 64.1q-1.2 0-1.8-.6-.7-.7-.7-1.8V58h1.4v3.8q0 .6.3.9t.8.3.8-.3.3-.9V58h1.4v3.8q0 1.1-.7 1.8-.7.6-1.8.6zm4.1-.1v-1.2h2.1v-3.6h-1.8v-1.3h3.2v4.9h1.8V64Zm2.7-7q-.4 0-.7-.3-.2-.2-.2-.6 0-.3.2-.5.3-.2.7-.2t.7.2q.2.2.2.5 0 .4-.2.6-.3.2-.7.2zm5.9 7q-1 0-1.5-.6t-.5-1.7v-1.6q0-1.1.5-1.7.6-.7 1.5-.7.6 0 1 .4.4.3.6.8v-3h1.4v8h-1.4v-1.1q-.2.6-.6.9t-1 .3m.5-1.2q.5 0 .8-.3t.3-.9v-1.5q0-.5-.3-.9-.3-.3-.8-.3-.6 0-.9.3-.2.3-.2.9v1.6q0 .5.2.8.3.3.9.3" aria-label="uid" clip-path="url(#clipPath2)" font-weight="700" transform="translate(10 10)"/><path d="M314.1 64v-1h1.6v-6h-1.6v-1h4.4v1h-1.7v6h1.7v1Zm6.4 0v-8h1.5l2.4 6.7-.1-.7v-6h1v8h-1.5l-2.3-6.8V64Zm8.5 0v-7h-2.2v-1h5.4v1h-2.1v7Zm4.9 0v-8h4.6v1H335v2.3h3.3v1H335V63h3.6v1Zm8.8.1q-1 0-1.7-.6t-.7-1.7v-3.6q0-1.1.7-1.7.6-.6 1.7-.6t1.8.6.7 1.7H344q0-.7-.4-1-.3-.4-1-.4-.6 0-1 .4-.3.3-.3 1v3.6q0 .6.4 1 .3.3 1 .3.6 0 1-.3.3-.4.3-1v-1h-1.6v-1h2.7v2q0 1-.7 1.7-.7.6-1.8.6zm4.4-.1v-8h4.6v1h-3.6v2.3h3.3v1H348V63h3.6v1Zm6.5 0v-8h2.5q.7 0 1.3.3.5.3.8.8t.3 1.2q0 .8-.4 1.4t-1 .8l1.5 3.5h-1.2l-1.5-3.4h-1.2V64Zm1-4.3h1.5q.6 0 1-.4.3-.4.3-1t-.4-1q-.3-.4-1-.4h-1.3z" aria-label="INTEGER" clip-path="url(#clipPath2)" transform="translate(10 10)"/></g><path fill="none" stroke="#6e6e6e" stroke-linecap="round" stroke-linejoin="round" stroke-miterlimit="4" stroke-width="1.4" d="M391.9 63.9h7v7m-7 0 7-7" clip-path="url(#clipPath6)" image-rendering="optimizeQuality"/><path d="M257.6 84.1q-.9 0-1.4-.5-.6-.5-.6-1.4t.6-1.4 1.7-.5h1.5v-.4q0-1-1-1-.6 0-.9.2l-.3.6H256q0-.8.7-1.4.6-.5 1.7-.5 1.2 0 1.8.6.7.5.7 1.5V84h-1.4v-1.1q0 .5-.5.9-.5.3-1.3.3zm.5-1.1q.6 0 1-.3.3-.3.3-.8v-.7H258q-.5 0-.7.2-.3.3-.3.7t.3.6q.3.3.8.3m4.3 1v-1.2h2.1v-3.6h-1.8v-1.3h3.2v4.9h1.8V84Zm2.7-7q-.4 0-.7-.3-.2-.2-.2-.6 0-.3.2-.5.3-.2.7-.2t.7.2q.2.2.2.5 0 .4-.2.6-.3.2-.7.2zm5.9 7q-1 0-1.5-.6t-.5-1.7v-1.6q0-1.1.5-1.7.6-.7 1.5-.7.6 0 1 .4.4.3.6.9v-3h1.4v8h-1.4v-1.1q-.2.6-.6.9t-1 .3zm.5-1.2q.5 0 .8-.3t.3-.9v-1.5q0-.5-.3-.9-.3-.3-.8-.3-.6 0-.9.3-.2.3-.2.9v1.6q0 .5.2.8.3.3.9.3" aria-label="aid" clip-path="url(#clipPath2)" font-family="JetBrains Mono Medium" font-size="11" font-weight="700" transform="translate(10 10)" stroke="none"/><path d="M314.1 84v-1h1.6v-6h-1.6v-1h4.4v1h-1.7v6h1.7v1Zm6.4 0v-8h1.5l2.4 6.7-.1-.7v-6h1v8h-1.5l-2.3-6.8V84Zm8.5 0v-7h-2.2v-1h5.4v1h-2.1v7Zm4.9 0v-8h4.6v1H335v2.3h3.3v1H335V83h3.6v1Zm8.8.1q-1 0-1.7-.6t-.7-1.7v-3.6q0-1.1.7-1.7.6-.6 1.7-.6t1.8.6.7 1.7H344q0-.7-.4-1-.3-.4-1-.4-.6 0-1 .4-.3.3-.3 1v3.6q0 .6.4 1 .3.3 1 .3.6 0 1-.3.3-.4.3-1v-1h-1.6v-1h2.7v2q0 1-.7 1.7-.7.6-1.8.6zm4.4-.1v-8h4.6v1h-3.6v2.3h3.3v1H348V83h3.6v1Zm6.5 0v-8h2.5q.7 0 1.3.3.5.3.8.8t.3 1.2q0 .8-.4 1.4t-1 .8l1.5 3.5h-1.2l-1.5-3.4h-1.2V84Zm1-4.3h1.5q.6 0 1-.4.3-.4.3-1t-.4-1q-.3-.4-1-.4h-1.3z" aria-label="INTEGER" clip-path="url(#clipPath2)" font-family="JetBrains Mono Medium" font-size="11" transform="translate(10 10)" stroke="none"/><path fill="none" stroke="#6e6e6e" stroke-linecap="round" stroke-linejoin="round" stroke-miterlimit="4" stroke-width="1.4" d="M391.9 84.9h7v7m-7 0 7-7" clip-path="url(#clipPath6)" image-rendering="optimizeQuality"/><path d="M257.8 105.1q-1 0-1.5-.6t-.5-1.7v-1.6q0-1.1.5-1.7.6-.7 1.4-.7.7 0 1.1.4.4.3.6.9V97h1.4v8h-1.4v-1.1q-.2.6-.6.9t-1 .3m.5-1.2q.5 0 .8-.3t.3-.9v-1.5q0-.5-.3-.9-.3-.3-.8-.3-.6 0-.9.3-.2.3-.2.9v1.6q0 .5.2.8.3.3.9.3m6.6 1.2q-1.2 0-1.8-.6-.7-.7-.7-1.8v-1.4q0-1.2.7-1.8.6-.6 1.8-.6t1.8.6q.7.6.7 1.8v1.4q0 1-.7 1.7-.6.7-1.8.7m0-1.2q.6 0 .8-.3.4-.3.4-.9v-1.5q0-.5-.4-.8-.3-.3-.8-.3-.6 0-.9.3t-.3.8v1.5q0 .6.3.9t.9.3m4.1 1.1v-6h1.4v1q.1-.5.5-.8.5-.4 1.1-.4 1 0 1.4.6.6.6.6 1.6v4h-1.4v-3.8q0-.6-.3-.9t-.8-.3-.8.3-.3 1v3.7Zm9.1.1q-.8 0-1.3-.3-.6-.3-1-.8-.2-.6-.2-1.3v-1.4q0-.8.3-1.3.3-.6.9-.9.5-.3 1.3-.3t1.3.3q.6.3 1 .9.2.5.2 1.2v1.1H277v.4q0 .6.3 1 .3.3 1 .3l.6-.2q.3-.1.4-.4h1.4q-.2.8-.8 1.2-.7.5-1.7.5zm-1.2-3.9v.2h2.4v-.2q0-.6-.3-1-.3-.3-.9-.3t-.9.3q-.3.4-.3 1" aria-label="done" clip-path="url(#clipPath2)" font-family="JetBrains Mono Medium" font-size="11" font-weight="700" transform="translate(10 10)" stroke="none"/><g stroke="none" stroke-linecap="butt" stroke-miterlimit="1.4" font-family="'JetBrains Mono Medium'" font-size="11"><path d="M314 105v-8h2.3q1.1 0 1.7.5.7.6.7 1.5 0 .7-.4 1.2t-1 .6q.5 0 .8.3.4.3.6.7t.2 1q0 1-.7 1.6-.6.6-1.7.6zm1-4.6h1.3q.6 0 1-.4.3-.3.3-.9 0-.5-.3-.8-.4-.4-1-.4H315zm0 3.6h1.4q.6 0 1-.3.4-.4.4-1t-.4-1-1-.4H315zm7.9 1.1q-1.1 0-1.7-.6-.7-.7-.7-1.8v-3.4q0-1.2.7-1.8.6-.6 1.7-.6t1.7.6q.7.6.7 1.8v3.4q0 1.1-.7 1.8-.6.6-1.7.6m0-1q.6 0 1-.3.3-.4.3-1v-3.6q0-.7-.3-1-.4-.4-1-.4t-1 .4q-.3.3-.3 1v3.6q0 .6.3 1 .4.3 1 .3m6.6 1q-1.1 0-1.7-.6-.7-.7-.7-1.8v-3.4q0-1.2.7-1.8.6-.6 1.7-.6t1.7.6q.7.6.7 1.8v3.4q0 1.1-.7 1.8-.6.6-1.7.6m0-1q.6 0 1-.3.3-.4.3-1v-3.6q0-.7-.3-1-.4-.4-1-.4t-1 .4q-.3.3-.3 1v3.6q0 .6.3 1 .4.3 1 .3m4.7.9v-8h1.1v7h3.6v1Zm6.3 0v-8h4.6v1h-3.6v2.3h3.3v1h-3.3v2.7h3.6v1Zm6 0 2-8h1.5l2 8h-1l-.5-2H348l-.5 2zm1.8-3h2l-.6-2.4-.3-1.1-.1-.6-.1.6-.3 1.1zm5.2 3v-8h1.5l2.4 6.7-.1-.7v-6h1v8h-1.5l-2.3-6.8v6.8Z" aria-label="BOOLEAN" clip-path="url(#clipPath2)" transform="translate(10 10)"/><path d="M258.4 125.1q-.8 0-1.4-.3-.5-.3-.9-.8-.3-.5-.3-1.3v-1.5q0-.7.3-1.2.4-.6 1-.9.5-.3 1.3-.3 1.1 0 1.8.6t.7 1.6h-1.3q0-.4-.4-.7-.3-.3-.8-.3-.6 0-.9.3t-.3.9v1.5q0 .6.3.9t.9.3q.5 0 .8-.2.4-.3.4-.8h1.3q0 1-.7 1.6t-1.8.6m6.5 0q-1.2 0-1.8-.6-.7-.7-.7-1.8v-1.4q0-1.2.7-1.8.6-.6 1.8-.6t1.8.6q.7.6.7 1.8v1.4q0 1-.7 1.7-.6.7-1.8.7m0-1.2q.6 0 .8-.3.4-.3.4-.9v-1.5q0-.5-.4-.8-.3-.3-.8-.3-.6 0-.9.3t-.3.8v1.5q0 .6.3.9t.9.3m3.8 1.1v-6h1.2v.8q0-.4.3-.7t.7-.3.7.3.4.7q0-.4.3-.7t.7-.3q.6 0 1 .5.3.4.3 1v4.7H273v-4.5q0-.3-.2-.5l-.4-.1q-.4 0-.4.6v4.5h-1v-4.5q0-.3-.2-.5l-.3-.1q-.6 0-.6.6v4.5Zm6.6 0v-6h1.2v.8q0-.4.3-.7t.7-.3.7.3.4.7q0-.4.3-.7t.7-.3q.6 0 1 .5.3.4.3 1v4.7h-1.2v-4.5q0-.3-.2-.5l-.4-.1q-.4 0-.4.6v4.5h-1.1v-4.5q0-.3-.2-.5l-.3-.1q-.6 0-.6.6v4.5Z" aria-label="comm" clip-path="url(#clipPath2)" font-weight="700" transform="translate(10 10)"/><path d="M315.8 125v-7h-2.2v-1h5.4v1h-2v7Zm4.9 0v-8h4.6v1h-3.6v2.3h3.3v1h-3.3v2.7h3.6v1Zm6 0 2.2-4-2.2-4h1.3l1.2 2.3.2.4.1.3.2-.3.2-.4 1.2-2.3h1.2l-2.2 3.9 2.3 4.1h-1.2l-1.4-2.5-.2-.4-.1-.3-.2.3-.2.4-1.3 2.5zm8.9 0v-7h-2.2v-1h5.4v1h-2.1v7Z" aria-label="TEXT" clip-path="url(#clipPath2)" transform="translate(10 10)"/><path d="M258.4 146.1q-.8 0-1.4-.3-.5-.3-.9-.8-.3-.5-.3-1.3v-1.5q0-.7.3-1.2.4-.6 1-.9.5-.3 1.3-.3 1.1 0 1.8.6t.7 1.6h-1.3q0-.4-.4-.7-.3-.3-.8-.3-.6 0-.9.3t-.3 1v1.4q0 .6.3.9t.9.3q.5 0 .8-.2.4-.3.4-.8h1.3q0 1-.7 1.6t-1.8.6m4.3-.1v-6h1.3v1.1q.1-.6.5-1 .5-.3 1.2-.3.9 0 1.4.6t.5 1.7v.6h-1.3v-.5q0-.6-.3-.9t-.8-.3q-.6 0-.9.4-.3.3-.3.9v3.7Zm8.8.1q-.8 0-1.3-.3-.6-.3-1-.8-.2-.6-.2-1.3v-1.4q0-.8.3-1.3.3-.6.9-.9.5-.3 1.3-.3t1.3.3q.6.3 1 .9.2.5.2 1.2v1.1h-3.7v.4q0 .6.3 1 .3.3 1 .3l.6-.2q.3-.1.4-.4h1.4q-.2.8-.8 1.2-.7.5-1.7.5m-1.2-3.9v.2h2.4v-.2q0-.6-.3-1-.3-.3-.9-.3t-.9.3q-.3.4-.3 1m7.1 4q-.9 0-1.4-.6-.6-.5-.6-1.4t.6-1.4 1.7-.5h1.5v-.4q0-1-1-1-.6 0-.9.2l-.3.6h-1.3q0-.8.7-1.4.6-.5 1.7-.5 1.2 0 1.8.6.7.5.7 1.5v4.1h-1.4v-1.1q0 .5-.5.9-.5.3-1.3.3zm.5-1.2q.6 0 1-.3.3-.3.3-.8v-.7h-1.4q-.5 0-.7.2-.3.3-.3.7t.3.6q.3.3.8.3m7.4 1q-.8 0-1.3-.5t-.5-1.3v-3h-1.7V140h1.7v-1.8h1.3v1.8h2.5v1.2h-2.5v3l.2.4q.1.2.4.2h1.8v1.2Zm6 .1q-.8 0-1.3-.3-.6-.3-1-.8-.2-.6-.2-1.3v-1.4q0-.8.3-1.3.3-.6.9-.9.5-.3 1.3-.3t1.3.3q.6.3 1 .9.2.5.2 1.2v1.1h-3.7v.4q0 .6.3 1 .3.3 1 .3l.6-.2q.3-.1.4-.4h1.4q-.2.8-.8 1.2-.7.5-1.7.5m-1.2-3.9v.2h2.4v-.2q0-.6-.3-1-.3-.3-.9-.3t-.9.3q-.3.4-.3 1m7.3 4q-1 0-1.5-.7-.5-.6-.5-1.7v-1.6q0-1.1.5-1.7.6-.7 1.5-.7.6 0 1 .4.4.3.6.9V138h1.4v8H299v-1.1q-.2.6-.6.9t-1 .3zm.5-1.3q.5 0 .8-.3t.3-.9v-1.5q0-.5-.3-.9-.3-.3-.8-.3-.6 0-.9.3-.2.3-.2.9v1.6q0 .6.2.8.3.3.9.3" aria-label="created" clip-path="url(#clipPath2)" font-weight="700" transform="translate(10 10)"/><path d="M314 146v-8h2.1q.8 0 1.4.3t.9.8q.3.6.3 1.3v3.2q0 .7-.3 1.2-.3.6-1 .9-.5.3-1.3.3zm1-1h1.1q.7 0 1.1-.4t.4-1v-3.2q0-.7-.4-1-.4-.5-1-.5H315zm5.1 1 2-8h1.5l2 8h-1l-.5-2h-2.4l-.5 2zm1.8-3h2l-.6-2.4-.3-1.1-.1-.6-.1.6-.3 1.1zm7 3v-7h-2.1v-1h5.4v1h-2.1v7Zm5 0v-8h4.6v1H335v2.3h3.3v1H335v2.7h3.6v1Zm8.3 0v-7H340v-1h5.4v1h-2.1v7Zm5 0v-1h1.6v-6H347v-1h4.4v1h-1.6v6h1.6v1Zm6.1 0v-8h1.6l1 3.4 1-3.4h1.6v8h-1v-7.7l-1.2 4.1h-.9l-1.2-4 .1 1.8v5.8Zm7 0v-8h4.6v1h-3.6v2.3h3.3v1h-3.3v2.7h3.6v1Z" aria-label="DATETIME" clip-path="url(#clipPath2)" transform="translate(10 10)"/><path d="M258.3 166.1q-1.2 0-1.8-.6-.7-.7-.7-1.8V160h1.4v3.7q0 .6.3.9t.8.3.8-.3.3-.9V160h1.4v3.7q0 1.1-.7 1.8-.7.6-1.8.6m4.1 1.9v-8h1.4v1q.2-.5.6-.8.4-.4 1-.4t1 .3q.5.3.8.8l.2 1.2v1.7q0 1-.5 1.7-.6.6-1.4.6-.7 0-1.1-.3-.5-.4-.6-1v3.2zm2.5-3q.6 0 .8-.4.3-.2.3-.8v-1.6q0-.6-.3-.9-.2-.3-.8-.3-.5 0-.8.3-.3.4-.3 1v1.4q0 .6.3.9t.8.3zm6 1.1q-.8 0-1.4-.6-.5-.6-.5-1.7v-1.6q0-1.1.5-1.7.6-.7 1.5-.7.6 0 1 .4.4.3.6.9V158h1.4v8h-1.4v-1.1q-.2.6-.6.9t-1 .3zm.6-1.2q.5 0 .8-.3t.3-.9v-1.5q0-.5-.3-.9-.3-.3-.8-.3-.6 0-.9.3-.2.3-.2.9v1.6q0 .6.2.8.3.3.9.3m6 1.2q-1 0-1.5-.5-.6-.5-.6-1.4t.6-1.4 1.7-.5h1.5v-.4q0-1-1-1-.6 0-.9.2l-.3.6h-1.3q0-.8.7-1.4.6-.5 1.7-.5 1.2 0 1.8.6.7.5.7 1.5v4.1h-1.4v-1.1q0 .5-.5.9-.5.3-1.3.3zm.4-1.1q.6 0 1-.3.3-.3.3-.8v-.7h-1.4q-.5 0-.7.2-.3.3-.3.7t.3.6q.3.3.8.3m7.4 1q-.8 0-1.3-.5t-.5-1.3v-3h-1.7V160h1.7v-1.8h1.3v1.8h2.5v1.2h-2.5v3l.2.4q.1.2.4.2h1.8v1.2Zm6 .1q-.8 0-1.3-.3-.6-.3-1-.8-.2-.6-.2-1.3v-1.4q0-.8.3-1.3.3-.6.9-.9.5-.3 1.3-.3t1.3.3q.6.3 1 .9.2.5.2 1.2v1.1h-3.7v.4q0 .6.3 1 .3.3 1 .3l.6-.2q.3-.1.4-.4h1.4q-.2.8-.8 1.2-.7.5-1.7.5m-1.2-3.9v.2h2.4v-.2q0-.6-.3-1-.3-.3-.9-.3t-.9.3q-.3.4-.3 1m7.3 4q-1 0-1.5-.7-.5-.6-.5-1.7v-1.6q0-1.1.5-1.7.6-.7 1.5-.7.6 0 1 .4.4.3.6.9V158h1.4v8H299v-1.1q-.2.6-.6.9t-1 .3zm.5-1.3q.5 0 .8-.3t.3-.9v-1.5q0-.5-.3-.9-.3-.3-.8-.3-.6 0-.9.3-.2.3-.2.9v1.6q0 .6.2.8.3.3.9.3" aria-label="updated" clip-path="url(#clipPath2)" font-weight="700" transform="translate(10 10)"/><path d="M314 166v-8h2.1q.8 0 1.4.3t.9.8q.3.6.3 1.3v3.2q0 .7-.3 1.2-.3.6-1 .9-.5.3-1.3.3zm1-1h1.1q.7 0 1.1-.4t.4-1v-3.2q0-.7-.4-1-.4-.5-1-.5H315zm5.1 1 2-8h1.5l2 8h-1l-.5-2h-2.4l-.5 2zm1.8-3h2l-.6-2.4-.3-1.1-.1-.6-.1.6-.3 1.1zm7 3v-7h-2.1v-1h5.4v1h-2.1v7Zm5 0v-8h4.6v1H335v2.3h3.3v1H335v2.7h3.6v1Zm8.3 0v-7H340v-1h5.4v1h-2.1v7Zm5 0v-1h1.6v-6H347v-1h4.4v1h-1.6v6h1.6v1Zm6.1 0v-8h1.6l1 3.4 1-3.4h1.6v8h-1v-7.7l-1.2 4.1h-.9l-1.2-4 .1 1.8v5.8Zm7 0v-8h4.6v1h-3.6v2.3h3.3v1h-3.3v2.7h3.6v1Z" aria-label="DATETIME" clip-path="url(#clipPath2)" transform="translate(10 10)"/></g><path fill="#FFC" d="M0 0h169v153H0z" clip-path="url(#clipPath2)" transform="translate(10 10)" stroke="none"/><g fill="gray" stroke="gray" stroke-linecap="butt" stroke-miterlimit="1.4"><path fill="none" d="M0 0h169v153H0z" clip-path="url(#clipPath2)" transform="translate(10 10)"/><path fill="#000" d="m58.2 18-1-8.8h1l.7 6.4v.9l.1.7.1-.7.1-.9.8-6.4h1.2l.8 6.4v.9l.2.7v-1.6l.8-6.4h1L63 18h-1.5l-.8-6.5V10l-.1.7-.1.8-.8 6.5Zm9.6.1q-1.2 0-2-.7-.6-.7-.6-2V14q0-1.2.7-1.9t1.9-.7 2 .7q.6.7.6 2v1.5q0 1.2-.7 1.9t-1.9.7zm0-1q.7 0 1-.4.5-.4.5-1.1v-1.8q0-.7-.4-1-.4-.5-1.1-.5t-1 .4q-.5.4-.5 1.1v1.8q0 .7.4 1 .4.5 1.1.5m4.9.9v-6.6h1.2v1.3q0-.7.5-1 .5-.4 1.3-.4 1 0 1.6.6.5.6.5 1.8v.6h-1.2v-.6q0-1.4-1.3-1.4-.7 0-1 .4-.4.4-.4 1.1V18Zm7 0V9.2H81v4.9h1.2l1.8-2.7h1.3l-2 3.2 2.1 3.4H84l-2-2.9h-1V18Zm7.2 0V9.2H92v1.1h-4v2.8h3.7v1H88V18Zm7.1 0v-1h2.3v-4.5h-2v-1.1h3.2v5.5h2.2V18Zm2.8-7.8q-.4 0-.7-.2-.2-.2-.2-.5 0-.4.2-.6.3-.2.7-.2t.6.2q.3.2.3.6 0 .3-.3.5-.2.2-.6.2m8 7.8q-1 0-1.5-.5-.5-.6-.5-1.4v-5.8h-2.3v-1h3.5V16q0 .4.2.6t.6.2h2V18Zm6.2.1q-1.2 0-2-.7-.6-.7-.6-2V14q0-1.2.7-2 .7-.6 1.9-.6.8 0 1.4.3t.9.9.3 1.3V15h-4v.6q0 .7.3 1.1.4.4 1.1.4.6 0 1-.2.3-.2.4-.6h1.2q-.1.8-.8 1.3-.8.5-1.8.5m-1.5-4.3v.3h3v-.3q0-.7-.4-1.2-.4-.4-1.1-.4t-1 .4q-.5.5-.5 1.2" aria-label="WorkFile" clip-path="url(#clipPath2)" font-family="JetBrains Mono Medium" transform="translate(10 10)" stroke="none"/><path fill="none" stroke-linecap="square" stroke-miterlimit="10" d="M1 25h167" clip-path="url(#clipPath2)" transform="translate(10 10)"/></g><path fill="none" stroke="#6e6e6e" stroke-linecap="round" stroke-linejoin="round" stroke-miterlimit="4" stroke-width="1.4" d="M22.4 41.1h2.8l3.5 3.5v2.8l-2.1 2.1h-2.8L20.3 46v-2.8zm1.4 2.8 2.1 2.1m-5.6.7-4.9 4.9v2.1l.7.7h2.8v-2.1H21v-2.1h1.4l.7-.7" clip-path="url(#clipPath4)" image-rendering="optimizeQuality"/><path d="M29 43.1q-1 0-1.7-.5-.6-.5-.6-1.3h1.4q0 .3.2.5.3.2.7.2h.5q.5 0 .8-.2t.3-.5-.2-.5-.6-.2l-1.5-.2q-.7-.1-1.1-.6-.4-.4-.4-1.2t.6-1.3q.5-.4 1.6-.4h.5q1 0 1.6.4.7.5.7 1.2h-1.4l-.2-.4q-.3-.2-.7-.2H29q-.4 0-.7.2-.2.2-.2.5t.2.4l.5.2 1.4.2q.8 0 1.3.6.4.4.4 1.3 0 .8-.6 1.3t-1.8.5zm4.4-.1v-1.2h2.1v-3.6h-1.8v-1.3h3.2v4.9h1.8V43Zm2.7-7q-.4 0-.7-.3-.2-.2-.2-.6 0-.3.2-.5.3-.2.7-.2t.7.2q.2.2.2.5 0 .4-.2.6-.3.2-.7.2zm5.9 7q-1 0-1.5-.6t-.5-1.7v-1.6q0-1.1.5-1.7.6-.7 1.5-.7.6 0 1 .4.4.3.6.8v-3H45v8h-1.4v-1.1q-.2.6-.6.9t-1 .3m.5-1.2q.5 0 .8-.3t.3-.9v-1.5q0-.5-.3-.9-.3-.3-.8-.3-.6 0-.9.3-.2.3-.2.9v1.6q0 .5.2.8.3.3.9.3" aria-label="sid" clip-path="url(#clipPath2)" font-family="JetBrains Mono Medium" font-size="11" font-weight="700" transform="translate(10 10)" stroke="none"/><path d="M84.1 43v-1h1.7v-6H84v-1h4.4v1h-1.7v6h1.7v1Zm6.4 0v-8H92l2.4 6.7-.1-.7v-6h1v8h-1.5l-2.3-6.8V43Zm8.5 0v-7h-2.2v-1h5.4v1h-2.1v7Zm4.9 0v-8h4.6v1H105v2.3h3.3v1H105V42h3.6v1Zm8.8.1q-1 0-1.7-.6t-.7-1.7v-3.6q0-1.1.7-1.7.6-.6 1.7-.6t1.8.6.7 1.7H114q0-.7-.4-1-.3-.4-1-.4-.6 0-1 .4-.3.3-.3 1v3.6q0 .6.4 1 .3.3 1 .3.6 0 1-.3.3-.4.3-1v-1h-1.6v-1h2.7v2q0 1-.7 1.7-.7.6-1.8.6zm4.4-.1v-8h4.6v1h-3.6v2.3h3.3v1H118V42h3.6v1Zm6.5 0v-8h2.5q.7 0 1.3.3.5.3.8.8t.3 1.2q0 .8-.4 1.4t-1 .8l1.5 3.5h-1.2l-1.5-3.4h-1.2V43Zm1-4.3h1.5q.6 0 1-.4.3-.4.3-1t-.4-1q-.3-.4-1-.4h-1.3z" aria-label="INTEGER" clip-path="url(#clipPath2)" font-family="JetBrains Mono Medium" font-size="11" transform="translate(10 10)" stroke="none"/><path fill="none" stroke="#6e6e6e" stroke-linecap="round" stroke-linejoin="round" stroke-miterlimit="4" stroke-width="1.4" d="M161.9 43.9h7v7m-7 0 7-7" clip-path="url(#clipPath6)" image-rendering="optimizeQuality"/><path d="M26.8 64v-6h1.4v1q.1-.5.5-.8.5-.4 1.1-.4 1 0 1.4.6.6.6.6 1.6v4h-1.4v-3.8q0-.6-.3-.9t-.8-.3-.8.3-.3 1V64Zm8.4.1q-.9 0-1.4-.5-.6-.5-.6-1.4t.6-1.4 1.7-.5H37v-.4q0-1-1-1-.6 0-.9.2l-.3.6h-1.3q0-.8.7-1.4.6-.5 1.7-.5 1.2 0 1.8.6.7.5.7 1.5V64H37v-1.1q0 .5-.5.9-.5.3-1.3.3m.5-1.1q.6 0 1-.3.3-.3.3-.8v-.7h-1.4q-.5 0-.7.2-.3.3-.3.7t.3.6q.3.3.8.3m4 1v-6H41v.8q0-.4.3-.7t.7-.3.7.3.4.7q0-.4.3-.7t.7-.3q.6 0 1 .5.3.4.3 1V64H44v-4.5q0-.3-.2-.5l-.4-.1q-.4 0-.4.6V64h-1v-4.5q0-.3-.2-.5l-.3-.1q-.6 0-.6.6V64Zm9.4.1q-.8 0-1.3-.3-.6-.3-1-.8-.2-.6-.2-1.3v-1.4q0-.8.3-1.3.3-.6.9-.9.5-.3 1.3-.3t1.3.3q.6.3 1 .9.2.5.2 1.2v1.1H48v.4q0 .6.3 1 .3.3 1 .3l.6-.2q.3-.1.4-.4h1.4q-.2.8-.8 1.2-.7.5-1.7.5zM48 60.2v.2h2.4v-.2q0-.6-.3-1-.3-.3-.9-.3t-.9.3q-.3.4-.3 1" aria-label="name" clip-path="url(#clipPath2)" font-family="JetBrains Mono Medium" font-size="11" font-weight="700" transform="translate(10 10)" stroke="none"/><g stroke="none" stroke-linecap="butt" stroke-miterlimit="1.4" font-family="'JetBrains Mono Medium'" font-size="11"><path d="M85.8 64v-7h-2.2v-1H89v1h-2.2v7Zm4.9 0v-8h4.6v1h-3.6v2.3H95v1h-3.3V63h3.6v1Zm6 0 2.2-4-2.2-4H98l1.2 2.3.2.4.1.3.2-.3.2-.4L101 56h1.2l-2.2 3.9 2.3 4.1h-1.2l-1.4-2.5-.2-.4-.1-.3-.2.3-.2.4-1.3 2.5zm8.9 0v-7h-2.2v-1h5.4v1h-2.1v7Z" aria-label="TEXT" clip-path="url(#clipPath2)" transform="translate(10 10)"/><path d="M26.5 84v-6h1.2v.8q0-.4.3-.7t.7-.3.7.3.4.7q0-.4.3-.7t.7-.3q.6 0 1 .5.3.4.3 1V84h-1.2v-4.5q0-.3-.2-.5l-.4-.1q-.4 0-.4.6V84h-1.1v-4.5q0-.3-.2-.5l-.3-.1q-.6 0-.6.6V84Zm7 0v-1.2h2v-3.6h-1.8v-1.3h3.2v4.9h1.8V84Zm2.6-7q-.4 0-.7-.3-.2-.2-.2-.6 0-.3.2-.5.3-.2.7-.2t.7.2q.2.2.2.5 0 .4-.2.6-.3.2-.7.2zm3.6 7v-6H41v.8q0-.4.3-.7t.7-.3.7.3.4.7q0-.4.3-.7t.7-.3q.6 0 1 .5.3.4.3 1V84H44v-4.5q0-.3-.2-.5l-.4-.1q-.4 0-.4.6V84h-1v-4.5q0-.3-.2-.5l-.3-.1q-.6 0-.6.6V84Zm9.4.1q-.8 0-1.3-.3-.6-.3-1-.8-.2-.6-.2-1.3v-1.4q0-.8.3-1.3.3-.6.9-.9.5-.3 1.3-.3t1.3.3q.6.3 1 .9.2.5.2 1.2v1.1H48v.4q0 .6.3 1 .3.3 1 .3l.6-.2q.3-.1.4-.4h1.4q-.2.8-.8 1.2-.7.5-1.7.5zM48 80.2v.2h2.4v-.2q0-.6-.3-1-.3-.3-.9-.3t-.9.3q-.3.4-.3 1" aria-label="mime" clip-path="url(#clipPath2)" font-weight="700" transform="translate(10 10)"/><path d="M85.8 84v-7h-2.2v-1H89v1h-2.2v7Zm4.9 0v-8h4.6v1h-3.6v2.3H95v1h-3.3V83h3.6v1Zm6 0 2.2-4-2.2-4H98l1.2 2.3.2.4.1.3.2-.3.2-.4L101 76h1.2l-2.2 3.9 2.3 4.1h-1.2l-1.4-2.5-.2-.4-.1-.3-.2.3-.2.4-1.3 2.5zm8.9 0v-7h-2.2v-1h5.4v1h-2.1v7Z" aria-label="TEXT" clip-path="url(#clipPath2)" transform="translate(10 10)"/><path d="M29.9 105.1q-.7 0-1.1-.3t-.6-.9v1.1h-1.4v-8h1.4v3q.2-.5.6-.8.4-.4 1-.4 1 0 1.5.7.5.6.5 1.7v1.6q0 1-.5 1.7-.6.6-1.4.6m-.6-1.2q.6 0 .8-.3.3-.2.3-.8v-1.6q0-.6-.3-.9-.2-.3-.8-.3-.5 0-.8.3-.3.4-.3 1v1.4q0 .6.3.9t.8.3M37 105q-1 0-1.5-.5-.5-.6-.5-1.5v-4.8h-2V97h3.4v6q0 .4.2.6.1.2.5.2h1.7v1.2Zm5.6.1q-1.2 0-1.8-.6-.7-.7-.7-1.8v-1.4q0-1.2.7-1.8.6-.6 1.8-.6t1.8.6q.7.6.7 1.8v1.4q0 1-.7 1.7-.6.7-1.8.7m0-1.2q.6 0 .8-.3.4-.3.4-.9v-1.5q0-.5-.4-.8-.2-.3-.8-.3-.5 0-.9.3-.3.3-.3.8v1.5q0 .6.3.9.4.3.9.3m7.2 1.2q-.7 0-1.1-.3t-.6-.9v1.1h-1.4v-8H48v3q.2-.5.6-.8.4-.4 1-.4 1 0 1.5.7.5.6.5 1.7v1.6q0 1-.5 1.7-.6.6-1.4.6zM49 104q.6 0 .8-.3.3-.2.3-.8v-1.6q0-.6-.3-.9-.2-.3-.8-.3-.5 0-.8.3-.3.4-.3 1v1.4q0 .6.3.9t.8.3" aria-label="blob" clip-path="url(#clipPath2)" font-weight="700" transform="translate(10 10)"/><path d="M84 105v-8h2.3q1.1 0 1.7.5.7.6.7 1.5 0 .7-.4 1.2t-1 .6q.5 0 .8.3.4.3.6.7t.2 1q0 1-.7 1.6-.6.6-1.7.6Zm1-4.6h1.3q.6 0 1-.4.3-.3.3-.9 0-.5-.3-.8-.4-.4-1-.4H85zm0 3.6h1.4q.6 0 1-.3.4-.4.4-1t-.4-1-1-.4H85Zm6 1v-8h1.1v7h3.6v1Zm8.5.1q-1.1 0-1.7-.6-.7-.7-.7-1.8v-3.4q0-1.2.7-1.8.6-.6 1.7-.6t1.7.6q.7.6.7 1.8v3.4q0 1.1-.7 1.8-.6.6-1.7.6m0-1q.6 0 1-.3.3-.4.3-1v-3.6q0-.7-.3-1-.4-.4-1-.4t-1 .4q-.3.3-.3 1v3.6q0 .6.3 1 .4.3 1 .3m4.3.9v-8h2.3q1.1 0 1.7.5.7.6.7 1.5 0 .7-.4 1.2t-1 .6q.5 0 .8.3.4.3.6.7t.2 1q0 1-.7 1.6-.6.6-1.7.6zm1-4.6h1.3q.6 0 1-.4.3-.3.3-.9 0-.5-.3-.8-.4-.4-1-.4h-1.3zm0 3.6h1.4q.6 0 1-.3.4-.4.4-1t-.4-1-1-.4h-1.4z" aria-label="BLOB" clip-path="url(#clipPath2)" transform="translate(10 10)"/><path d="M29.4 125.1q-.8 0-1.4-.3-.5-.3-.9-.8-.3-.5-.3-1.3v-1.5q0-.7.3-1.2.4-.6 1-.9.5-.3 1.3-.3 1.1 0 1.8.6t.7 1.6h-1.3q0-.4-.4-.7-.3-.3-.8-.3-.6 0-.9.3t-.3.9v1.5q0 .6.3.9t.9.3q.5 0 .8-.2.4-.3.4-.8h1.3q0 1-.7 1.6t-1.8.6m4.3-.1v-6H35v1.1q.1-.6.5-1 .5-.3 1.2-.3 1 0 1.4.6.5.6.5 1.7v.6h-1.3v-.5q0-.6-.3-.9t-.8-.3q-.6 0-.9.4-.3.3-.3.9v3.7Zm8.8.1q-.8 0-1.3-.3-.6-.3-1-.8-.2-.6-.2-1.3v-1.4q0-.8.3-1.3.3-.6.9-.9.5-.3 1.3-.3t1.3.3q.6.3 1 .9.2.5.2 1.2v1.1h-3.7v.4q0 .6.3 1 .3.3 1 .3l.6-.2q.3-.1.4-.4H45q-.2.8-.8 1.2-.7.5-1.7.5m-1.2-3.9v.2h2.4v-.2q0-.6-.3-1-.3-.3-.9-.3t-.9.3q-.3.4-.3 1m7.1 4q-.9 0-1.4-.6-.6-.5-.6-1.4t.6-1.4 1.7-.5h1.5v-.4q0-1-1-1-.6 0-.9.2l-.3.6h-1.3q0-.8.7-1.4.6-.5 1.7-.5 1.2 0 1.8.6.7.5.7 1.5v4.1h-1.4v-1.1q0 .5-.5.9-.5.3-1.3.3zm.5-1.2q.6 0 1-.3.3-.3.3-.8v-.7h-1.4q-.5 0-.7.2-.3.3-.3.7t.3.6q.3.3.8.3m7.4 1q-.8 0-1.3-.5t-.5-1.3v-3h-1.7v-1.3h1.7v-1.7h1.3v1.8h2.5v1.2h-2.5v3l.2.4q.1.2.4.2h1.8v1.2Zm6 .1q-.8 0-1.3-.3-.6-.3-1-.8-.2-.6-.2-1.3v-1.4q0-.8.3-1.3.3-.6.9-.9.5-.3 1.3-.3t1.3.3q.6.3 1 .9.2.5.2 1.2v1.1h-3.7v.4q0 .6.3 1 .3.3 1 .3l.6-.2q.3-.1.4-.4h1.4q-.2.8-.8 1.2-.7.5-1.7.5m-1.2-3.9v.2h2.4v-.2q0-.6-.3-1-.3-.3-.9-.3t-.9.3q-.3.4-.3 1m7.3 4q-1 0-1.5-.7-.5-.6-.5-1.7v-1.6q0-1.1.5-1.7.6-.7 1.5-.7.6 0 1 .4.4.3.6.9V117h1.4v8H70v-1.1q-.2.6-.6.9t-1 .3zm.5-1.3q.5 0 .8-.3t.3-.9v-1.5q0-.5-.3-.9-.3-.3-.8-.3-.6 0-.9.3-.2.3-.2.9v1.6q0 .5.2.8.3.3.9.3" aria-label="created" clip-path="url(#clipPath2)" font-weight="700" transform="translate(10 10)"/><path d="M84 125v-8h2q.8 0 1.4.3t.9.8q.3.6.3 1.3v3.2q0 .7-.3 1.2-.3.6-1 .9-.5.3-1.3.3Zm1-1h1.1q.7 0 1.1-.4t.4-1v-3.2q0-.7-.4-1-.4-.5-1-.5H85zm5.1 1 2-8h1.5l2 8h-1l-.5-2h-2.4l-.5 2zm1.8-3h2l-.6-2.4-.3-1.1-.1-.6-.1.6-.3 1.1zm7 3v-7h-2.1v-1h5.4v1h-2.1v7Zm5 0v-8h4.6v1H105v2.3h3.3v1H105v2.7h3.6v1Zm8.3 0v-7H110v-1h5.4v1h-2.1v7Zm5 0v-1h1.6v-6H117v-1h4.4v1h-1.6v6h1.6v1Zm6.1 0v-8h1.6l1 3.4 1-3.4h1.6v8h-1v-7.7l-1.2 4.1h-.9l-1.2-4 .1 1.8v5.8Zm7 0v-8h4.6v1h-3.6v2.3h3.3v1h-3.3v2.7h3.6v1Z" aria-label="DATETIME" clip-path="url(#clipPath2)" transform="translate(10 10)"/><path d="M29.3 146.1q-1.2 0-1.8-.6-.7-.7-.7-1.8V140h1.4v3.8q0 .6.3.9t.8.3.8-.3.3-.9V140h1.4v3.7q0 1.1-.7 1.8-.7.6-1.8.6m4.1 1.9v-8h1.4v1q.2-.5.6-.8.4-.4 1-.4t1 .3q.5.3.8.8l.2 1.2v1.7q0 1-.5 1.7-.6.6-1.4.6-.7 0-1.1-.3-.5-.4-.6-1v3.2zm2.5-3q.6 0 .8-.4.3-.2.3-.8v-1.6q0-.6-.3-.9-.2-.3-.8-.3-.5 0-.8.3-.3.4-.3 1v1.4q0 .6.3.9t.8.3zm6 1.1q-.8 0-1.4-.6-.5-.6-.5-1.7v-1.6q0-1.1.5-1.7.6-.7 1.5-.7.6 0 1 .4.4.3.6.9V138H45v8h-1.4v-1.1q-.2.6-.6.9t-1 .3zm.6-1.2q.5 0 .8-.3t.3-.9v-1.5q0-.5-.3-.9-.3-.3-.8-.3-.6 0-.9.3-.2.3-.2.9v1.6q0 .6.2.8.3.3.9.3m6 1.2q-1 0-1.5-.5-.6-.5-.6-1.4t.6-1.4 1.7-.5h1.5v-.4q0-1-1-1-.6 0-.9.2l-.3.6h-1.3q0-.8.7-1.4.6-.5 1.7-.5 1.2 0 1.8.6.7.5.7 1.5v4.1h-1.4v-1.1q0 .5-.5.9-.5.3-1.3.3zm.4-1.1q.6 0 1-.3.3-.3.3-.8v-.7h-1.4q-.5 0-.7.2-.3.3-.3.7t.3.6q.3.3.8.3m7.4 1q-.8 0-1.3-.5t-.5-1.3v-3h-1.7V140h1.7v-1.8h1.3v1.8h2.5v1.2h-2.5v3l.2.4q.1.2.4.2h1.8v1.2Zm6 .1q-.8 0-1.3-.3-.6-.3-1-.8-.2-.6-.2-1.3v-1.4q0-.8.3-1.3.3-.6.9-.9.5-.3 1.3-.3t1.3.3q.6.3 1 .9.2.5.2 1.2v1.1h-3.7v.4q0 .6.3 1 .3.3 1 .3l.6-.2q.3-.1.4-.4h1.4q-.2.8-.8 1.2-.7.5-1.7.5m-1.2-3.9v.2h2.4v-.2q0-.6-.3-1-.3-.3-.9-.3t-.9.3q-.3.4-.3 1m7.3 4q-1 0-1.5-.7-.5-.6-.5-1.7v-1.6q0-1.1.5-1.7.6-.7 1.5-.7.6 0 1 .4.4.3.6.9V138h1.4v8H70v-1.1q-.2.6-.6.9t-1 .3zm.5-1.3q.5 0 .8-.3t.3-.9v-1.5q0-.5-.3-.9-.3-.3-.8-.3-.6 0-.9.3-.2.3-.2.9v1.6q0 .6.2.8.3.3.9.3" aria-label="updated" clip-path="url(#clipPath2)" font-weight="700" transform="translate(10 10)"/><path d="M84 146v-8h2q.8 0 1.4.3t.9.8q.3.6.3 1.3v3.2q0 .7-.3 1.2-.3.6-1 .9-.5.3-1.3.3Zm1-1h1.1q.7 0 1.1-.4t.4-1v-3.2q0-.7-.4-1-.4-.5-1-.5H85zm5.1 1 2-8h1.5l2 8h-1l-.5-2h-2.4l-.5 2zm1.8-3h2l-.6-2.4-.3-1.1-.1-.6-.1.6-.3 1.1zm7 3v-7h-2.1v-1h5.4v1h-2.1v7Zm5 0v-8h4.6v1H105v2.3h3.3v1H105v2.7h3.6v1Zm8.3 0v-7H110v-1h5.4v1h-2.1v7Zm5 0v-1h1.6v-6H117v-1h4.4v1h-1.6v6h1.6v1Zm6.1 0v-8h1.6l1 3.4 1-3.4h1.6v8h-1v-7.7l-1.2 4.1h-.9l-1.2-4 .1 1.8v5.8Zm7 0v-8h4.6v1h-3.6v2.3h3.3v1h-3.3v2.7h3.6v1Z" aria-label="DATETIME" clip-path="url(#clipPath2)" transform="translate(10 10)"/></g><path fill="none" stroke="gray" stroke-linecap="butt" stroke-miterlimit="1.4" d="M399 232h25v-77h27" clip-path="url(#clipPath2)" transform="translate(10 10)"/><g fill="gray" stroke="gray" stroke-linecap="butt" stroke-miterlimit="1.4" transform="translate(10 10)"><use xlink:href="#a" clip-path="url(#clipPath2)"/><path fill="none" d="M399 79h35v76h17" clip-path="url(#clipPath2)"/><use xlink:href="#a" clip-path="url(#clipPath2)"/><path fill="none" d="M169 38h52" clip-path="url(#clipPath2)"/><path d="m229 38-12-5 3 5-3 5Z" clip-path="url(#clipPath2)" stroke="none"/></g></svg>