<svg xmlns="http://www.w3.org/2000/svg" xmlns:xlink="http://www.w3.org/1999/xlink" stroke="#000" stroke-linecap="square" stroke-miterlimit="10" color-interpolation="auto" font-family="'Dialog'" font-size="12" viewBox="0 0 403 305"><defs><path id="a" stroke="none" d="m229 191-12-5 3 5-3 5z" clip-path="url(#clipPath2)"/></defs><path fill="#FFC" d="M229 0h153v132H229z" clip-path="url(#clipPath2)" transform="translate(10 10)" stroke="none"/><g fill="gray" stroke="gray" stroke-linecap="butt" stroke-miterlimit="1.4"><path fill="none" d="M229 0h153v132H229z" clip-path="url(#clipPath2)" transform="translate(10 10)"/><path fill="#000" d="M295.6 18.1q-1.2 0-2-.7-.6-.6-.6-1.8V9.2h1.2v6.4q0 .7.4 1 .3.5 1 .5t1-.4q.4-.4.4-1.1V9.2h1.2v6.4q0 1.2-.7 1.8-.7.7-1.9.7m7 0q-1.2 0-1.8-.5t-.6-1.4h1.1q0 .4.3.7.4.2 1 .2h.5q.6 0 .9-.3.3-.2.3-.7 0-.8-.8-.9l-1.8-.2q-.7-.1-1-.6-.5-.5-.5-1.2 0-1 .6-1.4.6-.5 1.7-.5h.6q1 0 1.6.5t.6 1.3h-1.2q0-.4-.3-.6t-.7-.2h-.6q-.5 0-.8.2-.3.3-.3.7 0 .6.7.7l1.6.2q1.7.3 1.7 2 0 1-.6 1.5t-1.7.5zm7.4 0q-1.2 0-2-.7-.6-.7-.6-2V14q0-1.2.7-2 .7-.6 1.9-.6.8 0 1.4.3t.9.9.3 1.3V15h-4v.6q0 .7.3 1.1.4.4 1.1.4.6 0 1-.2.3-.2.4-.6h1.2q-.1.8-.8 1.3-.8.5-1.8.5m-1.5-4.3v.3h3v-.3q0-.7-.4-1.2-.4-.4-1.1-.4t-1 .4q-.5.5-.5 1.2M315 18v-6.6h1.2v1.3q0-.7.5-1 .5-.4 1.3-.4 1 0 1.6.6.5.6.5 1.8v.6h-1.2v-.6q0-1.4-1.3-1.4-.7 0-1 .4-.4.4-.4 1.1V18Z" aria-label="User" clip-path="url(#clipPath2)" font-family="JetBrains Mono Medium" transform="translate(10 10)" stroke="none"/><path fill="none" stroke-linecap="square" stroke-miterlimit="10" d="M230 25h151" clip-path="url(#clipPath2)" transform="translate(10 10)"/></g><path fill="none" stroke="#6e6e6e" stroke-linecap="round" stroke-linejoin="round" stroke-miterlimit="4" stroke-width="1.4" d="M251.4 41.1h2.8l3.5 3.5v2.8l-2.1 2.1h-2.8l-3.5-3.5v-2.8zm1.4 2.8 2.1 2.1m-5.6.7-4.9 4.9v2.1l.7.7h2.8v-2.1h2.1v-2.1h1.4l.7-.7" clip-path="url(#clipPath4)" image-rendering="optimizeQuality"/><path d="M258.3 43.1q-1.2 0-1.8-.6-.7-.7-.7-1.8V37h1.4v3.8q0 .6.3.9t.8.3.8-.3.3-.9V37h1.4v3.8q0 1.1-.7 1.8-.7.6-1.8.6zm4.1-.1v-1.2h2.1v-3.6h-1.8v-1.3h3.2v4.9h1.8V43Zm2.7-7q-.4 0-.7-.3-.2-.2-.2-.6 0-.3.2-.5.3-.2.7-.2t.7.2q.2.2.2.5 0 .4-.2.6-.3.2-.7.2zm5.9 7q-1 0-1.5-.6t-.5-1.7v-1.6q0-1.1.5-1.7.6-.7 1.5-.7.6 0 1 .4.4.3.6.8v-3h1.4v8h-1.4v-1.1q-.2.6-.6.9t-1 .3m.5-1.2q.5 0 .8-.3t.3-.9v-1.5q0-.5-.3-.9-.3-.3-.8-.3-.6 0-.9.3-.2.3-.2.9v1.6q0 .5.2.8.3.3.9.3" aria-label="uid" clip-path="url(#clipPath2)" font-family="JetBrains Mono Medium" font-size="11" font-weight="700" transform="translate(10 10)" stroke="none"/><g stroke="none" stroke-linecap="butt" stroke-miterlimit="1.4" font-family="'JetBrains Mono Medium'" font-size="11"><path d="M314.1 43v-1h1.6v-6h-1.6v-1h4.4v1h-1.7v6h1.7v1Zm6.4 0v-8h1.5l2.4 6.7-.1-.7v-6h1v8h-1.5l-2.3-6.8V43Zm8.5 0v-7h-2.2v-1h5.4v1h-2.1v7Zm4.9 0v-8h4.6v1H335v2.3h3.3v1H335V42h3.6v1Zm8.8.1q-1 0-1.7-.6t-.7-1.7v-3.6q0-1.1.7-1.7.6-.6 1.7-.6t1.8.6.7 1.7H344q0-.7-.4-1-.3-.4-1-.4-.6 0-1 .4-.3.3-.3 1v3.6q0 .6.4 1 .3.3 1 .3.6 0 1-.3.3-.4.3-1v-1h-1.6v-1h2.7v2q0 1-.7 1.7-.7.6-1.8.6zm4.4-.1v-8h4.6v1h-3.6v2.3h3.3v1H348V42h3.6v1Zm6.5 0v-8h2.5q.7 0 1.3.3.5.3.8.8t.3 1.2q0 .8-.4 1.4t-1 .8l1.5 3.5h-1.2l-1.5-3.4h-1.2V43Zm1-4.3h1.5q.6 0 1-.4.3-.4.3-1t-.4-1q-.3-.4-1-.4h-1.3z" aria-label="INTEGER" clip-path="url(#clipPath2)" transform="translate(10 10)"/><path d="M255.5 64v-6h1.2v.8q0-.4.3-.7t.7-.3.7.3.4.7q0-.4.3-.7t.7-.3q.6 0 1 .5.3.4.3 1V64h-1.2v-4.5q0-.3-.2-.5l-.4-.1q-.4 0-.4.6V64h-1.1v-4.5q0-.3-.2-.5l-.3-.1q-.6 0-.6.6V64Zm8.7.1q-.9 0-1.4-.5-.6-.5-.6-1.4t.6-1.4 1.7-.5h1.5v-.4q0-1-1-1-.6 0-.9.2l-.3.6h-1.3q0-.8.7-1.4.6-.5 1.7-.5 1.2 0 1.8.6.7.5.7 1.5V64H266v-1.1q0 .5-.5.9-.5.3-1.3.3m.5-1.1q.6 0 1-.3.3-.3.3-.8v-.7h-1.4q-.5 0-.7.2-.3.3-.3.7t.3.6q.3.3.8.3m4.3 1v-1.2h2.1v-3.6h-1.8v-1.3h3.2v4.9h1.8V64Zm2.7-7q-.4 0-.7-.3-.2-.2-.2-.6 0-.3.2-.5.3-.2.7-.2t.7.2q.2.2.2.5 0 .4-.2.6-.3.2-.7.2zm7.4 7q-1 0-1.5-.5-.5-.6-.5-1.5v-4.8h-2V56h3.4v6q0 .4.2.6.1.2.5.2h1.7V64Z" aria-label="mail" clip-path="url(#clipPath2)" font-weight="700" transform="translate(10 10)"/><path d="M315.8 64v-7h-2.2v-1h5.4v1h-2v7Zm4.9 0v-8h4.6v1h-3.6v2.3h3.3v1h-3.3V63h3.6v1Zm6 0 2.2-4-2.2-4h1.3l1.2 2.3.2.4.1.3.2-.3.2-.4L331 56h1.2l-2.2 3.9 2.3 4.1h-1.2l-1.4-2.5-.2-.4-.1-.3-.2.3-.2.4-1.3 2.5zm8.9 0v-7h-2.2v-1h5.4v1h-2.1v7Z" aria-label="TEXT" clip-path="url(#clipPath2)" transform="translate(10 10)"/><path d="M255.8 84v-6h1.4v1q.1-.5.5-.8.5-.4 1.1-.4 1 0 1.4.6.6.6.6 1.6v4h-1.4v-3.8q0-.6-.3-.9t-.8-.3-.8.3-.3 1V84Zm8.4.1q-.9 0-1.4-.5-.6-.5-.6-1.4t.6-1.4 1.7-.5h1.5v-.4q0-1-1-1-.6 0-.9.2l-.3.6h-1.3q0-.8.7-1.4.6-.5 1.7-.5 1.2 0 1.8.6.7.5.7 1.5V84H266v-1.1q0 .5-.5.9-.5.3-1.3.3m.5-1.1q.6 0 1-.3.3-.3.3-.8v-.7h-1.4q-.5 0-.7.2-.3.3-.3.7t.3.6q.3.3.8.3m4 1v-6h1.2v.8q0-.4.3-.7t.7-.3.7.3.4.7q0-.4.3-.7t.7-.3q.6 0 1 .5.3.4.3 1V84H273v-4.5q0-.3-.2-.5l-.4-.1q-.4 0-.4.6V84h-1v-4.5q0-.3-.2-.5l-.3-.1q-.6 0-.6.6V84Zm9.4.1q-.8 0-1.3-.3-.6-.3-1-.8-.2-.6-.2-1.3v-1.4q0-.8.3-1.3.3-.6.9-.9.5-.3 1.3-.3t1.3.3q.6.3 1 .9.2.5.2 1.2v1.1H277v.4q0 .6.3 1 .3.3 1 .3l.6-.2q.3-.1.4-.4h1.4q-.2.8-.8 1.2-.7.5-1.7.5zm-1.2-3.9v.2h2.4v-.2q0-.6-.3-1-.3-.3-.9-.3t-.9.3q-.3.4-.3 1" aria-label="name" clip-path="url(#clipPath2)" font-weight="700" transform="translate(10 10)"/><path d="M315.8 84v-7h-2.2v-1h5.4v1h-2v7Zm4.9 0v-8h4.6v1h-3.6v2.3h3.3v1h-3.3V83h3.6v1Zm6 0 2.2-4-2.2-4h1.3l1.2 2.3.2.4.1.3.2-.3.2-.4L331 76h1.2l-2.2 3.9 2.3 4.1h-1.2l-1.4-2.5-.2-.4-.1-.3-.2.3-.2.4-1.3 2.5zm8.9 0v-7h-2.2v-1h5.4v1h-2.1v7Z" aria-label="TEXT" clip-path="url(#clipPath2)" transform="translate(10 10)"/><path d="M258.4 105.1q-.8 0-1.4-.3-.5-.3-.9-.8-.3-.5-.3-1.3v-1.5q0-.7.3-1.2.4-.6 1-.9.5-.3 1.3-.3 1.1 0 1.8.6t.7 1.6h-1.3q0-.4-.4-.7-.3-.3-.8-.3-.6 0-.9.3t-.3.9v1.5q0 .6.3.9t.9.3q.5 0 .8-.2.4-.3.4-.8h1.3q0 1-.7 1.6t-1.8.6m4.3-.1v-6h1.3v1.1q.1-.6.5-1 .5-.3 1.2-.3.9 0 1.4.6t.5 1.7v.6h-1.3v-.5q0-.6-.3-.9t-.8-.3q-.6 0-.9.4-.3.3-.3.9v3.7Zm8.8.1q-.8 0-1.3-.3-.6-.3-1-.8-.2-.6-.2-1.3v-1.4q0-.8.3-1.3.3-.6.9-.9.5-.3 1.3-.3t1.3.3q.6.3 1 .9.2.5.2 1.2v1.1h-3.7v.4q0 .6.3 1 .3.3 1 .3l.6-.2q.3-.1.4-.4h1.4q-.2.8-.8 1.2-.7.5-1.7.5m-1.2-3.9v.2h2.4v-.2q0-.6-.3-1-.3-.3-.9-.3t-.9.3q-.3.4-.3 1m7.1 4q-.9 0-1.4-.6-.6-.5-.6-1.4t.6-1.4 1.7-.5h1.5v-.4q0-1-1-1-.6 0-.9.2l-.3.6h-1.3q0-.8.7-1.4.6-.5 1.7-.5 1.2 0 1.8.6.7.5.7 1.5v4.1h-1.4v-1.1q0 .5-.5.9-.5.3-1.3.3zm.5-1.2q.6 0 1-.3.3-.3.3-.8v-.7h-1.4q-.5 0-.7.2-.3.3-.3.7t.3.6q.3.3.8.3m7.4 1q-.8 0-1.3-.5t-.5-1.3v-3h-1.7v-1.3h1.7v-1.7h1.3V99h2.5v1.2h-2.5v3l.2.4q.1.2.4.2h1.8v1.2Zm6 .1q-.8 0-1.3-.3-.6-.3-1-.8-.2-.6-.2-1.3v-1.4q0-.8.3-1.3.3-.6.9-.9.5-.3 1.3-.3t1.3.3q.6.3 1 .9.2.5.2 1.2v1.1h-3.7v.4q0 .6.3 1 .3.3 1 .3l.6-.2q.3-.1.4-.4h1.4q-.2.8-.8 1.2-.7.5-1.7.5m-1.2-3.9v.2h2.4v-.2q0-.6-.3-1-.3-.3-.9-.3t-.9.3q-.3.4-.3 1m7.3 4q-1 0-1.5-.7-.5-.6-.5-1.7v-1.6q0-1.1.5-1.7.6-.7 1.5-.7.6 0 1 .4.4.3.6.9V97h1.4v8H299v-1.1q-.2.6-.6.9t-1 .3zm.5-1.3q.5 0 .8-.3t.3-.9v-1.5q0-.5-.3-.9-.3-.3-.8-.3-.6 0-.9.3-.2.3-.2.9v1.6q0 .5.2.8.3.3.9.3" aria-label="created" clip-path="url(#clipPath2)" font-weight="700" transform="translate(10 10)"/><path d="M314 105v-8h2.1q.8 0 1.4.3t.9.8q.3.6.3 1.3v3.2q0 .7-.3 1.2-.3.6-1 .9-.5.3-1.3.3zm1-1h1.1q.7 0 1.1-.4t.4-1v-3.2q0-.7-.4-1-.4-.5-1-.5H315zm5.1 1 2-8h1.5l2 8h-1l-.5-2h-2.4l-.5 2zm1.8-3h2l-.6-2.4-.3-1.1-.1-.6-.1.6-.3 1.1zm7 3v-7h-2.1v-1h5.4v1h-2.1v7Zm5 0v-8h4.6v1H335v2.3h3.3v1H335v2.7h3.6v1Zm8.3 0v-7H340v-1h5.4v1h-2.1v7Zm5 0v-1h1.6v-6H347v-1h4.4v1h-1.6v6h1.6v1Zm6.1 0v-8h1.6l1 3.4 1-3.4h1.6v8h-1v-7.7l-1.2 4.1h-.9l-1.2-4 .1 1.8v5.8Zm7 0v-8h4.6v1h-3.6v2.3h3.3v1h-3.3v2.7h3.6v1Z" aria-label="DATETIME" clip-path="url(#clipPath2)" transform="translate(10 10)"/><path d="M258.3 125.1q-1.2 0-1.8-.6-.7-.7-.7-1.8V119h1.4v3.8q0 .6.3.9t.8.3.8-.3.3-.9V119h1.4v3.8q0 1.1-.7 1.8-.7.6-1.8.6zm4.1 1.9v-8h1.4v1q.2-.5.6-.8.4-.4 1-.4t1 .3q.5.3.8.8l.2 1.2v1.7q0 1-.5 1.7-.6.6-1.4.6-.7 0-1.1-.3-.5-.3-.6-1v3.2zm2.5-3q.6 0 .8-.4.3-.2.3-.8v-1.6q0-.6-.3-.9-.2-.3-.8-.3-.5 0-.8.3-.3.4-.3 1v1.4q0 .6.3.9t.8.3zm6 1.1q-.8 0-1.4-.6-.5-.6-.5-1.7v-1.6q0-1.1.5-1.7.6-.7 1.5-.7.6 0 1 .4.4.3.6.9V117h1.4v8h-1.4v-1.1q-.2.6-.6.9t-1 .3zm.6-1.2q.5 0 .8-.3t.3-.9v-1.5q0-.5-.3-.9-.3-.3-.8-.3-.6 0-.9.3-.2.3-.2.9v1.6q0 .5.2.8.3.3.9.3m6 1.2q-1 0-1.5-.5-.6-.5-.6-1.4t.6-1.4 1.7-.5h1.5v-.4q0-1-1-1-.6 0-.9.2l-.3.6h-1.3q0-.8.7-1.4.6-.5 1.7-.5 1.2 0 1.8.6.7.5.7 1.5v4.1h-1.4v-1.1q0 .5-.5.9-.5.3-1.3.3zm.4-1.1q.6 0 1-.3.3-.3.3-.8v-.7h-1.4q-.5 0-.7.2-.3.3-.3.7t.3.6q.3.3.8.3m7.4 1q-.8 0-1.3-.5t-.5-1.3v-3h-1.7v-1.3h1.7v-1.7h1.3v1.8h2.5v1.2h-2.5v3l.2.4q.1.2.4.2h1.8v1.2Zm6 .1q-.8 0-1.3-.3-.6-.3-1-.8-.2-.6-.2-1.3v-1.4q0-.8.3-1.3.3-.6.9-.9.5-.3 1.3-.3t1.3.3q.6.3 1 .9.2.5.2 1.2v1.1h-3.7v.4q0 .6.3 1 .3.3 1 .3l.6-.2q.3-.1.4-.4h1.4q-.2.8-.8 1.2-.7.5-1.7.5m-1.2-3.9v.2h2.4v-.2q0-.6-.3-1-.3-.3-.9-.3t-.9.3q-.3.4-.3 1m7.3 4q-1 0-1.5-.7-.5-.6-.5-1.7v-1.6q0-1.1.5-1.7.6-.7 1.5-.7.6 0 1 .4.4.3.6.9V117h1.4v8H299v-1.1q-.2.6-.6.9t-1 .3zm.5-1.3q.5 0 .8-.3t.3-.9v-1.5q0-.5-.3-.9-.3-.3-.8-.3-.6 0-.9.3-.2.3-.2.9v1.6q0 .5.2.8.3.3.9.3" aria-label="updated" clip-path="url(#clipPath2)" font-weight="700" transform="translate(10 10)"/><path d="M314 125v-8h2.1q.8 0 1.4.3t.9.8q.3.6.3 1.3v3.2q0 .7-.3 1.2-.3.6-1 .9-.5.3-1.3.3zm1-1h1.1q.7 0 1.1-.4t.4-1v-3.2q0-.7-.4-1-.4-.5-1-.5H315zm5.1 1 2-8h1.5l2 8h-1l-.5-2h-2.4l-.5 2zm1.8-3h2l-.6-2.4-.3-1.1-.1-.6-.1.6-.3 1.1zm7 3v-7h-2.1v-1h5.4v1h-2.1v7Zm5 0v-8h4.6v1H335v2.3h3.3v1H335v2.7h3.6v1Zm8.3 0v-7H340v-1h5.4v1h-2.1v7Zm5 0v-1h1.6v-6H347v-1h4.4v1h-1.6v6h1.6v1Zm6.1 0v-8h1.6l1 3.4 1-3.4h1.6v8h-1v-7.7l-1.2 4.1h-.9l-1.2-4 .1 1.8v5.8Zm7 0v-8h4.6v1h-3.6v2.3h3.3v1h-3.3v2.7h3.6v1Z" aria-label="DATETIME" clip-path="url(#clipPath2)" transform="translate(10 10)"/></g><path fill="#FFC" d="M229 152h153v132H229z" clip-path="url(#clipPath2)" transform="translate(10 10)" stroke="none"/><g fill="gray" stroke="gray" stroke-linecap="butt" stroke-miterlimit="1.4"><path fill="none" d="M229 152h153v132H229z" clip-path="url(#clipPath2)" transform="translate(10 10)"/><path fill="#000" d="M295 171v-7.7h-2.4v-1h6v1h-2.4v7.7Zm7.8.1q-1.2 0-2-.7-.6-.7-.6-2V167q0-1.2.7-2 .7-.6 1.9-.6.8 0 1.4.3t.9.9.3 1.3v1.2h-4v.6q0 .7.3 1.1.4.4 1.1.4.6 0 1-.2.3-.2.4-.6h1.2q-.1.8-.8 1.3-.8.5-1.8.5zm-1.5-4.3v.3h3v-.3q0-.7-.4-1.2-.4-.4-1.1-.4t-1 .4q-.5.5-.5 1.2m8 4.3q-1 0-1.5-.5-.6-.6-.6-1.5 0-1 .6-1.5.6-.6 1.6-.6h2v-.5q0-1.2-1.4-1.2-.6 0-1 .2-.3.2-.3.6h-1.2q0-.8.7-1.3t1.8-.5q1.2 0 1.9.6.6.5.6 1.6v4.5h-1.1v-1.2q-.1.6-.7 1-.5.3-1.3.3zm.4-1q.8 0 1.2-.3.5-.4.5-1v-1h-1.9q-.5 0-.8.4-.3.3-.3.8t.3.8q.4.3 1 .3m4.6.9v-6.6h1v.9q0-.5.4-.7.3-.3.7-.3.5 0 .8.2.3.3.4.8 0-.5.4-.8.3-.2.7-.2.6 0 1 .5.4.4.4 1.2v5h-1v-5q0-.4-.3-.6-.1-.2-.4-.2-.4 0-.5.2-.2.2-.2.6v5h-1v-5q0-.4-.2-.6-.1-.2-.5-.2-.3 0-.5.2l-.1.6v5Z" aria-label="Team" clip-path="url(#clipPath2)" font-family="JetBrains Mono Medium" transform="translate(10 10)" stroke="none"/><path fill="none" stroke-linecap="square" stroke-miterlimit="10" d="M230 178h151" clip-path="url(#clipPath2)" transform="translate(10 10)"/></g><path fill="none" stroke="#6e6e6e" stroke-linecap="round" stroke-linejoin="round" stroke-miterlimit="4" stroke-width="1.4" d="M251.4 193.1h2.8l3.5 3.5v2.8l-2.1 2.1h-2.8l-3.5-3.5v-2.8zm1.4 2.8 2.1 2.1m-5.6.7-4.9 4.9v2.1l.7.7h2.8v-2.1h2.1v-2.1h1.4l.7-.7" clip-path="url(#clipPath4)" image-rendering="optimizeQuality"/><path d="M258.9 196q-.8 0-1.3-.5t-.5-1.3v-3h-1.7V190h1.7v-1.8h1.3v1.8h2.5v1.2h-2.5v3l.2.4q.1.2.4.2h1.8v1.2Zm3.5 0v-1.2h2.1v-3.6h-1.8V190h3.2v4.8h1.8v1.2Zm2.7-7q-.4 0-.7-.3-.2-.2-.2-.6 0-.3.2-.5.3-.2.7-.2t.7.2q.2.2.2.5 0 .4-.2.6-.3.2-.7.2zm5.9 7.1q-1 0-1.5-.6t-.5-1.7v-1.6q0-1.1.5-1.7.6-.7 1.5-.7.6 0 1 .4.4.3.6.8v-3h1.4v8h-1.4v-1.1q-.2.6-.6.9t-1 .3m.5-1.2q.5 0 .8-.3t.3-.9v-1.5q0-.5-.3-.9-.3-.3-.8-.3-.6 0-.9.3-.2.3-.2.9v1.6q0 .6.2.8.3.3.9.3" aria-label="tid" clip-path="url(#clipPath2)" font-family="JetBrains Mono Medium" font-size="11" font-weight="700" transform="translate(10 10)" stroke="none"/><g stroke="none" stroke-linecap="butt" stroke-miterlimit="1.4" font-family="'JetBrains Mono Medium'" font-size="11"><path d="M314.1 196v-1h1.6v-6h-1.6v-1h4.4v1h-1.7v6h1.7v1Zm6.4 0v-8h1.5l2.4 6.7-.1-.7v-6h1v8h-1.5l-2.3-6.8v6.8Zm8.5 0v-7h-2.2v-1h5.4v1h-2.1v7Zm4.9 0v-8h4.6v1H335v2.3h3.3v1H335v2.7h3.6v1Zm8.8.1q-1 0-1.7-.6t-.7-1.7v-3.6q0-1.1.7-1.7.6-.6 1.7-.6t1.8.6.7 1.7H344q0-.7-.4-1-.3-.4-1-.4-.6 0-1 .4-.3.3-.3 1v3.6q0 .6.4 1 .3.3 1 .3.6 0 1-.3.3-.4.3-1v-1h-1.6v-1h2.7v2q0 1-.7 1.7-.7.6-1.8.6zm4.4-.1v-8h4.6v1h-3.6v2.3h3.3v1H348v2.7h3.6v1Zm6.5 0v-8h2.5q.7 0 1.3.3.5.3.8.8t.3 1.2q0 .8-.4 1.4t-1 .8l1.5 3.5h-1.2l-1.5-3.4h-1.2v3.4Zm1-4.3h1.5q.6 0 1-.4.3-.4.3-1t-.4-1q-.3-.4-1-.4h-1.3z" aria-label="INTEGER" clip-path="url(#clipPath2)" transform="translate(10 10)"/><path d="M255.8 216v-6h1.4v1q.1-.5.5-.8.5-.4 1.1-.4 1 0 1.4.6.6.6.6 1.6v4h-1.4v-3.8q0-.6-.3-.9t-.8-.3-.8.3-.3 1v3.7Zm8.4.1q-.9 0-1.4-.5-.6-.5-.6-1.4t.6-1.4 1.7-.5h1.5v-.4q0-1-1-1-.6 0-.9.2l-.3.6h-1.3q0-.8.7-1.4.6-.5 1.7-.5 1.2 0 1.8.6.7.5.7 1.5v4.1H266v-1.1q0 .5-.5.9-.5.3-1.3.3m.5-1.1q.6 0 1-.3.3-.3.3-.8v-.7h-1.4q-.5 0-.7.2-.3.3-.3.7t.3.6q.3.3.8.3m4 1v-6h1.2v.8q0-.4.3-.7t.7-.3.7.3.4.7q0-.4.3-.7t.7-.3q.6 0 1 .5.3.4.3 1v4.7H273v-4.5q0-.3-.2-.5l-.4-.1q-.4 0-.4.6v4.5h-1v-4.5q0-.3-.2-.5l-.3-.1q-.6 0-.6.6v4.5Zm9.4.1q-.8 0-1.3-.3-.6-.3-1-.8-.2-.6-.2-1.3v-1.4q0-.8.3-1.3.3-.6.9-.9.5-.3 1.3-.3t1.3.3q.6.3 1 .9.2.5.2 1.2v1.1H277v.4q0 .6.3 1 .3.3 1 .3l.6-.2q.3-.1.4-.4h1.4q-.2.8-.8 1.2-.7.5-1.7.5zm-1.2-3.9v.2h2.4v-.2q0-.6-.3-1-.3-.3-.9-.3t-.9.3q-.3.4-.3 1" aria-label="name" clip-path="url(#clipPath2)" font-weight="700" transform="translate(10 10)"/><path d="M315.8 216v-7h-2.2v-1h5.4v1h-2v7Zm4.9 0v-8h4.6v1h-3.6v2.3h3.3v1h-3.3v2.7h3.6v1Zm6 0 2.2-4-2.2-4h1.3l1.2 2.3.2.4.1.3.2-.3.2-.4 1.2-2.3h1.2l-2.2 3.9 2.3 4.1h-1.2l-1.4-2.5-.2-.4-.1-.3-.2.3-.2.4-1.3 2.5zm8.9 0v-7h-2.2v-1h5.4v1h-2.1v7Z" aria-label="TEXT" clip-path="url(#clipPath2)" transform="translate(10 10)"/><path d="M257.8 237.1q-1 0-1.5-.6t-.5-1.7v-1.6q0-1.1.5-1.7.6-.7 1.4-.7.7 0 1.1.4.4.3.6.9V229h1.4v8h-1.4v-1.1q-.2.6-.6.9t-1 .3m.5-1.2q.5 0 .8-.3t.3-.9v-1.5q0-.5-.3-.9-.3-.3-.8-.3-.6 0-.9.3-.2.3-.2.9v1.6q0 .6.2.8.3.3.9.3m6.6 1.2q-.8 0-1.3-.3-.6-.3-1-.8-.2-.6-.2-1.3v-1.4q0-.8.3-1.3.3-.6.9-.9.5-.3 1.3-.3t1.3.3q.6.3 1 .9.2.5.2 1.2v1.1h-3.7v.4q0 .6.3 1 .3.3 1 .3l.6-.2q.3-.1.4-.4h1.4q-.2.8-.9 1.2-.6.5-1.6.5m-1.2-3.9v.2h2.4v-.2q0-.6-.3-1-.3-.3-.9-.3t-.9.3q-.3.4-.3 1m7.5 3.9q-1 0-1.7-.5-.6-.5-.6-1.3h1.4q0 .3.2.5.3.2.7.2h.5q.5 0 .8-.2t.3-.5-.2-.5-.6-.2l-1.5-.2q-.7-.1-1.1-.6-.4-.4-.4-1.2t.6-1.3q.5-.4 1.6-.4h.5q1 0 1.6.4.7.5.7 1.2h-1.4l-.2-.4q-.3-.2-.7-.2h-.5q-.4 0-.7.2-.2.2-.2.5t.2.4l.5.2 1.4.2q.8 0 1.3.6.4.4.4 1.3 0 .8-.6 1.3t-1.8.5zm7 0q-.8 0-1.4-.3-.5-.3-.9-.8-.3-.5-.3-1.3v-1.5q0-.7.3-1.2.4-.6 1-.9.5-.3 1.3-.3 1.1 0 1.8.6t.7 1.6h-1.3q0-.4-.4-.7-.3-.3-.8-.3-.6 0-.9.3t-.3 1v1.4q0 .6.3.9t.9.3q.5 0 .8-.2.4-.3.4-.8h1.3q0 1-.7 1.6t-1.8.6" aria-label="desc" clip-path="url(#clipPath2)" font-weight="700" transform="translate(10 10)"/><path d="M315.8 237v-7h-2.2v-1h5.4v1h-2v7Zm4.9 0v-8h4.6v1h-3.6v2.3h3.3v1h-3.3v2.7h3.6v1Zm6 0 2.2-4-2.2-4h1.3l1.2 2.3.2.4.1.3.2-.3.2-.4 1.2-2.3h1.2l-2.2 3.9 2.3 4.1h-1.2l-1.4-2.5-.2-.4-.1-.3-.2.3-.2.4-1.3 2.5zm8.9 0v-7h-2.2v-1h5.4v1h-2.1v7Z" aria-label="TEXT" clip-path="url(#clipPath2)" transform="translate(10 10)"/><path d="M258.4 257.1q-.8 0-1.4-.3-.5-.3-.9-.8-.3-.5-.3-1.3v-1.5q0-.7.3-1.2.4-.6 1-.9.5-.3 1.3-.3 1.1 0 1.8.6t.7 1.6h-1.3q0-.4-.4-.7-.3-.3-.8-.3-.6 0-.9.3t-.3 1v1.4q0 .6.3.9t.9.3q.5 0 .8-.2.4-.3.4-.8h1.3q0 1-.7 1.6t-1.8.6m4.3-.1v-6h1.3v1.1q.1-.6.5-1 .5-.3 1.2-.3.9 0 1.4.6t.5 1.7v.6h-1.3v-.5q0-.6-.3-.9t-.8-.3q-.6 0-.9.4-.3.3-.3.9v3.7Zm8.8.1q-.8 0-1.3-.3-.6-.3-1-.8-.2-.6-.2-1.3v-1.4q0-.8.3-1.3.3-.6.9-.9.5-.3 1.3-.3t1.3.3q.6.3 1 .9.2.5.2 1.2v1.1h-3.7v.4q0 .6.3 1 .3.3 1 .3l.6-.2q.3-.1.4-.4h1.4q-.2.8-.8 1.2-.7.5-1.7.5m-1.2-3.9v.2h2.4v-.2q0-.6-.3-1-.3-.3-.9-.3t-.9.3q-.3.4-.3 1m7.1 4q-.9 0-1.4-.6-.6-.5-.6-1.4t.6-1.4 1.7-.5h1.5v-.4q0-1-1-1-.6 0-.9.2l-.3.6h-1.3q0-.8.7-1.4.6-.5 1.7-.5 1.2 0 1.8.6.7.5.7 1.5v4.1h-1.4v-1.1q0 .5-.5.9-.5.3-1.3.3zm.5-1.2q.6 0 1-.3.3-.3.3-.8v-.7h-1.4q-.5 0-.7.2-.3.3-.3.7t.3.6q.3.3.8.3m7.4 1q-.8 0-1.3-.5t-.5-1.3v-3h-1.7V251h1.7v-1.8h1.3v1.8h2.5v1.2h-2.5v3l.2.4q.1.2.4.2h1.8v1.2Zm6 .1q-.8 0-1.3-.3-.6-.3-1-.8-.2-.6-.2-1.3v-1.4q0-.8.3-1.3.3-.6.9-.9.5-.3 1.3-.3t1.3.3q.6.3 1 .9.2.5.2 1.2v1.1h-3.7v.4q0 .6.3 1 .3.3 1 .3l.6-.2q.3-.1.4-.4h1.4q-.2.8-.8 1.2-.7.5-1.7.5m-1.2-3.9v.2h2.4v-.2q0-.6-.3-1-.3-.3-.9-.3t-.9.3q-.3.4-.3 1m7.3 4q-1 0-1.5-.7-.5-.6-.5-1.7v-1.6q0-1.1.5-1.7.6-.7 1.5-.7.6 0 1 .4.4.3.6.9V249h1.4v8H299v-1.1q-.2.6-.6.9t-1 .3zm.5-1.3q.5 0 .8-.3t.3-.9v-1.5q0-.5-.3-.9-.3-.3-.8-.3-.6 0-.9.3-.2.3-.2.9v1.6q0 .6.2.8.3.3.9.3" aria-label="created" clip-path="url(#clipPath2)" font-weight="700" transform="translate(10 10)"/><path d="M314 257v-8h2.1q.8 0 1.4.3t.9.8q.3.6.3 1.3v3.2q0 .7-.3 1.2-.3.6-1 .9-.5.3-1.3.3zm1-1h1.1q.7 0 1.1-.4t.4-1v-3.2q0-.7-.4-1-.4-.5-1-.5H315zm5.1 1 2-8h1.5l2 8h-1l-.5-2h-2.4l-.5 2zm1.8-3h2l-.6-2.4-.3-1.1-.1-.6-.1.6-.3 1.1zm7 3v-7h-2.1v-1h5.4v1h-2.1v7Zm5 0v-8h4.6v1H335v2.3h3.3v1H335v2.7h3.6v1Zm8.3 0v-7H340v-1h5.4v1h-2.1v7Zm5 0v-1h1.6v-6H347v-1h4.4v1h-1.6v6h1.6v1Zm6.1 0v-8h1.6l1 3.4 1-3.4h1.6v8h-1v-7.7l-1.2 4.1h-.9l-1.2-4 .1 1.8v5.8Zm7 0v-8h4.6v1h-3.6v2.3h3.3v1h-3.3v2.7h3.6v1Z" aria-label="DATETIME" clip-path="url(#clipPath2)" transform="translate(10 10)"/><path d="M258.3 278.1q-1.2 0-1.8-.6-.7-.7-.7-1.8V272h1.4v3.7q0 .6.3.9t.8.3.8-.3.3-.9V272h1.4v3.7q0 1.1-.7 1.8-.7.6-1.8.6m4.1 1.9v-8h1.4v1q.2-.5.6-.8.4-.4 1-.4t1 .3q.5.3.8.8.2.6.2 1.3v1.6q0 1-.5 1.7-.6.6-1.4.6-.7 0-1.1-.3-.5-.3-.6-1v3.2zm2.5-3q.6 0 .8-.4.3-.2.3-.8v-1.6q0-.6-.3-.9-.2-.3-.8-.3-.5 0-.8.3-.3.4-.3 1v1.4q0 .6.3.9t.8.3zm6 1.1q-.8 0-1.4-.6-.5-.6-.5-1.7v-1.6q0-1.1.5-1.7.6-.7 1.5-.7.6 0 1 .4.4.3.6.9V270h1.4v8h-1.4v-1.1q-.2.6-.6.9t-1 .3zm.6-1.2q.5 0 .8-.3t.3-.9v-1.5q0-.5-.3-.9-.3-.3-.8-.3-.6 0-.9.3-.2.3-.2.9v1.6q0 .6.2.8.3.3.9.3m6 1.2q-1 0-1.5-.5-.6-.5-.6-1.4t.6-1.4 1.7-.5h1.5v-.4q0-1-1-1-.6 0-.9.2l-.3.6h-1.3q0-.8.7-1.4.6-.5 1.7-.5 1.2 0 1.8.6.7.5.7 1.5v4.1h-1.4v-1.1q0 .6-.5.9t-1.3.3zm.4-1.1q.6 0 1-.3.3-.3.3-.8v-.7h-1.4q-.5 0-.7.2-.3.3-.3.7t.3.6q.3.3.8.3m7.4 1q-.8 0-1.3-.5t-.5-1.3v-3h-1.7v-1.3h1.7v-1.7h1.3v1.8h2.5v1.2h-2.5v3l.2.4q.1.2.4.2h1.8v1.2Zm6 .1q-.8 0-1.3-.3-.6-.3-1-.8-.2-.6-.2-1.3v-1.4q0-.8.3-1.3.3-.6.9-.9.5-.3 1.3-.3t1.3.3q.6.3 1 .9.2.5.2 1.2v1.1h-3.7v.4q0 .7.3 1t1 .3l.6-.2q.3-.1.4-.4h1.4q-.2.8-.8 1.2-.7.5-1.7.5m-1.2-3.9v.2h2.4v-.2q0-.6-.3-1-.3-.3-.9-.3t-.9.3q-.3.4-.3 1m7.3 4q-1 0-1.5-.7-.5-.6-.5-1.7v-1.6q0-1.1.5-1.7.6-.7 1.5-.7.6 0 1 .4.4.3.6.9V270h1.4v8H299v-1.1q-.2.6-.6.9t-1 .3zm.5-1.3q.5 0 .8-.3t.3-.9v-1.5q0-.5-.3-.9-.3-.3-.8-.3-.6 0-.9.3-.2.3-.2.9v1.6q0 .6.2.8.3.3.9.3" aria-label="updated" clip-path="url(#clipPath2)" font-weight="700" transform="translate(10 10)"/><path d="M314 278v-8h2.1q.8 0 1.4.3t.9.8q.3.6.3 1.3v3.2q0 .7-.3 1.2-.3.6-1 .9-.5.3-1.3.3zm1-1h1.1q.7 0 1.1-.4t.4-1v-3.2q0-.7-.4-1-.4-.5-1-.5H315zm5.1 1 2-8h1.5l2 8h-1l-.5-2h-2.4l-.5 2zm1.8-3h2l-.6-2.4-.3-1.1-.1-.6-.1.6-.3 1.1zm7 3v-7h-2.1v-1h5.4v1h-2.1v7Zm5 0v-8h4.6v1H335v2.3h3.3v1H335v2.7h3.6v1Zm8.3 0v-7H340v-1h5.4v1h-2.1v7Zm5 0v-1h1.6v-6H347v-1h4.4v1h-1.6v6h1.6v1Zm6.1 0v-8h1.6l1 3.4 1-3.4h1.6v8h-1v-7.7l-1.2 4.1h-.9l-1.2-4 .1 1.8v5.8Zm7 0v-8h4.6v1h-3.6v2.3h3.3v1h-3.3v2.7h3.6v1Z" aria-label="DATETIME" clip-path="url(#clipPath2)" transform="translate(10 10)"/></g><path fill="#FFC" d="M0 152h169v112H0z" clip-path="url(#clipPath2)" transform="translate(10 10)" stroke="none"/><g fill="gray" stroke="gray" stroke-linecap="butt" stroke-miterlimit="1.4"><path fill="none" d="M0 152h169v112H0z" clip-path="url(#clipPath2)" transform="translate(10 10)"/><path fill="#000" d="M65.2 171v-1H67v-6.7h-1.8v-1H70v1h-1.8v6.6H70v1.1Zm7 0v-6.6h1.2v1.3q.1-.7.6-1 .5-.4 1.2-.4 1 0 1.6.6t.6 1.7v4.4h-1.2v-4.2q0-.7-.4-1.1-.3-.4-1-.4-.6 0-1 .4t-.4 1.1v4.2Zm9 0-2.2-6.6h1.3l1.4 4.3.2.8.1.6.2-.6.2-.8 1.4-4.3H85l-2.2 6.6zm5.4 0v-1h2.3v-4.5h-2v-1.1H90v5.5h2.2v1.1Zm2.8-7.8q-.4 0-.7-.2-.2-.2-.2-.5 0-.4.2-.6.3-.2.7-.2t.6.2q.3.2.3.6 0 .3-.3.5-.2.2-.6.2M97 171q-.9 0-1.4-.5t-.5-1.3v-3.7h-1.9v-1.1h2v-1.9h1.1v1.9H99v1h-2.7v3.8q0 .3.2.5t.5.2h2v1.1Zm6.5.1q-1.2 0-2-.7-.6-.7-.6-2V167q0-1.2.7-2 .7-.6 1.9-.6.8 0 1.4.3t.9.9.3 1.3v1.2h-4v.6q0 .7.3 1.1.4.4 1.1.4.6 0 1-.2.3-.2.4-.6h1.2q-.1.8-.8 1.3-.8.5-1.8.5zm-1.5-4.3v.3h3v-.3q0-.7-.4-1.2-.4-.4-1.1-.4t-1 .4q-.5.5-.5 1.2" aria-label="Invite" clip-path="url(#clipPath2)" font-family="JetBrains Mono Medium" transform="translate(10 10)" stroke="none"/><path fill="none" stroke-linecap="square" stroke-miterlimit="10" d="M1 178h167" clip-path="url(#clipPath2)" transform="translate(10 10)"/></g><path fill="none" stroke="#6e6e6e" stroke-linecap="round" stroke-linejoin="round" stroke-miterlimit="4" stroke-width="1.4" d="M22.4 193.1h2.8l3.5 3.5v2.8l-2.1 2.1h-2.8l-3.5-3.5v-2.8zm1.4 2.8 2.1 2.1m-5.6.7-4.9 4.9v2.1l.7.7h2.8v-2.1H21v-2.1h1.4l.7-.7" clip-path="url(#clipPath4)" image-rendering="optimizeQuality"/><path d="M30 196q-1 0-1.4-.5-.5-.5-.5-1.3v-3h-1.7V190H28v-1.8h1.3v1.8H32v1.2h-2.5v3l.2.4q.1.2.4.2h1.8v1.2Zm3.4 0v-1.2h2.1v-3.6h-1.8V190h3.2v4.8h1.8v1.2Zm2.7-7q-.4 0-.7-.3-.2-.2-.2-.6 0-.3.2-.5.3-.2.7-.2t.7.2q.2.2.2.5 0 .4-.2.6-.3.2-.7.2zm5.9 7q-1 0-1.5-.6t-.5-1.7v-1.6q0-1.1.5-1.7.6-.7 1.5-.7.6 0 1 .4.4.3.6.8v-3H45v8h-1.4v-1.1q-.2.6-.6.9t-1 .3m.5-1.2q.5 0 .8-.3t.3-.9v-1.5q0-.5-.3-.9-.3-.3-.8-.3-.6 0-.9.3-.2.3-.2.9v1.6q0 .6.2.8.3.3.9.3" aria-label="tid" clip-path="url(#clipPath2)" font-family="JetBrains Mono Medium" font-size="11" font-weight="700" transform="translate(10 10)" stroke="none"/><path d="M84.1 196v-1h1.7v-6H84v-1h4.4v1h-1.7v6h1.7v1Zm6.4 0v-8H92l2.4 6.7-.1-.7v-6h1v8h-1.5l-2.3-6.8v6.8Zm8.5 0v-7h-2.2v-1h5.4v1h-2.1v7Zm4.9 0v-8h4.6v1H105v2.3h3.3v1H105v2.7h3.6v1Zm8.8.1q-1 0-1.7-.6t-.7-1.7v-3.6q0-1.1.7-1.7.6-.6 1.7-.6t1.8.6.7 1.7H114q0-.7-.4-1-.3-.4-1-.4-.6 0-1 .4-.3.3-.3 1v3.6q0 .6.4 1 .3.3 1 .3.6 0 1-.3.3-.4.3-1v-1h-1.6v-1h2.7v2q0 1-.7 1.7-.7.6-1.8.6zm4.4-.1v-8h4.6v1h-3.6v2.3h3.3v1H118v2.7h3.6v1Zm6.5 0v-8h2.5q.7 0 1.3.3.5.3.8.8t.3 1.2q0 .8-.4 1.4t-1 .8l1.5 3.5h-1.2l-1.5-3.4h-1.2v3.4Zm1-4.3h1.5q.6 0 1-.4.3-.4.3-1t-.4-1q-.3-.4-1-.4h-1.3z" aria-label="INTEGER" clip-path="url(#clipPath2)" font-family="JetBrains Mono Medium" font-size="11" transform="translate(10 10)" stroke="none"/><path fill="none" stroke="#6e6e6e" stroke-linecap="round" stroke-linejoin="round" stroke-miterlimit="4" stroke-width="1.4" d="M161.9 195.9h7v7m-7 0 7-7" clip-path="url(#clipPath6)" image-rendering="optimizeQuality"/><path d="M29.4 216.1q-.8 0-1.4-.3-.5-.3-.9-.8-.3-.5-.3-1.3v-1.5q0-.7.3-1.2.4-.6 1-.9.5-.3 1.3-.3 1.1 0 1.8.6t.7 1.6h-1.3q0-.4-.4-.7-.3-.3-.8-.3-.6 0-.9.3t-.3 1v1.4q0 .6.3.9t.9.3q.5 0 .8-.2.4-.3.4-.8h1.3q0 1-.7 1.6t-1.8.6m6.5 0q-1.2 0-1.8-.6-.7-.7-.7-1.8v-1.4q0-1.2.7-1.8.6-.6 1.8-.6t1.8.6q.7.6.7 1.8v1.4q0 1-.7 1.8-.6.6-1.8.6m0-1.2q.6 0 .8-.3.4-.3.4-.9v-1.5q0-.5-.4-.8-.2-.4-.8-.4-.5 0-.9.4-.3.3-.3.8v1.5q0 .6.3.9.4.3.9.3m6 1.2q-.8 0-1.4-.6-.5-.6-.5-1.7v-1.6q0-1.1.5-1.7.6-.7 1.5-.7.6 0 1 .4.4.3.6.9V208H45v8h-1.4v-1.1q-.2.6-.6.9t-1 .3zm.6-1.2q.5 0 .8-.3t.3-.9v-1.5q0-.5-.3-.9-.3-.3-.8-.3-.6 0-.9.3-.2.3-.2.9v1.6q0 .6.2.8.3.3.9.3m6.6 1.2q-.8 0-1.3-.3-.6-.3-1-.8-.2-.6-.2-1.3v-1.4q0-.8.3-1.3.3-.6.9-.9.5-.3 1.3-.3t1.3.3q.6.3 1 .9.2.5.2 1.2v1.1H48v.4q0 .6.3 1 .3.3 1 .3l.6-.2q.3-.1.4-.4h1.4q-.2.8-.8 1.2-.7.5-1.7.5zm-1.2-3.9v.2h2.4v-.2q0-.6-.3-1-.3-.3-.9-.3t-.9.3q-.3.4-.3 1" aria-label="code" clip-path="url(#clipPath2)" font-family="JetBrains Mono Medium" font-size="11" font-weight="700" transform="translate(10 10)" stroke="none"/><g stroke="none" stroke-linecap="butt" stroke-miterlimit="1.4" font-family="'JetBrains Mono Medium'" font-size="11"><path d="M84 216v-8h2.3q1.1 0 1.7.5.7.6.7 1.5 0 .7-.4 1.2t-1 .6q.5 0 .8.3.4.3.6.7l.2 1q0 1-.7 1.6-.6.6-1.7.6Zm1-4.6h1.3q.6 0 1-.4.3-.3.3-.9 0-.5-.3-.8-.4-.4-1-.4H85zm0 3.6h1.4q.6 0 1-.3.4-.4.4-1t-.4-1-1-.4H85Zm6 1v-8h1.1v7h3.6v1Zm8.5.1q-1.1 0-1.7-.6-.7-.7-.7-1.8v-3.4q0-1.2.7-1.8.6-.6 1.7-.6t1.7.6q.7.6.7 1.8v3.4q0 1.1-.7 1.8-.6.6-1.7.6m0-1q.6 0 1-.3.3-.4.3-1v-3.6q0-.7-.3-1-.4-.4-1-.4t-1 .4q-.3.3-.3 1v3.6q0 .6.3 1 .4.3 1 .3m4.3.9v-8h2.3q1.1 0 1.7.5.7.6.7 1.5 0 .7-.4 1.2t-1 .6q.5 0 .8.3.4.3.6.7l.2 1q0 1-.7 1.6-.6.6-1.7.6zm1-4.6h1.3q.6 0 1-.4.3-.3.3-.9 0-.5-.3-.8-.4-.4-1-.4h-1.3zm0 3.6h1.4q.6 0 1-.3.4-.4.4-1t-.4-1-1-.4h-1.4z" aria-label="BLOB" clip-path="url(#clipPath2)" transform="translate(10 10)"/><path d="M29.4 237.1q-.8 0-1.4-.3-.5-.3-.9-.8-.3-.5-.3-1.3v-1.5q0-.7.3-1.2.4-.6 1-.9.5-.3 1.3-.3 1.1 0 1.8.6t.7 1.6h-1.3q0-.4-.4-.7-.3-.3-.8-.3-.6 0-.9.3t-.3 1v1.4q0 .6.3.9t.9.3q.5 0 .8-.2.4-.3.4-.8h1.3q0 1-.7 1.6t-1.8.6m4.3-.1v-6H35v1.1q.1-.6.5-1 .5-.3 1.2-.3 1 0 1.4.6.5.6.5 1.7v.6h-1.3v-.5q0-.6-.3-.9t-.8-.3q-.6 0-.9.4-.3.3-.3.9v3.7Zm8.8.1q-.8 0-1.3-.3-.6-.3-1-.8-.2-.6-.2-1.3v-1.4q0-.8.3-1.3.3-.6.9-.9.5-.3 1.3-.3t1.3.3q.6.3 1 .9.2.5.2 1.2v1.1h-3.7v.4q0 .6.3 1 .3.3 1 .3l.6-.2q.3-.1.4-.4H45q-.2.8-.8 1.2-.7.5-1.7.5m-1.2-3.9v.2h2.4v-.2q0-.6-.3-1-.3-.3-.9-.3t-.9.3q-.3.4-.3 1m7.1 4q-.9 0-1.4-.6-.6-.5-.6-1.4t.6-1.4 1.7-.5h1.5v-.4q0-1-1-1-.6 0-.9.2l-.3.6h-1.3q0-.8.7-1.4.6-.5 1.7-.5 1.2 0 1.8.6.7.5.7 1.5v4.1h-1.4v-1.1q0 .5-.5.9-.5.3-1.3.3zm.5-1.2q.6 0 1-.3.3-.3.3-.8v-.7h-1.4q-.5 0-.7.2-.3.3-.3.7t.3.6q.3.3.8.3m7.4 1q-.8 0-1.3-.5t-.5-1.3v-3h-1.7V231h1.7v-1.8h1.3v1.8h2.5v1.2h-2.5v3l.2.4q.1.2.4.2h1.8v1.2Zm6 .1q-.8 0-1.3-.3-.6-.3-1-.8-.2-.6-.2-1.3v-1.4q0-.8.3-1.3.3-.6.9-.9.5-.3 1.3-.3t1.3.3q.6.3 1 .9.2.5.2 1.2v1.1h-3.7v.4q0 .6.3 1 .3.3 1 .3l.6-.2q.3-.1.4-.4h1.4q-.2.8-.8 1.2-.7.5-1.7.5m-1.2-3.9v.2h2.4v-.2q0-.6-.3-1-.3-.3-.9-.3t-.9.3q-.3.4-.3 1m7.3 4q-1 0-1.5-.7-.5-.6-.5-1.7v-1.6q0-1.1.5-1.7.6-.7 1.5-.7.6 0 1 .4.4.3.6.9V229h1.4v8H70v-1.1q-.2.6-.6.9t-1 .3zm.5-1.3q.5 0 .8-.3t.3-.9v-1.5q0-.5-.3-.9-.3-.3-.8-.3-.6 0-.9.3-.2.3-.2.9v1.6q0 .6.2.8.3.3.9.3" aria-label="created" clip-path="url(#clipPath2)" font-weight="700" transform="translate(10 10)"/><path d="M84 237v-8h2q.8 0 1.4.3t.9.8q.3.6.3 1.3v3.2q0 .7-.3 1.2-.3.6-1 .9-.5.3-1.3.3Zm1-1h1.1q.7 0 1.1-.4t.4-1v-3.2q0-.7-.4-1-.4-.5-1-.5H85zm5.1 1 2-8h1.5l2 8h-1l-.5-2h-2.4l-.5 2zm1.8-3h2l-.6-2.4-.3-1.1-.1-.6-.1.6-.3 1.1zm7 3v-7h-2.1v-1h5.4v1h-2.1v7Zm5 0v-8h4.6v1H105v2.3h3.3v1H105v2.7h3.6v1Zm8.3 0v-7H110v-1h5.4v1h-2.1v7Zm5 0v-1h1.6v-6H117v-1h4.4v1h-1.6v6h1.6v1Zm6.1 0v-8h1.6l1 3.4 1-3.4h1.6v8h-1v-7.7l-1.2 4.1h-.9l-1.2-4 .1 1.8v5.8Zm7 0v-8h4.6v1h-3.6v2.3h3.3v1h-3.3v2.7h3.6v1Z" aria-label="DATETIME" clip-path="url(#clipPath2)" transform="translate(10 10)"/><path d="M29.3 257.1q-1.2 0-1.8-.6-.7-.7-.7-1.8V251h1.4v3.8q0 .6.3.9t.8.3.8-.3.3-.9V251h1.4v3.7q0 1.1-.7 1.8-.7.6-1.8.6m4.1 1.9v-8h1.4v1q.2-.5.6-.8.4-.4 1-.4t1 .3q.5.3.8.8l.2 1.2v1.7q0 1-.5 1.7-.6.6-1.4.6-.7 0-1.1-.3-.5-.3-.6-1v3.2zm2.5-3q.6 0 .8-.4.3-.2.3-.8v-1.6q0-.6-.3-.9-.2-.3-.8-.3-.5 0-.8.3-.3.4-.3 1v1.4q0 .6.3.9t.8.3zm6 1.1q-.8 0-1.4-.6-.5-.6-.5-1.7v-1.6q0-1.1.5-1.7.6-.7 1.5-.7.6 0 1 .4.4.3.6.9V249H45v8h-1.4v-1.1q-.2.6-.6.9t-1 .3zm.6-1.2q.5 0 .8-.3t.3-.9v-1.5q0-.5-.3-.9-.3-.3-.8-.3-.6 0-.9.3-.2.3-.2.9v1.6q0 .6.2.8.3.3.9.3m6 1.2q-1 0-1.5-.5-.6-.5-.6-1.4t.6-1.4 1.7-.5h1.5v-.4q0-1-1-1-.6 0-.9.2l-.3.6h-1.3q0-.8.7-1.4.6-.5 1.7-.5 1.2 0 1.8.6.7.5.7 1.5v4.1h-1.4v-1.1q0 .5-.5.9-.5.3-1.3.3zm.4-1.1q.6 0 1-.3.3-.3.3-.8v-.7h-1.4q-.5 0-.7.2-.3.3-.3.7t.3.6q.3.3.8.3m7.4 1q-.8 0-1.3-.5t-.5-1.3v-3h-1.7V251h1.7v-1.8h1.3v1.8h2.5v1.2h-2.5v3l.2.4q.1.2.4.2h1.8v1.2Zm6 .1q-.8 0-1.3-.3-.6-.3-1-.8-.2-.6-.2-1.3v-1.4q0-.8.3-1.3.3-.6.9-.9.5-.3 1.3-.3t1.3.3q.6.3 1 .9.2.5.2 1.2v1.1h-3.7v.4q0 .6.3 1 .3.3 1 .3l.6-.2q.3-.1.4-.4h1.4q-.2.8-.8 1.2-.7.5-1.7.5m-1.2-3.9v.2h2.4v-.2q0-.6-.3-1-.3-.3-.9-.3t-.9.3q-.3.4-.3 1m7.3 4q-1 0-1.5-.7-.5-.6-.5-1.7v-1.6q0-1.1.5-1.7.6-.7 1.5-.7.6 0 1 .4.4.3.6.9V249h1.4v8H70v-1.1q-.2.6-.6.9t-1 .3zm.5-1.3q.5 0 .8-.3t.3-.9v-1.5q0-.5-.3-.9-.3-.3-.8-.3-.6 0-.9.3-.2.3-.2.9v1.6q0 .6.2.8.3.3.9.3" aria-label="updated" clip-path="url(#clipPath2)" font-weight="700" transform="translate(10 10)"/><path d="M84 257v-8h2q.8 0 1.4.3t.9.8q.3.6.3 1.3v3.2q0 .7-.3 1.2-.3.6-1 .9-.5.3-1.3.3Zm1-1h1.1q.7 0 1.1-.4t.4-1v-3.2q0-.7-.4-1-.4-.5-1-.5H85zm5.1 1 2-8h1.5l2 8h-1l-.5-2h-2.4l-.5 2zm1.8-3h2l-.6-2.4-.3-1.1-.1-.6-.1.6-.3 1.1zm7 3v-7h-2.1v-1h5.4v1h-2.1v7Zm5 0v-8h4.6v1H105v2.3h3.3v1H105v2.7h3.6v1Zm8.3 0v-7H110v-1h5.4v1h-2.1v7Zm5 0v-1h1.6v-6H117v-1h4.4v1h-1.6v6h1.6v1Zm6.1 0v-8h1.6l1 3.4 1-3.4h1.6v8h-1v-7.7l-1.2 4.1h-.9l-1.2-4 .1 1.8v5.8Zm7 0v-8h4.6v1h-3.6v2.3h3.3v1h-3.3v2.7h3.6v1Z" aria-label="DATETIME" clip-path="url(#clipPath2)" transform="translate(10 10)"/></g><path fill="#FFC" d="M0 0h169v132H0z" clip-path="url(#clipPath2)" transform="translate(10 10)" stroke="none"/><g fill="gray" stroke="gray" stroke-linecap="butt" stroke-miterlimit="1.4"><path fill="none" d="M0 0h169v132H0z" clip-path="url(#clipPath2)" transform="translate(10 10)"/><path fill="#000" d="M64.8 18V9.2h1.7l1 3.8 1.2-3.8h1.7V18h-1.1v-7l.1-1.4-1.3 4.5h-1l-1.4-4.4.2 2V18Zm10 .1q-1.2 0-2-.7-.6-.7-.6-2V14q0-1.2.7-2 .7-.6 1.9-.6.8 0 1.4.3t.9.9.3 1.3V15h-4v.6q0 .7.3 1.1.4.4 1.1.4.6 0 1-.2.3-.2.4-.6h1.2q-.1.8-.8 1.3-.8.5-1.8.5m-1.5-4.3v.3h3v-.3q0-.7-.4-1.2-.4-.4-1.1-.4t-1 .4q-.5.5-.5 1.2m5.8 4.2v-6.6h1v.9q0-.5.4-.7.3-.3.7-.3.5 0 .8.2.3.3.4.8 0-.5.4-.8.3-.2.7-.2.6 0 1 .5.4.4.4 1.2v5h-1v-5q0-.4-.3-.6-.1-.2-.4-.2-.4 0-.5.2-.2.2-.2.6v5h-1v-5q0-.4-.2-.6-.1-.2-.5-.2-.3 0-.5.2l-.1.6v5Zm10.5.1q-.7 0-1.2-.4-.5-.3-.6-1V18h-1.1V9.2h1.1v3.5q.1-.7.6-1 .5-.4 1.2-.4 1 0 1.6.7.6.6.6 1.8v1.8q0 1.2-.6 1.9-.6.6-1.6.6m-.4-1q.7 0 1-.3.4-.4.4-1.2v-1.8q0-.8-.4-1.1-.3-.4-1-.4-.6 0-1 .4t-.4 1.1v1.8q0 .7.4 1 .4.5 1 .5m7.2 1q-1.2 0-2-.7-.6-.7-.6-2V14q0-1.2.7-2 .7-.6 1.9-.6.8 0 1.4.3t.9.9.3 1.3V15h-4v.6q0 .7.3 1.1.4.4 1.1.4.6 0 1-.2.3-.2.4-.6H99q-.1.8-.8 1.3-.8.5-1.8.5m-1.5-4.3v.3h3v-.3q0-.7-.4-1.2-.4-.4-1.1-.4t-1 .4q-.5.5-.5 1.2m6.4 4.2v-6.6h1.2v1.3q0-.7.5-1 .5-.4 1.3-.4 1 0 1.6.6.5.6.5 1.8v.6h-1.2v-.6q0-1.4-1.3-1.4-.7 0-1 .4-.4.4-.4 1.1V18Z" aria-label="Member" clip-path="url(#clipPath2)" font-family="JetBrains Mono Medium" transform="translate(10 10)" stroke="none"/><path fill="none" stroke-linecap="square" stroke-miterlimit="10" d="M1 25h167" clip-path="url(#clipPath2)" transform="translate(10 10)"/></g><path fill="none" stroke="#6e6e6e" stroke-linecap="round" stroke-linejoin="round" stroke-miterlimit="4" stroke-width="1.4" d="M22.4 41.1h2.8l3.5 3.5v2.8l-2.1 2.1h-2.8L20.3 46v-2.8zm1.4 2.8 2.1 2.1m-5.6.7-4.9 4.9v2.1l.7.7h2.8v-2.1H21v-2.1h1.4l.7-.7" clip-path="url(#clipPath4)" image-rendering="optimizeQuality"/><path d="M29.3 43.1q-1.2 0-1.8-.6-.7-.7-.7-1.8V37h1.4v3.8q0 .6.3.9t.8.3.8-.3.3-.9V37h1.4v3.8q0 1.1-.7 1.8-.7.6-1.8.6Zm4.1-.1v-1.2h2.1v-3.6h-1.8v-1.3h3.2v4.9h1.8V43Zm2.7-7q-.4 0-.7-.3-.2-.2-.2-.6 0-.3.2-.5.3-.2.7-.2t.7.2q.2.2.2.5 0 .4-.2.6-.3.2-.7.2zm5.9 7q-1 0-1.5-.6t-.5-1.7v-1.6q0-1.1.5-1.7.6-.7 1.5-.7.6 0 1 .4.4.3.6.8v-3H45v8h-1.4v-1.1q-.2.6-.6.9t-1 .3m.5-1.2q.5 0 .8-.3t.3-.9v-1.5q0-.5-.3-.9-.3-.3-.8-.3-.6 0-.9.3-.2.3-.2.9v1.6q0 .5.2.8.3.3.9.3" aria-label="uid" clip-path="url(#clipPath2)" font-family="JetBrains Mono Medium" font-size="11" font-weight="700" transform="translate(10 10)" stroke="none"/><path d="M84.1 43v-1h1.7v-6H84v-1h4.4v1h-1.7v6h1.7v1Zm6.4 0v-8H92l2.4 6.7-.1-.7v-6h1v8h-1.5l-2.3-6.8V43Zm8.5 0v-7h-2.2v-1h5.4v1h-2.1v7Zm4.9 0v-8h4.6v1H105v2.3h3.3v1H105V42h3.6v1Zm8.8.1q-1 0-1.7-.6t-.7-1.7v-3.6q0-1.1.7-1.7.6-.6 1.7-.6t1.8.6.7 1.7H114q0-.7-.4-1-.3-.4-1-.4-.6 0-1 .4-.3.3-.3 1v3.6q0 .6.4 1 .3.3 1 .3.6 0 1-.3.3-.4.3-1v-1h-1.6v-1h2.7v2q0 1-.7 1.7-.7.6-1.8.6zm4.4-.1v-8h4.6v1h-3.6v2.3h3.3v1H118V42h3.6v1Zm6.5 0v-8h2.5q.7 0 1.3.3.5.3.8.8t.3 1.2q0 .8-.4 1.4t-1 .8l1.5 3.5h-1.2l-1.5-3.4h-1.2V43Zm1-4.3h1.5q.6 0 1-.4.3-.4.3-1t-.4-1q-.3-.4-1-.4h-1.3z" aria-label="INTEGER" clip-path="url(#clipPath2)" font-family="JetBrains Mono Medium" font-size="11" transform="translate(10 10)" stroke="none"/><path fill="none" stroke="#6e6e6e" stroke-linecap="round" stroke-linejoin="round" stroke-miterlimit="4" stroke-width="1.4" d="M161.9 43.9h7v7m-7 0 7-7" clip-path="url(#clipPath6)" image-rendering="optimizeQuality"/><path fill="none" stroke="#6e6e6e" stroke-linecap="round" stroke-linejoin="round" stroke-miterlimit="4" stroke-width="1.4" d="M22.4 61.1h2.8l3.5 3.5v2.8l-2.1 2.1h-2.8L20.3 66v-2.8zm1.4 2.8 2.1 2.1m-5.6.7-4.9 4.9v2.1l.7.7h2.8v-2.1H21v-2.1h1.4l.7-.7" clip-path="url(#clipPath4)" image-rendering="optimizeQuality"/><path d="M30 64q-1 0-1.4-.5-.5-.5-.5-1.3v-3h-1.7v-1.3H28v-1.7h1.3V58H32v1.2h-2.5v3l.2.4q.1.2.4.2h1.8V64Zm3.4 0v-1.2h2.1v-3.6h-1.8v-1.3h3.2v4.9h1.8V64Zm2.7-7q-.4 0-.7-.3-.2-.2-.2-.6 0-.3.2-.5.3-.2.7-.2t.7.2q.2.2.2.5 0 .4-.2.6-.3.2-.7.2zm5.9 7q-1 0-1.5-.6t-.5-1.7v-1.6q0-1.1.5-1.7.6-.7 1.5-.7.6 0 1 .4.4.3.6.8v-3H45v8h-1.4v-1.1q-.2.6-.6.9t-1 .3m.5-1.2q.5 0 .8-.3t.3-.9v-1.5q0-.5-.3-.9-.3-.3-.8-.3-.6 0-.9.3-.2.3-.2.9v1.6q0 .5.2.8.3.3.9.3" aria-label="tid" clip-path="url(#clipPath2)" font-family="JetBrains Mono Medium" font-size="11" font-weight="700" transform="translate(10 10)" stroke="none"/><path d="M84.1 64v-1h1.7v-6H84v-1h4.4v1h-1.7v6h1.7v1Zm6.4 0v-8H92l2.4 6.7-.1-.7v-6h1v8h-1.5l-2.3-6.8V64Zm8.5 0v-7h-2.2v-1h5.4v1h-2.1v7Zm4.9 0v-8h4.6v1H105v2.3h3.3v1H105V63h3.6v1Zm8.8.1q-1 0-1.7-.6t-.7-1.7v-3.6q0-1.1.7-1.7.6-.6 1.7-.6t1.8.6.7 1.7H114q0-.7-.4-1-.3-.4-1-.4-.6 0-1 .4-.3.3-.3 1v3.6q0 .6.4 1 .3.3 1 .3.6 0 1-.3.3-.4.3-1v-1h-1.6v-1h2.7v2q0 1-.7 1.7-.7.6-1.8.6zm4.4-.1v-8h4.6v1h-3.6v2.3h3.3v1H118V63h3.6v1Zm6.5 0v-8h2.5q.7 0 1.3.3.5.3.8.8t.3 1.2q0 .8-.4 1.4t-1 .8l1.5 3.5h-1.2l-1.5-3.4h-1.2V64Zm1-4.3h1.5q.6 0 1-.4.3-.4.3-1t-.4-1q-.3-.4-1-.4h-1.3z" aria-label="INTEGER" clip-path="url(#clipPath2)" font-family="JetBrains Mono Medium" font-size="11" transform="translate(10 10)" stroke="none"/><path fill="none" stroke="#6e6e6e" stroke-linecap="round" stroke-linejoin="round" stroke-miterlimit="4" stroke-width="1.4" d="M161.9 63.9h7v7m-7 0 7-7" clip-path="url(#clipPath6)" image-rendering="optimizeQuality"/><path d="M28.6 84.1q-.9 0-1.4-.5-.6-.5-.6-1.4t.6-1.4 1.7-.5h1.5v-.4q0-1-1-1-.6 0-.9.2l-.3.6H27q0-.8.7-1.4.6-.5 1.7-.5 1.2 0 1.8.6.7.5.7 1.5V84h-1.4v-1.1q0 .5-.5.9-.5.3-1.3.3zm.5-1.1q.6 0 1-.3.3-.3.3-.8v-.7H29q-.5 0-.7.2-.3.3-.3.7t.3.6q.3.3.8.3m6.8 1.1q-1.2 0-1.8-.6-.7-.7-.7-1.8V78h1.4v3.8q0 .6.3.9t.8.3.8-.3.3-.9V78h1.4v3.8q0 1.1-.7 1.8-.7.6-1.8.6zm7.2-.1q-.8 0-1.3-.5t-.5-1.3v-3h-1.7v-1.3h1.7v-1.7h1.3V78h2.5v1.2h-2.5v3l.2.4q.1.2.4.2H45V84Zm3.5 0v-8H48v3q.1-.5.5-.8.5-.4 1.1-.4 1 0 1.4.6.6.6.6 1.6v4h-1.4v-3.8q0-.6-.3-.9t-.8-.3-.8.3-.3 1V84Z" aria-label="auth" clip-path="url(#clipPath2)" font-family="JetBrains Mono Medium" font-size="11" font-weight="700" transform="translate(10 10)" stroke="none"/><g stroke="none" stroke-linecap="butt" stroke-miterlimit="1.4" font-family="'JetBrains Mono Medium'" font-size="11"><path d="M84 84v-8h2.3q1.1 0 1.7.5.7.6.7 1.5 0 .7-.4 1.2t-1 .6q.5 0 .8.3.4.3.6.7t.2 1q0 1-.7 1.6-.6.6-1.7.6Zm1-4.6h1.3q.6 0 1-.4.3-.3.3-.9 0-.5-.3-.8-.4-.4-1-.4H85zm0 3.6h1.4q.6 0 1-.3.4-.4.4-1t-.4-1-1-.4H85zm7.9 1.1q-1.1 0-1.7-.6-.7-.7-.7-1.8v-3.4q0-1.2.7-1.8.6-.6 1.7-.6t1.7.6q.7.6.7 1.8v3.4q0 1.1-.7 1.8-.6.6-1.7.6m0-1q.6 0 1-.3.3-.4.3-1v-3.6q0-.7-.3-1-.4-.4-1-.4t-1 .4q-.3.3-.3 1v3.6q0 .6.3 1 .4.3 1 .3m6.6 1q-1.1 0-1.7-.6-.7-.7-.7-1.8v-3.4q0-1.2.7-1.8.6-.6 1.7-.6t1.7.6q.7.6.7 1.8v3.4q0 1.1-.7 1.8-.6.6-1.7.6m0-1q.6 0 1-.3.3-.4.3-1v-3.6q0-.7-.3-1-.4-.4-1-.4t-1 .4q-.3.3-.3 1v3.6q0 .6.3 1 .4.3 1 .3m4.7.9v-8h1.1v7h3.6v1Zm6.3 0v-8h4.6v1h-3.6v2.3h3.3v1h-3.3V83h3.6v1Zm6 0 2-8h1.5l2 8h-1l-.5-2H118l-.5 2zm1.8-3h2l-.6-2.4-.3-1.1-.1-.6-.1.6-.3 1.1zm5.2 3v-8h1.5l2.4 6.7-.1-.7v-6h1v8h-1.5l-2.3-6.8V84Z" aria-label="BOOLEAN" clip-path="url(#clipPath2)" transform="translate(10 10)"/><path d="M29.4 105.1q-.8 0-1.4-.3-.5-.3-.9-.8-.3-.5-.3-1.3v-1.5q0-.7.3-1.2.4-.6 1-.9.5-.3 1.3-.3 1.1 0 1.8.6t.7 1.6h-1.3q0-.4-.4-.7-.3-.3-.8-.3-.6 0-.9.3t-.3.9v1.5q0 .6.3.9t.9.3q.5 0 .8-.2.4-.3.4-.8h1.3q0 1-.7 1.6t-1.8.6m4.3-.1v-6H35v1.1q.1-.6.5-1 .5-.3 1.2-.3 1 0 1.4.6.5.6.5 1.7v.6h-1.3v-.5q0-.6-.3-.9t-.8-.3q-.6 0-.9.4-.3.3-.3.9v3.7Zm8.8.1q-.8 0-1.3-.3-.6-.3-1-.8-.2-.6-.2-1.3v-1.4q0-.8.3-1.3.3-.6.9-.9.5-.3 1.3-.3t1.3.3q.6.3 1 .9.2.5.2 1.2v1.1h-3.7v.4q0 .6.3 1 .3.3 1 .3l.6-.2q.3-.1.4-.4H45q-.2.8-.8 1.2-.7.5-1.7.5m-1.2-3.9v.2h2.4v-.2q0-.6-.3-1-.3-.3-.9-.3t-.9.3q-.3.4-.3 1m7.1 4q-.9 0-1.4-.6-.6-.5-.6-1.4t.6-1.4 1.7-.5h1.5v-.4q0-1-1-1-.6 0-.9.2l-.3.6h-1.3q0-.8.7-1.4.6-.5 1.7-.5 1.2 0 1.8.6.7.5.7 1.5v4.1h-1.4v-1.1q0 .5-.5.9-.5.3-1.3.3zm.5-1.2q.6 0 1-.3.3-.3.3-.8v-.7h-1.4q-.5 0-.7.2-.3.3-.3.7t.3.6q.3.3.8.3m7.4 1q-.8 0-1.3-.5t-.5-1.3v-3h-1.7v-1.3h1.7v-1.7h1.3V99h2.5v1.2h-2.5v3l.2.4q.1.2.4.2h1.8v1.2Zm6 .1q-.8 0-1.3-.3-.6-.3-1-.8-.2-.6-.2-1.3v-1.4q0-.8.3-1.3.3-.6.9-.9.5-.3 1.3-.3t1.3.3q.6.3 1 .9.2.5.2 1.2v1.1h-3.7v.4q0 .6.3 1 .3.3 1 .3l.6-.2q.3-.1.4-.4h1.4q-.2.8-.8 1.2-.7.5-1.7.5m-1.2-3.9v.2h2.4v-.2q0-.6-.3-1-.3-.3-.9-.3t-.9.3q-.3.4-.3 1m7.3 4q-1 0-1.5-.7-.5-.6-.5-1.7v-1.6q0-1.1.5-1.7.6-.7 1.5-.7.6 0 1 .4.4.3.6.9V97h1.4v8H70v-1.1q-.2.6-.6.9t-1 .3zm.5-1.3q.5 0 .8-.3t.3-.9v-1.5q0-.5-.3-.9-.3-.3-.8-.3-.6 0-.9.3-.2.3-.2.9v1.6q0 .5.2.8.3.3.9.3" aria-label="created" clip-path="url(#clipPath2)" font-weight="700" transform="translate(10 10)"/><path d="M84 105v-8h2q.8 0 1.4.3t.9.8q.3.6.3 1.3v3.2q0 .7-.3 1.2-.3.6-1 .9-.5.3-1.3.3Zm1-1h1.1q.7 0 1.1-.4t.4-1v-3.2q0-.7-.4-1-.4-.5-1-.5H85zm5.1 1 2-8h1.5l2 8h-1l-.5-2h-2.4l-.5 2zm1.8-3h2l-.6-2.4-.3-1.1-.1-.6-.1.6-.3 1.1zm7 3v-7h-2.1v-1h5.4v1h-2.1v7Zm5 0v-8h4.6v1H105v2.3h3.3v1H105v2.7h3.6v1Zm8.3 0v-7H110v-1h5.4v1h-2.1v7Zm5 0v-1h1.6v-6H117v-1h4.4v1h-1.6v6h1.6v1Zm6.1 0v-8h1.6l1 3.4 1-3.4h1.6v8h-1v-7.7l-1.2 4.1h-.9l-1.2-4 .1 1.8v5.8Zm7 0v-8h4.6v1h-3.6v2.3h3.3v1h-3.3v2.7h3.6v1Z" aria-label="DATETIME" clip-path="url(#clipPath2)" transform="translate(10 10)"/><path d="M29.3 125.1q-1.2 0-1.8-.6-.7-.7-.7-1.8V119h1.4v3.8q0 .6.3.9t.8.3.8-.3.3-.9V119h1.4v3.7q0 1.1-.7 1.8-.7.6-1.8.6m4.1 1.9v-8h1.4v1q.2-.5.6-.8.4-.4 1-.4t1 .3q.5.3.8.8l.2 1.2v1.7q0 1-.5 1.7-.6.6-1.4.6-.7 0-1.1-.3-.5-.3-.6-1v3.2zm2.5-3q.6 0 .8-.4.3-.2.3-.8v-1.6q0-.6-.3-.9-.2-.3-.8-.3-.5 0-.8.3-.3.4-.3 1v1.4q0 .6.3.9t.8.3zm6 1.1q-.8 0-1.4-.6-.5-.6-.5-1.7v-1.6q0-1.1.5-1.7.6-.7 1.5-.7.6 0 1 .4.4.3.6.9V117H45v8h-1.4v-1.1q-.2.6-.6.9t-1 .3zm.6-1.2q.5 0 .8-.3t.3-.9v-1.5q0-.5-.3-.9-.3-.3-.8-.3-.6 0-.9.3-.2.3-.2.9v1.6q0 .5.2.8.3.3.9.3m6 1.2q-1 0-1.5-.5-.6-.5-.6-1.4t.6-1.4 1.7-.5h1.5v-.4q0-1-1-1-.6 0-.9.2l-.3.6h-1.3q0-.8.7-1.4.6-.5 1.7-.5 1.2 0 1.8.6.7.5.7 1.5v4.1h-1.4v-1.1q0 .5-.5.9-.5.3-1.3.3zm.4-1.1q.6 0 1-.3.3-.3.3-.8v-.7h-1.4q-.5 0-.7.2-.3.3-.3.7t.3.6q.3.3.8.3m7.4 1q-.8 0-1.3-.5t-.5-1.3v-3h-1.7v-1.3h1.7v-1.7h1.3v1.8h2.5v1.2h-2.5v3l.2.4q.1.2.4.2h1.8v1.2Zm6 .1q-.8 0-1.3-.3-.6-.3-1-.8-.2-.6-.2-1.3v-1.4q0-.8.3-1.3.3-.6.9-.9.5-.3 1.3-.3t1.3.3q.6.3 1 .9.2.5.2 1.2v1.1h-3.7v.4q0 .6.3 1 .3.3 1 .3l.6-.2q.3-.1.4-.4h1.4q-.2.8-.8 1.2-.7.5-1.7.5m-1.2-3.9v.2h2.4v-.2q0-.6-.3-1-.3-.3-.9-.3t-.9.3q-.3.4-.3 1m7.3 4q-1 0-1.5-.7-.5-.6-.5-1.7v-1.6q0-1.1.5-1.7.6-.7 1.5-.7.6 0 1 .4.4.3.6.9V117h1.4v8H70v-1.1q-.2.6-.6.9t-1 .3zm.5-1.3q.5 0 .8-.3t.3-.9v-1.5q0-.5-.3-.9-.3-.3-.8-.3-.6 0-.9.3-.2.3-.2.9v1.6q0 .5.2.8.3.3.9.3" aria-label="updated" clip-path="url(#clipPath2)" font-weight="700" transform="translate(10 10)"/><path d="M84 125v-8h2q.8 0 1.4.3t.9.8q.3.6.3 1.3v3.2q0 .7-.3 1.2-.3.6-1 .9-.5.3-1.3.3Zm1-1h1.1q.7 0 1.1-.4t.4-1v-3.2q0-.7-.4-1-.4-.5-1-.5H85zm5.1 1 2-8h1.5l2 8h-1l-.5-2h-2.4l-.5 2zm1.8-3h2l-.6-2.4-.3-1.1-.1-.6-.1.6-.3 1.1zm7 3v-7h-2.1v-1h5.4v1h-2.1v7Zm5 0v-8h4.6v1H105v2.3h3.3v1H105v2.7h3.6v1Zm8.3 0v-7H110v-1h5.4v1h-2.1v7Zm5 0v-1h1.6v-6H117v-1h4.4v1h-1.6v6h1.6v1Zm6.1 0v-8h1.6l1 3.4 1-3.4h1.6v8h-1v-7.7l-1.2 4.1h-.9l-1.2-4 .1 1.8v5.8Zm7 0v-8h4.6v1h-3.6v2.3h3.3v1h-3.3v2.7h3.6v1Z" aria-label="DATETIME" clip-path="url(#clipPath2)" transform="translate(10 10)"/></g><path fill="none" stroke="gray" stroke-linecap="butt" stroke-miterlimit="1.4" d="M169 38h52" clip-path="url(#clipPath2)" transform="translate(10 10)"/><g fill="gray" stroke="gray" stroke-linecap="butt" stroke-miterlimit="1.4" transform="translate(10 10)"><path d="m229 38-12-5 3 5-3 5Z" clip-path="url(#clipPath2)" stroke="none"/><path fill="none" d="M169 191h52" clip-path="url(#clipPath2)"/><use xlink:href="#a" clip-path="url(#clipPath2)"/><path fill="none" d="M169 59h30v132h22" clip-path="url(#clipPath2)"/><use xlink:href="#a" clip-path="url(#clipPath2)"/></g></svg>